**ABCDEFGHIJKLMNOPQRSTUVWXYZabcdefghijklmnopqrstuvwxyz**************************
**PARASOLID !"#$%&'()*+,-./:;<=>?@[\]^_`{|}~0123456789**************************
**PART1;
MC=AMD64;
MC_MODEL=Intel64 Family 6 Model 142 Stepping 9, GenuineIntel;
MC_ID=unknown;
OS=Windows_NT;
OS_RELEASE=unknown;
FRU=Parasolid Version 28.0, build 174,  7- 3-2015;
APPL=SOLIDWORKS 2016-2015266;
SITE=;
USER=unknown;
FORMAT=text;
GUISE=transmit;
KEY=1000;
FILE=1000.x_t;
DATE=Sat Oct 06 20:48:36 2018;
**PART2;
SCH=SCH_2800174_28002;
USFLD_SIZE=0;
**PART3;
**END_OF_HEADER*****************************************************************
T51 : TRANSMIT FILE created by modeller version 280017423 SCH_2800174_28002_1300
6200 0 12 30 CCCCCCCCCCCCCDI5 owner1040 0 CCCCCCCCCA13 boundary_mesh1006 0 A16 i
ndex_map_offset0 0 1 dA9 index_map82 0 A17 node_id_index_map82 0 A20 schema_embe
dding_map82 0 A5 child12 0 A14 lowest_node_id0 0 1 dZ1 407 2 3 0 0 0 0 1e3 1e-8
 0 4 0 1 0 1 1 5 6 7 8 9 10 11 0 0 0 0 0 0 0 81 255 2 2 339 12 1 0 0 0 0 13 0 70
 11 CI9 list_type0 0 1 uI10 notransmit0 0 1 lCCCDCCDI12 finger_index0 0 1 dI12 f
inger_block1012 0 CZ3 0 4 T1 0 0 3 20 1 14 14 13 255 5 216 0 1 0 15 0 0 16 0 51
 255 6 209 0 15 17 0 0 +.004 .0374530956664466 -.046875 -1 0 0 .0135000000000125
 0 0 1 32 255 7 289 0 18 19 0 0 +0 0 -.04 1 0 0 0 0 -1 .025 .0078486785424694 29
 255 8 165 0 20 21 0 0 .0463968456664524 -.0569873358299522 19 8 CCCCCCCA5 owner
12 0 Z9 64 0 1 16 0 22 V0 16 255 10 176 0 ?23 0 24 19 0 0 1 18 255 11 59 0 25 0
 26 27 ?1 17 255 25 0 28 29 30 11 31 32 0 33 -18 26 56 0 34 11 35 36 ?1 29 27 61
 0 11 36 37 .004 .0463968456664524 -.0569873358299522 29 36 58 0 26 38 27 .004 .
00894374999999747 -.0901123358299428 29 37 170 0 39 27 40 0 .0479999706664546 -.
0384480534750395 18 39 154 0 23 41 0 37 ?1 29 40 169 0 41 37 42 0 .0105468749999
9824 .00842694652495268 18 41 153 0 43 44 39 40 ?1 29 42 168 0 44 40 45 0 -.0135
 -247990997574664e-32 18 44 152 0 46 47 41 42 ?1 29 45 167 0 47 42 21 0 -.0135 -
.08 18 47 151 0 48 49 44 45 ?1 29 21 166 0 49 45 8 0 .00894374999999747 -.090112
3358299428 18 49 150 0 50 20 47 21 ?1 17 50 0 28 30 29 49 51 52 0 53 +18 20 149
 0 31 54 49 8 ?1 17 31 0 55 56 33 20 25 32 0 57 +18 54 44 0 58 59 20 60 ?1 17 58
 0 55 33 56 54 23 10 0 61 -18 59 47 0 62 63 54 64 ?1 29 60 46 0 54 0 64 .004 .04
79999706664546 -.0384480534750395 29 64 49 0 59 60 65 .004 .01054687499999824 .0
0842694652495268 29 65 52 0 63 64 38 .004 -.0135 -247990997574664e-32 18 63 50 0
 66 35 59 65 ?1 29 38 55 0 35 65 36 .004 -.0135 -.08 18 35 53 0 67 26 63 38 ?1 1
7 67 0 68 69 70 35 48 71 0 72 -15 255 68 193 0 70 73 0 17 69 0 68 46 67 63 74 75
 0 0 +17 70 0 68 67 46 47 76 77 0 0 -17 48 0 78 53 72 47 67 71 0 79 +16 71 173 0
 ?48 80 52 81 0 0 1 17 72 0 78 48 51 35 34 82 0 74 -15 78 191 0 53 83 0 17 51 0
 78 72 53 26 50 52 0 29 -17 34 0 84 85 74 26 72 82 0 51 +16 82 24 0 ?34 86 75 87
 0 0 1 17 74 0 84 34 66 35 69 75 0 0 -15 84 4 0 61 88 89 17 66 0 84 74 90 63 91
 92 0 93 +16 75 20 0 ?69 82 92 94 0 0 1 16 92 16 0 ?66 75 95 96 0 0 1 30 255 94
 21 0 75 96 87 0 +.004 -.0135 -234187669256869e-32 0 -1734723475976805e-31 1 31
 255 96 17 0 92 97 94 0 +.004 0 0 1 0 0 0 0 -1 .0135 31 87 25 0 82 94 98 0 +.004
 0 -.08 1 0 0 0 0 -1 .0135 30 98 29 0 86 87 99 0 +.004 .0486440314064284 -.05499
98358299627 0 -.749061913329098 -.662499999999813 16 86 28 0 ?29 100 82 98 0 0 1
 31 99 33 0 100 98 101 0 +.004 0 -.08 1 0 0 0 0 -1 .0085 16 100 32 0 ?102 103 86
 99 0 0 1 31 101 37 0 103 99 104 0 +.004 .0374530956664466 -.046875 1 0 0 0 0 -1
 .0085 16 103 36 0 ?105 106 100 101 0 0 1 31 104 41 0 106 101 107 0 +.004 0 0 1
 0 0 0 0 -1 .0085 16 106 40 0 ?108 32 103 104 0 0 1 31 107 164 0 109 104 110 0 -
0 .0374530956664466 -.046875 1 0 0 0 0 -1 .0135000000000125 16 109 144 0 ?57 111
 18 107 0 0 1 30 110 163 0 111 107 112 0 +0 .01054687499999824 .0084269465249526
9 0 .624218261107606 -.78124999999987 16 111 139 0 ?113 114 109 110 0 0 1 31 112
 162 0 114 110 115 0 +0 0 0 1 0 0 0 0 -1 .0135 16 114 134 0 ?116 77 111 112 0 0
 1 30 115 161 0 77 112 117 0 +0 -.0135 -234187669256869e-32 0 -1734723475976805e
-31 1 16 77 129 0 ?76 118 114 115 0 0 1 31 117 160 0 118 115 119 0 +0 0 -.08 1 0
 0 0 0 -1 .0135 16 118 124 0 ?53 120 77 117 0 0 1 30 119 159 0 120 117 121 0 +0
 .0486440314064284 -.0549998358299627 0 -.749061913329098 -.662499999999813 16 1
20 119 0 ?122 123 118 119 0 0 1 31 121 158 0 123 119 124 0 +0 0 -.08 1 0 0 0 0 -
1 .0085 16 123 114 0 ?125 126 120 121 0 0 1 31 124 157 0 126 121 127 0 +0 .03745
30956664466 -.046875 1 0 0 0 0 -1 .0085 16 126 109 0 ?128 129 123 124 0 0 1 31 1
27 156 0 129 124 130 0 +0 0 0 1 0 0 0 0 -1 .0085 16 129 104 0 ?131 132 126 127 0
 0 1 30 130 210 0 32 127 133 0 +.004 .0463968456664524 -.0569873358299522 -1 0 0
 16 32 171 0 ?31 52 106 130 0 0 1 30 133 211 0 52 130 81 0 +.004 .00894374999999
747 -.0901123358299428 -1 0 0 16 52 172 0 ?50 71 32 133 0 0 1 30 81 212 0 71 133
 134 0 +.004 -.0135 -.08 -1 0 0 30 134 213 0 80 81 135 0 +.004 -.0135 -247990997
574664e-32 -1 0 0 16 80 174 0 ?46 24 71 134 0 0 1 30 135 214 0 24 134 19 0 +.004
 .01054687499999824 .00842694652495268 -1 0 0 16 24 175 0 ?43 10 80 135 0 0 1 30
 19 215 0 10 135 7 0 +.004 .0479999706664546 -.0384480534750395 -1 0 0 17 43 0 1
36 116 91 41 62 24 0 137 +15 136 195 0 116 138 0 17 116 0 136 93 43 44 137 114 0
 76 +17 91 0 136 43 93 59 66 92 0 90 -17 62 0 139 140 141 59 43 24 0 91 -17 137
 0 142 113 76 41 116 114 0 141 -15 142 100 0 57 143 144 17 113 0 142 57 137 39 1
41 111 0 0 +17 76 0 142 137 79 44 70 77 0 0 +17 141 0 139 62 23 41 113 111 0 0 -
15 139 197 0 141 145 0 17 23 0 139 141 140 39 58 10 0 56 +17 140 0 139 23 62 54
 90 95 0 0 +17 56 0 55 58 31 39 57 109 0 113 -15 55 199 0 56 15 0 17 57 0 142 12
2 113 20 56 109 0 30 +17 122 0 142 79 57 49 30 120 0 0 +17 30 0 28 25 50 20 122
 120 0 0 -15 28 189 0 30 146 0 14 255 146 190 147 ?148 149 28 5 150 +0 0 148 149
 22 81 1 147 396 151 146 152 0 0 153 154 14 148 178 153 ?88 146 155 5 156 +0 0 8
8 146 22 14 149 186 157 ?146 158 159 5 160 +0 0 146 158 22 50 255 150 204 0 146
 160 161 0 +.004 .0486440314064284 -.0549998358299627 0 .662499999999813 -.74906
1913329098 0 .749061913329098 .662499999999813 13 22 65 0 0 0 0 0 0 9 15 14 15 2
00 162 ?145 0 55 5 6 +0 0 145 0 22 81 1 162 399 151 15 163 0 157 164 165 14 145
 198 164 ?138 15 139 5 17 +0 0 138 15 22 81 1 164 400 151 145 166 0 162 167 168
 14 138 196 167 ?73 145 136 5 169 -0 0 73 145 22 50 17 208 0 145 169 6 0 +.004 .
01054687499999824 .00842694652495269 0 .78124999999987 .624218261107606 0 -.6242
18261107606 .78124999999987 51 169 207 0 138 170 17 0 -.004 0 0 -1 0 0 .0135 0 0
 1 50 170 206 0 73 161 169 0 +.004 -.0135 -234187669256869e-32 0 -1 -17347234759
76805e-31 0 1734723475976805e-31 -1 14 73 194 171 ?83 138 68 5 170 +0 0 83 138 2
2 51 161 205 0 83 150 170 0 -.004 0 -.08 -1 0 0 .0135 0 0 1 14 83 192 172 ?158 7
3 78 5 161 -0 0 158 73 22 81 1 172 403 151 83 173 0 171 174 175 14 158 182 174 ?
149 83 176 5 177 +0 0 149 83 22 81 1 174 404 151 158 178 0 172 179 180 15 176 18
1 0 105 158 181 51 177 202 0 158 156 160 0 -.004 .0374530956664466 -.046875 -1 0
 0 .0085 0 0 1 51 156 201 0 148 182 177 0 -.004 0 0 -1 0 0 .0085 0 0 1 51 160 20
3 0 149 177 150 0 -.004 0 -.08 -1 0 0 .0085 0 0 1 50 182 155 0 143 183 156 0 +0
 0 0 1 0 0 0 0 -1 14 143 98 179 ?184 88 185 5 182 -0 0 184 88 22 50 183 2 0 88 1
86 182 0 +.004 0 0 1 0 0 0 0 -1 14 88 1 187 ?143 148 188 5 183 +0 0 143 148 22 6
7 255 186 324 0 184 0 183 0 +189 1 0 0 .002464070194520785 14 184 306 190 ?0 143
 191 5 186 -0 0 0 143 22 32 189 328 0 1 0 192 193 +-.006 0 -.04 1 0 0 0 0 -1 .02
5 .0078486785424694 32 192 327 0 194 189 195 0 +.004 0 -.04 1 0 0 0 0 -1 .025 .0
078486785424694 141 255 193 186 193 193 189 16 194 303 0 ?196 18 0 192 0 0 1 31
 195 9 0 132 192 97 0 -.004 .0374530956664466 -.046875 1 0 0 0 0 -1 .01350000000
00125 16 132 8 0 ?33 95 129 195 0 0 1 30 97 13 0 95 195 96 0 +.004 .010546874999
99824 .00842694652495269 0 .624218261107606 -.78124999999987 16 95 12 0 ?140 92
 132 97 0 0 1 17 33 0 55 31 58 11 61 132 0 85 +17 61 0 84 90 85 54 33 132 0 140
 -17 85 0 84 61 34 11 29 86 0 0 -17 29 0 28 50 25 26 85 86 0 0 +17 90 0 84 66 61
 59 140 95 0 0 -17 196 0 191 196 196 0 197 194 0 0 +16 18 299 0 ?198 109 194 7 0
 0 1 17 198 0 185 198 198 0 199 18 0 0 +15 185 287 0 198 143 142 17 199 0 200 19
9 199 0 198 18 0 0 -15 200 310 0 199 184 0 15 191 309 0 196 184 200 17 197 0 188
 197 197 0 196 194 0 0 -15 188 294 0 197 88 84 81 1 190 407 151 184 201 0 187 0
 202 80 255 1 151 203 204 9000 1 1 1 1 1 1 1 1 0 FFFFTFTFFFFFFF1 81 1 201 369 20
5 184 0 190 206 0 207 81 1 187 406 151 88 208 0 179 190 209 82 255 1 202 -153524
6159 81 1 208 367 205 88 0 187 210 206 211 81 1 179 405 151 143 206 0 174 187 21
2 82 1 209 -1572798287 81 1 206 368 205 143 0 179 208 201 213 82 1 212 -15626402
07 80 1 205 0 214 8001 0 0 0 0 3 5 0 0 0 FFFFTFTFFFFFFF2 83 255 3 213 1 1 1 79 2
55 15 214 SDL/TYSA_COLOUR81 1 210 366 205 148 0 153 152 208 215 83 3 211 1 1 1 8
1 1 153 397 151 148 210 0 147 157 216 81 1 152 365 205 146 0 147 217 210 218 83
 3 215 1 1 1 81 1 217 364 205 149 0 157 178 152 219 83 3 218 1 1 1 81 1 157 398
 151 149 217 0 153 162 220 81 1 178 363 205 158 0 174 173 217 221 83 3 219 1 1 1
 81 1 173 362 205 83 0 172 222 178 223 83 3 221 1 1 1 81 1 222 361 205 73 0 171
 224 173 225 83 3 223 1 1 1 81 1 171 402 151 73 222 0 167 172 226 81 1 224 360 2
05 138 0 167 166 222 227 83 3 225 1 1 1 81 1 167 401 151 138 224 0 164 171 228 8
1 1 166 359 205 145 0 164 163 224 229 83 3 227 1 1 1 81 1 163 358 205 15 0 162 0
 166 230 83 3 229 1 1 1 83 3 230 1 1 1 82 1 228 -1556741970 82 1 226 -1556938578
 82 1 220 -1557659474 82 1 216 -1558183762 83 3 207 1 1 1 79 14 204 SWEntUnchang
ed17 105 0 176 105 105 0 231 103 0 0 +15 181 183 0 232 158 0 17 232 0 181 232 23
2 0 128 126 0 0 -17 128 0 233 128 128 0 232 126 0 0 +15 233 102 0 128 143 234 15
 234 103 0 131 143 0 17 131 0 234 131 131 0 235 129 0 0 +17 235 0 236 235 235 0
 131 129 0 0 -15 236 179 0 235 148 0 17 231 0 237 231 231 0 105 103 0 0 -15 237
 6 0 231 88 238 15 238 7 0 239 88 0 17 239 0 238 239 239 0 108 106 0 0 -17 108 0
 155 108 108 0 239 106 0 0 +15 155 177 0 108 148 236 82 1 180 -1557921618 82 1 1
75 -1557266258 82 1 168 -1556414290 82 1 165 -1556217682 15 159 185 0 102 149 24
0 17 102 0 159 102 102 0 241 100 0 0 +15 240 187 0 242 149 0 17 242 0 240 242 24
2 0 125 123 0 0 -17 125 0 144 125 125 0 242 123 0 0 +15 144 101 0 125 143 233 17
 241 0 89 241 241 0 102 100 0 0 -15 89 5 0 241 88 237 82 1 154 -1557397330 17 79
 0 142 76 122 47 53 118 0 70 -17 53 0 78 51 48 49 79 118 0 122 +17 93 0 136 91 1
16 63 46 80 0 69 -17 46 0 68 70 69 44 93 80 0 116 +19 16 217 0 1 0 9 5 S0 74 4 C
I16 index_map_offset0 0 1 dCCZ20 14 3 0 0 190 2 201 0 0 0 0 0 0 0 0 0 0 0 0 0 0
 0 0 0 80 2 12 243 244 8004 0 0 0 0 3 5 0 0 0 FFTFFFFFFFFFFF2 3 83 1 13 29e2 79
 16 244 SDL/TYSA_DENSITY1 0 
