**ABCDEFGHIJKLMNOPQRSTUVWXYZabcdefghijklmnopqrstuvwxyz**************************
**PARASOLID !"#$%&'()*+,-./:;<=>?@[\]^_`{|}~0123456789**************************
**PART1;
MC=AMD64;
MC_MODEL=Intel64 Family 6 Model 142 Stepping 9, GenuineIntel;
MC_ID=unknown;
OS=Windows_NT;
OS_RELEASE=unknown;
FRU=Parasolid Version 28.0, build 174,  7- 3-2015;
APPL=SOLIDWORKS 2016-2015266;
SITE=;
USER=unknown;
FORMAT=text;
GUISE=transmit;
KEY=1001;
FILE=1001.x_t;
DATE=Sat Oct 06 20:48:51 2018;
**PART2;
SCH=SCH_2800174_28002;
USFLD_SIZE=0;
**PART3;
**END_OF_HEADER*****************************************************************
T51 : TRANSMIT FILE created by modeller version 280017423 SCH_2800174_28002_1300
6200 0 12 30 CCCCCCCCCCCCCDI5 owner1040 0 CCCCCCCCCA13 boundary_mesh1006 0 A16 i
ndex_map_offset0 0 1 dA9 index_map82 0 A17 node_id_index_map82 0 A20 schema_embe
dding_map82 0 A5 child12 0 A14 lowest_node_id0 0 1 dZ1 474 2 3 0 0 0 0 1e3 1e-8
 0 4 0 1 0 1 1 5 6 7 8 9 10 11 0 0 0 0 0 0 0 81 255 2 2 412 12 1 0 0 0 0 13 0 70
 11 CI9 list_type0 0 1 uI10 notransmit0 0 1 lCCCDCCDI12 finger_index0 0 1 dI12 f
inger_block1012 0 CZ3 0 4 T1 0 0 3 20 1 14 14 13 255 5 134 0 1 0 15 0 0 16 0 50
 255 6 126 0 17 18 0 0 +.002 .0025 0 0 0 1 1 0 0 30 255 7 132 0 10 19 0 0 +.002
 .0025 0 -1 0 0 29 255 8 233 0 11 20 0 .002 .0025 .002 19 8 CCCCCCCA5 owner12 0
 Z9 40 0 1 16 0 21 V0 16 255 10 108 0 ?22 0 23 7 0 0 1 18 255 11 231 0 24 0 25 8
 ?1 17 255 24 0 26 27 28 11 29 30 0 31 -18 25 34 0 32 11 33 34 ?1 17 32 0 26 28
 27 25 35 36 0 37 +18 33 28 0 27 25 38 39 ?1 29 34 36 0 25 39 40 .002 -.0025 .01
1 29 39 30 0 33 41 34 .002 .0025 .011 29 40 102 0 42 34 43 0 .0025 0 18 42 89 0
 44 45 46 40 ?1 29 43 101 0 45 40 47 0 .0025 .011 18 45 88 0 48 49 42 43 ?1 29 4
7 99 0 49 43 20 0 -.0025 .011 18 49 86 0 50 38 45 47 ?1 29 20 98 0 38 47 8 0 -.0
025 -3061616997868385e-34 18 38 85 0 51 33 49 20 ?1 17 51 0 52 53 54 38 44 55 0
 56 -15 255 52 60 0 51 57 58 17 53 0 52 48 51 49 56 59 0 0 -17 54 0 52 51 48 42
 60 61 0 0 -17 44 0 62 63 64 42 51 55 0 22 +16 55 77 0 ?44 61 65 66 0 0 1 17 56
 0 67 68 69 38 53 59 0 64 +15 67 110 0 56 70 0 17 68 0 67 71 56 46 64 72 0 73 -1
7 69 0 67 56 74 49 37 75 0 53 +16 59 61 0 ?56 76 77 78 0 0 1 17 64 0 62 44 79 38
 68 72 0 0 +15 62 118 0 44 17 0 17 79 0 62 64 63 46 80 81 0 0 -16 72 104 0 ?64 7
5 82 83 0 0 1 16 75 105 0 ?69 23 72 84 0 0 1 16 82 19 0 ?28 72 36 85 0 0 1 30 83
 128 0 72 78 84 0 +.002 -.0025 -3061616997868385e-34 -1 0 0 30 78 92 0 59 86 83
 0 +0 -.0025 -3061616997868385e-34 0 1182766006347822e-31 -1 30 84 129 0 75 83 1
9 0 +.002 -.0025 .011 -1 0 0 30 19 131 0 23 84 7 0 +.002 .0025 .011 -1 0 0 16 23
 107 0 ?87 10 75 19 0 0 1 17 87 0 88 50 35 45 89 23 0 0 +15 88 112 0 50 90 0 17
 50 0 88 37 87 49 48 77 0 69 +17 35 0 88 87 37 33 32 36 0 0 -17 89 0 91 31 60 33
 87 23 0 35 -15 91 116 0 60 92 0 17 31 0 91 93 89 11 27 76 0 94 -17 60 0 91 89 2
2 45 54 61 0 87 +17 22 0 91 60 95 42 63 10 0 54 +16 61 73 0 ?60 77 55 96 0 0 1 1
6 77 65 0 ?50 59 61 86 0 0 1 30 96 95 0 61 66 86 0 +0 .0025 .011 0 0 1 30 66 96
 0 55 85 96 0 +0 .0025 0 0 1 0 30 86 93 0 77 96 78 0 +0 -.0025 .011 0 -1 0 30 85
 20 0 82 97 66 0 +.002 -.0025 -3061616997868385e-34 0 1182766006347822e-31 -1 30
 97 14 0 36 98 85 0 +.002 -367394039744206e-33 .011 0 -1 0 16 36 13 0 ?32 82 76
 97 0 0 1 30 98 11 0 76 99 97 0 +.002 .0025 .011 0 0 1 16 76 232 0 ?27 36 59 98
 0 0 1 31 255 99 196 0 100 101 98 0 +0 0 .008 1 0 0 0 0 -1 .0015 16 100 174 0 ?1
02 65 103 99 0 0 1 31 101 197 0 65 104 99 0 +.002 0 .008 1 0 0 0 0 -1 .0015 16 6
5 177 0 ?105 55 100 101 0 0 1 30 104 309 0 103 106 101 0 +.011 .0025 .002 -1 0 0
 16 103 253 0 ?94 100 107 104 0 0 1 30 106 310 0 107 108 104 0 +.011 -.0025 .002
 -1 0 0 16 107 257 0 ?109 103 110 106 0 0 1 30 108 313 0 30 111 106 0 +.002 .002
5 .002 0 -1 0 16 30 250 0 ?29 81 112 108 0 0 1 30 111 316 0 110 113 108 0 +.011
 -.0025 0 0 433680868994202e-30 -1 16 110 267 0 ?73 107 114 111 0 0 1 30 113 317
 0 114 115 111 0 +.011 .0025 .002 0 -1 0 16 114 264 0 ?116 110 117 113 0 0 1 30
 115 318 0 117 118 113 0 +.011 .0025 0 0 -433680868994202e-30 1 16 117 261 0 ?11
9 114 81 115 0 0 1 30 118 319 0 81 120 115 0 +.011 .0025 0 0 1 0 16 81 258 0 ?80
 117 30 118 0 0 1 31 120 398 0 112 121 118 0 +.008 -367394039744206e-33 0 0 0 1
 1 0 0 .0015 16 112 370 0 ?122 30 123 120 0 0 1 31 121 399 0 123 0 120 0 +.008 -
367394039744206e-33 .002 0 0 1 1 0 0 .0015 16 123 374 0 ?124 112 0 121 0 0 1 17
 124 0 125 124 124 0 126 123 0 0 +15 125 380 0 124 127 128 17 126 0 129 126 126
 0 124 123 0 0 -15 129 357 0 126 130 131 14 255 130 286 132 ?133 134 129 5 135 -
0 0 133 134 21 15 131 289 0 29 130 0 17 29 0 131 136 94 137 24 30 0 109 +17 136
 0 131 138 29 139 109 107 0 71 -17 94 0 131 29 138 11 93 103 0 0 +18 137 272 0 2
8 140 0 41 ?1 17 109 0 67 74 71 137 136 107 0 0 +17 74 0 67 69 109 25 28 82 0 0
 -17 71 0 67 109 68 139 73 110 0 0 -18 139 275 0 116 46 141 142 ?1 17 73 0 143 8
0 116 46 71 110 0 79 +15 143 296 0 80 133 0 17 80 0 143 119 73 140 79 81 0 0 +17
 116 0 143 73 119 139 138 114 0 136 +18 46 276 0 68 42 139 144 ?1 29 144 324 0 4
6 142 41 .011 -.0025 0 29 142 325 0 139 145 144 .011 -.0025 .002 29 41 321 0 137
 144 39 .002 -.0025 .002 29 145 326 0 141 146 142 .011 .0025 .002 18 141 274 0 1
19 139 140 145 ?1 29 146 327 0 140 0 145 .011 .0025 0 18 140 271 0 63 141 137 14
6 ?1 17 63 0 62 79 44 140 22 10 0 95 -17 95 0 91 22 93 140 119 117 0 80 -17 93 0
 91 95 31 141 94 103 0 138 -17 119 0 143 116 80 141 95 117 0 93 +17 138 0 131 94
 136 141 116 114 0 0 -14 133 294 147 ?127 130 143 5 148 -0 0 127 130 21 81 1 147
 466 149 133 150 0 132 151 152 14 127 377 151 ?0 133 125 5 153 -0 0 0 133 21 50
 148 307 0 133 153 135 0 +.011 0 0 -1 0 0 0 0 1 13 21 41 0 0 0 0 0 0 9 15 14 15
 239 154 ?57 0 155 5 156 -0 0 57 0 21 81 1 154 468 149 15 157 0 151 158 159 14 5
7 165 158 ?17 15 52 5 160 +0 0 17 15 21 15 155 169 0 161 15 26 50 156 2 0 15 162
 160 0 +.002 0 0 -1 0 0 0 0 1 51 255 162 193 0 134 135 156 0 -.002 0 .008 -1 0 0
 .0015 0 0 1 50 160 91 0 57 156 163 0 +0 0 0 -1 0 0 0 0 1 50 163 122 0 70 160 16
4 0 +.002 -.0025 -3061616997868385e-34 0 1 1182766006347822e-31 0 -1182766006347
822e-31 1 14 70 111 165 ?134 90 67 5 163 -0 0 134 90 21 50 164 123 0 90 163 18 0
 +.002 -.0025 .011 0 0 -1 -1 0 0 14 90 113 166 ?70 92 88 5 164 -0 0 70 92 21 50
 18 125 0 92 164 6 0 +.002 .0025 .011 0 -1 0 0 0 -1 14 92 117 167 ?90 17 91 5 18
 -0 0 90 17 21 81 1 167 472 149 92 168 0 166 169 170 14 17 119 169 ?92 57 171 5
 6 -0 0 92 57 21 81 1 169 473 149 17 172 0 167 173 174 15 171 363 0 122 17 62 17
 122 0 171 122 122 0 175 112 0 0 +17 175 0 128 175 175 0 122 112 0 0 -15 128 381
 0 175 127 0 80 255 1 149 176 177 9000 1 1 1 1 1 1 1 1 0 FFFFTFTFFFFFFF1 81 1 17
2 430 178 17 0 169 179 168 180 81 1 173 474 149 134 181 0 169 0 182 82 255 1 174
 64028833 14 134 180 173 ?130 70 183 5 162 +0 0 130 70 21 81 1 181 434 178 134 0
 173 184 185 186 82 1 182 2079260816 80 1 178 0 187 8001 0 0 0 0 3 5 0 0 0 FFFFT
FTFFFFFFF2 81 1 184 433 178 70 0 165 188 181 189 81 1 185 435 178 130 0 132 181
 150 190 83 255 3 186 1 1 1 81 1 132 465 149 130 185 0 0 147 191 81 1 150 436 17
8 133 0 147 185 192 193 83 3 190 1 1 1 81 1 192 437 178 127 0 151 150 0 194 83 3
 193 1 1 1 81 1 151 467 149 127 192 0 147 154 195 83 3 194 1 1 1 82 1 195 182891
3313 82 1 191 61014177 81 1 165 470 149 70 184 0 158 166 196 81 1 188 432 178 90
 0 166 168 184 197 83 3 189 1 1 1 81 1 166 471 149 90 188 0 165 167 198 81 1 168
 431 178 92 0 167 172 188 199 83 3 197 1 1 1 83 3 199 1 1 1 82 1 198 2072838288
 81 1 158 469 149 57 179 0 154 165 200 82 1 196 2072576153 81 1 179 429 178 57 0
 158 157 172 201 82 1 200 2080964752 81 1 157 428 178 15 0 154 0 179 202 83 3 20
1 1 1 1 83 3 202 1 1 1 79 255 15 187 SDL/TYSA_COLOUR15 183 183 0 105 134 203 17
 105 0 183 105 105 0 161 65 0 0 +15 203 184 0 204 134 0 17 204 0 203 204 204 0 1
02 100 0 0 -17 102 0 58 102 102 0 204 100 0 0 +15 58 162 0 102 57 0 17 161 0 155
 161 161 0 105 65 0 0 -83 3 180 1 1 1 79 14 177 SWEntUnchanged82 1 170 207336258
5 50 135 304 0 130 148 162 0 +.011 .0025 .002 0 0 -1 -1 0 0 15 26 238 0 24 15 0
 82 1 159 445055129 51 153 395 0 127 0 148 0 +.008 -367394039744206e-33 -.004 0
 0 1 .0015 1 0 0 82 1 152 433717401 17 28 0 26 24 32 137 74 82 0 29 +17 27 0 26
 32 24 33 31 76 0 89 +17 37 0 88 35 50 25 69 75 0 74 -17 48 0 52 54 53 45 50 77
 0 60 -19 16 135 0 1 0 9 5 S0 74 4 CI16 index_map_offset0 0 1 dCCZ20 14 3 0 0 17
3 2 192 0 0 0 0 0 0 0 0 0 0 0 0 0 0 0 0 0 80 2 12 205 206 8004 0 0 0 0 3 5 0 0 0
 FFTFFFFFFFFFFF2 3 83 1 13 1e3 79 16 206 SDL/TYSA_DENSITY1 0 
