**ABCDEFGHIJKLMNOPQRSTUVWXYZabcdefghijklmnopqrstuvwxyz**************************
**PARASOLID !"#$%&'()*+,-./:;<=>?@[\]^_`{|}~0123456789**************************
**PART1;
MC=AMD64;
MC_MODEL=Intel64 Family 6 Model 142 Stepping 9, GenuineIntel;
MC_ID=unknown;
OS=Windows_NT;
OS_RELEASE=unknown;
FRU=Parasolid Version 28.0, build 174,  7- 3-2015;
APPL=SOLIDWORKS 2016-2015266;
SITE=;
USER=unknown;
FORMAT=text;
GUISE=transmit;
KEY=1002;
FILE=1002.x_t;
DATE=Sat Oct 06 20:49:18 2018;
**PART2;
SCH=SCH_2800174_28002;
USFLD_SIZE=0;
**PART3;
**END_OF_HEADER*****************************************************************
T51 : TRANSMIT FILE created by modeller version 280017423 SCH_2800174_28002_1300
6200 0 12 30 CCCCCCCCCCCCCDI5 owner1040 0 CCCCCCCCCA13 boundary_mesh1006 0 A16 i
ndex_map_offset0 0 1 dA9 index_map82 0 A17 node_id_index_map82 0 A20 schema_embe
dding_map82 0 A5 child12 0 A14 lowest_node_id0 0 1 dZ1 624 2 3 0 0 0 0 1e3 1e-8
 0 4 0 1 0 1 1 5 6 7 8 9 10 11 0 0 0 0 0 0 0 81 255 2 2 522 12 1 0 0 0 0 13 0 70
 11 CI9 list_type0 0 1 uI10 notransmit0 0 1 lCCCDCCDI12 finger_index0 0 1 dI12 f
inger_block1012 0 CZ3 0 4 T1 0 0 3 20 1 14 14 13 255 5 29 0 1 0 15 0 0 16 0 51 2
55 6 28 0 15 17 0 0 -.01 0 0 -1 0 0 .006 0 0 1 31 255 7 23 0 18 19 0 0 +0 0 0 1
 0 0 0 0 -1 .006 29 255 8 133 0 11 20 0 .01 0 .006 19 8 CCCCCCCA5 owner12 0 Z9 7
 0 1 16 0 21 V0 16 255 10 132 0 ?22 0 18 19 0 0 1 18 255 11 131 0 23 0 24 8 ?1 1
7 255 23 0 25 22 26 11 27 28 0 29 +18 24 240 0 30 11 31 32 ?1 17 30 0 33 34 35 2
4 26 36 0 37 +18 31 239 0 35 24 38 39 ?1 29 32 352 0 24 39 40 .01 .013 -.006 29
 39 353 0 31 41 32 .01 .013 .006 29 40 351 0 42 32 43 0 0 -.006 18 42 236 0 44 4
5 0 40 ?1 29 43 350 0 45 40 20 0 0 .006 18 45 243 0 46 47 42 43 ?1 29 20 348 0 4
7 43 8 .01 0 -.006 18 47 245 0 48 49 45 20 ?1 17 48 0 50 51 52 47 37 53 0 54 +18
 49 244 0 55 38 47 56 ?1 17 55 0 57 44 58 49 59 60 0 34 -18 38 238 0 59 31 49 41
 ?1 29 56 355 0 49 0 41 0 .013 -.006 29 41 354 0 38 56 39 0 .013 .006 17 59 0 33
 35 34 38 55 60 0 58 +15 255 33 287 0 34 61 62 17 35 0 33 30 59 31 63 64 0 27 +1
7 34 0 33 59 30 49 52 65 0 66 +16 60 203 0 ?59 64 65 67 0 0 1 17 58 0 57 55 68 3
8 46 69 0 63 -15 57 38 0 68 70 0 17 68 0 57 58 44 45 71 18 0 0 -17 46 0 72 29 63
 45 58 69 0 73 +16 69 226 0 ?46 74 28 75 0 0 1 17 63 0 72 46 27 38 35 64 0 0 -15
 72 303 0 29 76 0 17 27 0 72 63 29 31 23 28 0 26 -16 64 206 0 ?35 36 60 77 0 0 1
 16 36 209 0 ?30 53 64 78 0 0 1 30 255 77 335 0 64 67 78 0 +.01 .013 .006 1 0 34
69446951953615e-31 30 67 336 0 60 79 77 0 +0 .013 .006 0 0 1 30 78 334 0 36 77 8
0 0 +.01 .013 .006 144560289664734e-30 0 -1 30 80 333 0 81 78 82 0 +.01 0 -.006
 -1 0 0 16 81 217 0 ?51 83 84 80 0 0 1 30 82 331 0 83 80 85 0 +.01 0 .006 1 0 34
69446951953615e-31 16 83 223 0 ?29 65 81 82 0 0 1 30 85 329 0 53 82 86 0 +.01 .0
13 -.006 0 -1 0 16 53 220 0 ?48 28 36 85 0 0 1 30 86 328 0 28 85 75 0 +.01 .013
 .006 0 -1 0 16 28 227 0 ?23 69 53 86 0 0 1 30 75 327 0 69 86 87 0 +0 .013 .006
 0 -1 0 30 87 326 0 74 75 88 0 +0 .013 -.006 0 -1 0 16 74 221 0 ?44 89 69 87 0 0
 1 31 88 72 0 90 87 91 0 +.01 0 0 1 0 0 0 0 -1 .003 16 90 96 0 ?92 18 89 88 0 0
 1 31 91 71 0 89 88 19 0 +0 0 0 1 0 0 0 0 -1 .003 16 89 101 0 ?93 90 74 91 0 0 1
 31 19 5 0 10 91 7 0 +.01 0 0 1 0 0 0 0 -1 .006 17 93 0 94 93 93 0 95 89 0 0 +15
 94 380 0 93 70 57 17 95 0 96 95 95 0 93 89 0 0 -15 96 113 0 95 97 0 14 255 97 5
5 98 ?99 70 100 5 101 +0 0 99 70 21 81 1 98 616 102 97 103 0 0 104 105 14 99 271
 104 ?61 97 106 5 107 +0 0 61 97 21 14 70 40 108 ?97 109 94 5 17 -0 0 97 109 21
 15 100 507 0 92 97 96 51 101 68 0 97 110 111 0 -.01 0 0 -1 0 0 .003 0 0 1 13 21
 8 0 0 0 0 0 0 9 15 14 15 149 112 ?109 0 113 5 6 -0 0 109 0 21 81 1 112 619 102
 15 114 0 108 115 116 14 109 46 115 ?70 15 117 5 111 +0 0 70 15 21 15 113 147 0
 54 15 0 17 54 0 113 118 71 47 51 81 0 22 -17 118 0 113 73 54 11 22 10 0 0 -17 7
1 0 113 54 73 42 68 18 0 0 +17 51 0 50 66 48 42 54 81 0 71 +17 22 0 25 37 23 47
 118 10 0 0 +15 25 160 0 23 109 0 17 37 0 25 26 22 24 48 53 0 52 -17 26 0 25 23
 37 31 30 36 0 0 -17 52 0 50 48 66 24 34 65 0 0 -15 50 295 0 51 119 0 17 66 0 50
 52 51 49 44 74 0 0 -16 65 200 0 ?34 60 83 79 0 0 1 30 79 337 0 65 120 67 0 +.01
 .013 -.006 -1 0 0 31 120 339 0 84 121 79 0 +.005 .013 1734723475976805e-33 0 1
 0 0 0 1 .0035 16 84 195 0 ?122 81 123 120 0 0 1 31 121 565 0 123 0 120 0 +.005
 .0045 1734723475976805e-33 0 1 0 0 0 1 .0035 16 123 535 0 ?124 84 0 121 0 0 1 1
7 124 0 125 124 124 0 126 123 0 0 +15 125 554 0 124 127 0 17 126 0 128 126 126 0
 124 123 0 0 -15 128 545 0 126 99 0 14 127 552 129 ?0 76 125 5 130 +0 0 0 76 21
 81 1 129 621 102 127 131 0 115 132 133 14 76 300 132 ?127 119 72 5 134 -0 0 127
 119 21 50 255 130 562 0 127 0 107 0 +.005 .0045 1734723475976805e-33 0 1 0 0 0
 1 51 107 320 0 99 130 135 0 -.005 .013 1734723475976805e-33 0 -1 0 .0035 0 0 -1
 50 135 319 0 61 107 134 0 +0 .013 0 0 -1 0 0 0 -1 14 61 285 136 ?119 99 33 5 13
5 -0 0 119 99 21 50 134 316 0 76 135 110 0 +.01 .013 .006 3469446951953615e-31 0
 -1 -1 0 -3469446951953615e-31 50 110 314 0 119 134 101 0 +.01 .013 -.006 0 0 1
 1 0 0 14 119 292 137 ?76 61 50 5 110 -0 0 76 61 21 81 1 137 624 102 119 138 0 1
36 0 139 80 255 1 102 140 141 9000 1 1 1 1 1 1 1 1 0 FFFFTFTFFFFFFF1 81 1 138 58
9 142 119 0 137 143 144 145 81 1 136 623 102 61 143 0 132 137 146 82 255 1 139 -
1998192491 81 1 143 588 142 61 0 136 147 138 148 81 1 132 622 102 76 144 0 129 1
36 149 82 1 146 -1991114603 81 1 144 590 142 76 0 132 138 131 150 82 1 149 -1998
716779 80 1 142 0 151 8001 0 0 0 0 3 5 0 0 0 FFFFTFTFFFFFFF2 81 1 131 591 142 12
7 0 129 144 0 152 83 255 3 150 1 1 1 83 3 152 1 1 1 79 255 15 151 SDL/TYSA_COLOU
R81 1 147 587 142 99 0 104 103 143 153 83 3 148 1 1 1 81 1 104 617 102 99 147 0
 98 108 154 81 1 103 586 142 97 0 98 155 147 156 83 3 153 1 1 1 81 1 155 585 142
 70 0 108 157 103 158 83 3 156 1 1 1 81 1 108 618 102 70 155 0 104 112 159 81 1
 157 584 142 109 0 115 114 155 160 83 3 158 1 1 1 81 1 115 620 102 109 157 0 112
 129 161 81 1 114 583 142 15 0 112 0 157 162 83 3 160 1 1 1 83 3 162 1 1 1 82 1
 161 -1621098341 82 1 159 -1621622629 82 1 154 -309460830 83 3 145 1 1 1 79 14 1
41 SWEntUnchanged82 1 133 -2092302174 17 122 0 106 122 122 0 163 84 0 0 +15 106
 274 0 122 99 128 17 163 0 62 163 163 0 122 84 0 0 -15 62 288 0 163 61 0 17 44 0
 57 68 55 42 66 74 0 51 +17 73 0 113 71 118 45 29 83 0 68 -16 18 137 0 ?71 10 90
 7 0 0 1 17 29 0 72 27 46 11 73 83 0 118 +15 117 417 0 164 109 25 50 111 2 0 109
 101 17 0 +.01 0 0 1 0 0 0 0 -1 50 17 22 0 70 111 6 0 +0 0 0 1 0 0 0 0 -1 17 164
 0 117 164 164 0 92 90 0 0 -17 92 0 100 92 92 0 164 90 0 0 +82 1 116 -1975779179
 82 1 105 -1627455333 19 16 30 0 1 0 9 5 S0 74 4 CI16 index_map_offset0 0 1 dCCZ
20 14 3 0 0 137 2 131 0 0 0 0 0 0 0 0 0 0 0 0 0 0 0 0 0 80 2 12 165 166 8004 0 0
 0 0 3 5 0 0 0 FFTFFFFFFFFFFF2 3 83 1 13 1e3 79 16 166 SDL/TYSA_DENSITY1 0 
