**ABCDEFGHIJKLMNOPQRSTUVWXYZabcdefghijklmnopqrstuvwxyz**************************
**PARASOLID !"#$%&'()*+,-./:;<=>?@[\]^_`{|}~0123456789**************************
**PART1;
MC=AMD64;
MC_MODEL=Intel64 Family 6 Model 142 Stepping 9, GenuineIntel;
MC_ID=unknown;
OS=Windows_NT;
OS_RELEASE=unknown;
FRU=Parasolid Version 28.0, build 174,  7- 3-2015;
APPL=SOLIDWORKS 2016-2015266;
SITE=;
USER=unknown;
FORMAT=text;
GUISE=transmit;
KEY=1003;
FILE=1003.x_t;
DATE=Sat Oct 06 20:49:41 2018;
**PART2;
SCH=SCH_2800174_28002;
USFLD_SIZE=0;
**PART3;
**END_OF_HEADER*****************************************************************
T51 : TRANSMIT FILE created by modeller version 280017423 SCH_2800174_28002_1300
6200 0 12 30 CCCCCCCCCCCCCDI5 owner1040 0 CCCCCCCCCA13 boundary_mesh1006 0 A16 i
ndex_map_offset0 0 1 dA9 index_map82 0 A17 node_id_index_map82 0 A20 schema_embe
dding_map82 0 A5 child12 0 A14 lowest_node_id0 0 1 dZ1 277 2 3 0 0 0 0 1e3 1e-8
 0 4 0 1 0 1 1 5 6 7 8 9 10 11 0 0 0 0 0 0 0 81 255 2 2 225 12 1 0 0 0 0 13 0 70
 11 CI9 list_type0 0 1 uI10 notransmit0 0 1 lCCCDCCDI12 finger_index0 0 1 dI12 f
inger_block1012 0 CZ3 0 4 T1 0 0 3 20 1 14 14 13 255 5 172 0 1 0 15 0 0 16 0 51
 255 6 167 0 17 18 0 0 -.004 -.0025 -3061616997868385e-33 -1 0 0 .0015 0 0 1 30
 255 7 171 0 10 19 0 0 +.004 -.021 .01 -1 0 0 29 255 8 133 0 20 21 0 0 .026 .01
 19 8 CCCCCCCA5 owner12 0 Z9 50 0 1 16 0 22 V0 16 255 10 140 0 ?23 0 24 7 0 0 1
 18 255 11 45 0 25 0 26 27 ?1 17 255 25 0 28 29 30 11 31 32 0 33 +18 26 42 0 34
 11 35 36 ?1 29 27 47 0 11 36 37 .004 .026 .01 29 36 44 0 26 38 27 .004 .026 -.0
1 29 37 136 0 39 27 40 0 -.021 .01 18 39 124 0 41 42 0 37 ?1 29 40 135 0 42 37 2
1 0 -.021 -.01 18 42 123 0 43 44 39 40 ?1 29 21 134 0 44 40 8 0 .026 -.01 18 44
 122 0 45 20 42 21 ?1 17 45 0 46 47 31 44 34 48 0 49 +18 20 121 0 47 50 44 8 ?1
 17 47 0 46 33 45 20 49 51 0 52 +18 50 36 0 53 35 20 54 ?1 17 53 0 55 23 56 50 5
7 58 0 29 -18 35 39 0 57 26 50 38 ?1 29 54 38 0 50 0 38 .004 -.021 .01 29 38 41
 0 35 54 36 .004 -.021 -.01 17 57 0 28 30 29 35 53 58 0 56 +15 255 28 7 0 29 59
 0 17 30 0 28 25 57 26 60 61 0 0 -17 29 0 28 57 25 50 62 63 0 64 +16 58 24 0 ?57
 61 63 65 0 0 1 17 56 0 55 53 66 35 43 24 0 60 -15 55 145 0 66 67 0 17 66 0 55 5
6 23 42 41 68 0 69 +17 43 0 70 71 60 42 56 24 0 66 +16 24 139 0 ?43 10 48 19 0 0
 1 17 60 0 70 43 34 35 30 61 0 0 +15 70 143 0 71 72 0 17 34 0 70 60 71 26 45 48
 0 31 -16 61 28 0 ?60 32 58 73 0 0 1 16 32 32 0 ?25 74 61 75 0 0 1 30 73 29 0 61
 65 75 0 +.004 1476360405086644e-33 -.01 0 -1 -1476360405086644e-31 31 255 65 25
 0 58 76 73 0 +.004 -.021 -710295143505465e-32 1 0 0 0 0 -1 .01 30 75 33 0 32 73
 77 0 +.004 .026 45102810375397e-31 0 -1734723475976805e-31 1 31 77 132 0 78 75
 79 0 +0 -.0025 -3061616997868385e-33 1 0 0 0 0 -1 .0015 16 78 116 0 ?80 81 0 77
 0 0 1 31 79 131 0 81 77 82 0 +0 -.021 -710295143505465e-32 1 0 0 0 0 -1 .0085 1
6 81 111 0 ?83 84 78 79 0 0 1 31 82 130 0 84 79 85 0 +0 .0225 -4286263797015735e
-34 1 0 0 0 0 -1 .0015 16 84 106 0 ?86 87 81 82 0 0 1 30 85 129 0 87 82 88 0 +0
 -1476360405086644e-33 .01 0 -1 -1476360405086644e-31 16 87 101 0 ?89 68 84 85 0
 0 1 31 88 128 0 68 85 90 0 +0 -.021 -710295143505465e-32 1 0 0 0 0 -1 .01 16 68
 96 0 ?66 91 87 88 0 0 1 30 90 127 0 91 88 92 0 +0 1476360405086644e-33 -.01 0 -
1 -1476360405086644e-31 16 91 91 0 ?69 51 68 90 0 0 1 30 92 126 0 51 90 93 0 +0
 .026 45102810375397e-31 0 -1734723475976805e-31 1 16 51 86 0 ?47 94 91 92 0 0 1
 30 93 168 0 74 92 95 0 +.004 .026 .01 -1 0 0 16 74 137 0 ?52 48 32 93 0 0 1 30
 95 169 0 48 93 19 0 +.004 .026 -.01 -1 0 0 16 48 138 0 ?45 24 74 95 0 0 1 30 19
 170 0 24 95 7 0 +.004 -.021 -.01 -1 0 0 17 52 0 96 89 62 20 33 74 0 97 +15 96 1
47 0 89 15 0 17 89 0 96 64 52 39 97 87 0 0 +17 62 0 96 52 64 11 29 63 0 0 -17 33
 0 46 31 47 11 52 74 0 62 -17 97 0 98 49 41 20 89 87 0 0 -15 98 85 0 97 99 0 17
 49 0 98 69 97 44 47 51 0 71 -17 41 0 98 97 69 39 66 68 0 23 -17 69 0 98 41 49 4
2 71 91 0 0 +17 23 0 55 66 53 39 64 10 0 89 +17 64 0 96 62 89 50 23 10 0 0 -17 7
1 0 70 34 43 44 69 91 0 0 -14 255 99 80 100 ?0 59 101 5 102 -0 0 0 59 22 81 1 10
0 269 103 99 104 0 0 105 106 14 59 1 105 ?99 107 108 5 109 +0 0 99 107 22 15 101
 82 0 80 99 110 50 255 102 125 0 99 109 111 0 +0 0 0 1 0 0 0 0 -1 13 22 51 0 0 0
 0 0 0 9 15 14 15 148 112 ?67 0 96 5 113 -0 0 67 0 22 81 1 112 271 103 15 114 0
 105 115 116 14 67 146 115 ?72 15 55 5 117 -0 0 72 15 22 50 113 164 0 15 117 118
 0 +.004 -1476360405086644e-33 .01 0 1476360405086644e-31 -1 0 1 147636040508664
4e-31 51 117 163 0 67 119 113 0 -.004 -.021 -710295143505465e-32 -1 0 0 .01 0 0
 1 51 118 165 0 120 113 18 0 -.004 .0225 -4286263797015735e-34 -1 0 0 .0015 0 0
 1 14 120 150 121 ?122 72 123 5 118 +0 0 122 72 22 51 18 166 0 122 118 6 0 -.004
 -.021 -710295143505465e-32 -1 0 0 .0085 0 0 1 14 122 154 124 ?17 120 125 5 18 +
0 0 17 120 22 81 1 124 274 103 122 126 0 121 127 128 14 17 158 127 ?107 122 129
 5 6 +0 0 107 122 22 15 125 153 0 130 122 131 17 130 0 125 130 130 0 132 133 0 0
 +15 131 155 0 134 122 0 17 134 0 131 134 134 0 83 81 0 0 -17 83 0 110 83 83 0 1
34 81 0 0 +15 110 83 0 83 99 135 15 135 84 0 86 99 98 17 86 0 135 86 86 0 136 84
 0 0 +17 136 0 137 136 136 0 86 84 0 0 -15 137 151 0 136 120 0 17 132 0 138 132
 132 0 130 133 0 0 -16 133 12 0 ?130 139 94 140 0 0 1 16 139 16 0 ?141 63 133 14
2 0 0 1 16 94 8 0 ?143 133 51 144 0 0 1 31 140 13 0 133 144 142 0 +.004 -.021 -7
10295143505465e-32 1 0 0 0 0 -1 .0085 31 144 9 0 94 0 140 0 +.004 -.0025 -306161
6997868385e-33 1 0 0 0 0 -1 .0015 31 142 17 0 139 140 76 0 +.004 .0225 -42862637
97015735e-34 1 0 0 0 0 -1 .0015 30 76 21 0 63 142 65 0 +.004 -1476360405086644e-
33 .01 0 -1 -1476360405086644e-31 16 63 20 0 ?29 58 139 76 0 0 1 17 143 0 129 14
3 143 0 145 94 0 0 +15 129 157 0 143 17 146 17 145 0 108 145 145 0 143 94 0 0 -1
5 108 4 0 145 59 138 15 138 5 0 132 59 147 15 147 6 0 148 59 28 17 148 0 147 148
 148 0 141 139 0 0 -17 141 0 123 141 141 0 148 139 0 0 +15 123 149 0 141 120 137
 15 146 159 0 149 17 0 17 149 0 146 149 149 0 80 78 0 0 -17 80 0 101 80 80 0 149
 78 0 0 +81 1 127 275 103 17 150 0 124 151 152 14 107 142 151 ?59 17 46 5 111 -0
 0 59 17 22 81 1 151 276 103 107 153 0 127 154 155 15 46 141 0 47 107 0 50 111 1
61 0 107 102 119 0 +.004 .026 45102810375397e-31 0 -1 -1734723475976805e-31 0 17
34723475976805e-31 -1 50 119 162 0 72 111 117 0 +.004 1476360405086644e-33 -.01
 0 1476360405086644e-31 -1 0 1 1476360405086644e-31 14 72 144 154 ?120 67 70 5 1
19 +0 0 120 67 22 81 1 154 277 103 72 156 0 151 0 157 80 255 1 103 158 159 9000
 1 1 1 1 1 1 1 1 0 FFFFTFTFFFFFFF1 81 1 156 242 160 72 0 154 161 162 163 82 255
 1 157 -2063466342 80 1 160 0 164 8001 0 0 0 0 3 5 0 0 0 FFFFTFTFFFFFFF2 81 1 16
1 241 160 67 0 115 114 156 165 81 1 162 243 160 120 0 121 156 126 166 83 255 3 1
63 1 1 1 81 1 121 273 103 120 162 0 115 124 167 81 1 126 244 160 122 0 124 162 1
50 168 83 3 166 1 1 1 81 1 150 245 160 17 0 127 126 153 169 83 3 168 1 1 1 81 1
 153 246 160 107 0 151 150 170 171 83 3 169 1 1 1 81 1 170 247 160 59 0 105 153
 104 172 83 3 171 1 1 1 81 1 105 270 103 59 170 0 100 112 173 81 1 104 248 160 9
9 0 100 170 0 174 83 3 172 1 1 1 83 3 174 1 1 1 82 1 173 -2075328358 81 1 115 27
2 103 67 161 0 112 121 175 82 1 167 -2062679910 82 1 175 -2063269734 81 1 114 24
0 160 15 0 112 0 161 176 83 3 165 1 1 1 83 3 176 1 1 1 79 255 15 164 SDL/TYSA_CO
LOUR79 14 159 SWEntUnchanged82 1 155 -2063728486 82 1 152 -2062155622 82 1 128 -
2062417766 82 1 116 -2062942054 50 109 2 0 59 0 102 0 +.004 0 0 1 0 0 0 0 -1 82
 1 106 -2067005286 17 31 0 46 45 33 26 25 32 0 30 -19 16 173 0 1 0 9 5 S0 74 4 C
I16 index_map_offset0 0 1 dCCZ20 14 3 0 0 154 2 104 0 0 0 0 0 0 0 0 0 0 0 0 0 0
 0 0 0 80 2 12 177 178 8004 0 0 0 0 3 5 0 0 0 FFTFFFFFFFFFFF2 3 83 1 13 1e3 79 1
6 178 SDL/TYSA_DENSITY1 0 
