**ABCDEFGHIJKLMNOPQRSTUVWXYZabcdefghijklmnopqrstuvwxyz**************************
**PARASOLID !"#$%&'()*+,-./:;<=>?@[\]^_`{|}~0123456789**************************
**PART1;
MC=AMD64;
MC_MODEL=Intel64 Family 6 Model 142 Stepping 9, GenuineIntel;
MC_ID=unknown;
OS=Windows_NT;
OS_RELEASE=unknown;
FRU=Parasolid Version 28.0, build 174,  7- 3-2015;
APPL=SOLIDWORKS 2016-2015266;
SITE=;
USER=unknown;
FORMAT=text;
GUISE=transmit;
KEY=1004;
FILE=1004.x_t;
DATE=Sat Oct 06 20:49:55 2018;
**PART2;
SCH=SCH_2800174_28002;
USFLD_SIZE=0;
**PART3;
**END_OF_HEADER*****************************************************************
T51 : TRANSMIT FILE created by modeller version 280017423 SCH_2800174_28002_1300
6200 0 12 30 CCCCCCCCCCCCCDI5 owner1040 0 CCCCCCCCCA13 boundary_mesh1006 0 A16 i
ndex_map_offset0 0 1 dA9 index_map82 0 A17 node_id_index_map82 0 A20 schema_embe
dding_map82 0 A5 child12 0 A14 lowest_node_id0 0 1 dZ1 1279 2 3 0 0 0 0 1e3 1e-8
 0 4 0 1 0 1 1 5 6 7 8 9 10 11 0 0 0 0 0 0 0 81 255 2 2 857 12 1 0 0 0 0 13 0 70
 11 CI9 list_type0 0 1 uI10 notransmit0 0 1 lCCCDCCDI12 finger_index0 0 1 dI12 f
inger_block1012 0 CZ3 0 4 T1 0 0 3 20 1 14 14 13 255 5 94 0 1 0 15 0 0 16 0 50 2
55 6 89 0 17 18 0 0 +.005 -.0095 .01 0 0 -1 -1 0 0 30 255 7 901 0 10 19 0 0 -.00
5 5e-4 .00748331477354788 -1 0 0 29 255 8 893 0 11 20 0 0 5e-4 .0074833147735478
8 19 8 CCCCCCCA5 owner12 0 Z9 28 0 1 16 0 21 V0 16 255 10 899 0 ?22 0 23 7 0 0 1
 18 255 11 892 0 24 0 25 8 ?1 17 255 24 0 26 22 27 11 28 29 0 30 -18 25 889 0 31
 11 32 20 ?1 17 31 0 33 34 35 25 36 37 0 38 +18 32 519 0 39 25 40 41 ?1 29 20 89
1 0 25 41 8 .005 -5e-4 .00748331477354788 29 41 521 0 32 42 20 .005 -.0075 -.01
 29 42 518 0 40 43 41 0 -.0075 -.01 18 40 516 0 44 32 45 42 ?1 29 43 408 0 45 46
 42 .005 .0075 -.01 18 45 406 0 47 40 48 43 ?1 29 46 175 0 48 49 43 0 .0075 .01
 18 48 173 0 50 45 51 46 ?1 29 49 71 0 51 52 46 0 .0095 -.01 18 51 62 0 53 48 54
 49 ?1 29 52 73 0 54 55 49 0 -.0095 .01 18 54 64 0 56 51 57 52 ?1 29 55 271 0 57
 58 52 0 .0095 .01 18 57 215 0 59 54 60 55 ?1 29 58 274 0 60 61 55 .005 .0095 .0
15 18 60 220 0 62 57 63 58 ?1 29 61 275 0 63 64 58 .005 .0075 .015 18 63 222 0 6
5 60 66 61 ?1 29 64 276 0 66 67 61 .005 .0075 .01 18 66 224 0 68 63 69 64 ?1 29
 67 277 0 69 70 64 -1e-7 .0095 .01 18 69 219 0 71 66 72 67 ?1 29 70 278 0 72 73
 67 -1e-7 .0095 .015 18 72 221 0 74 69 75 70 ?1 29 73 279 0 75 76 70 -1e-7 .0075
 .015 18 75 223 0 77 72 78 73 ?1 29 76 280 0 78 79 73 -1e-7 .0075 .01 18 78 218
 0 80 75 81 76 ?1 29 79 388 0 81 82 76 0 -.0075 .01 18 81 333 0 83 78 84 79 ?1 2
9 82 390 0 84 85 79 .005 -.0075 .01 18 84 334 0 86 81 87 82 ?1 29 85 391 0 87 88
 82 .005 -.0075 .015 18 87 336 0 89 84 90 85 ?1 29 88 392 0 90 91 85 .005 -.0095
 .015 18 90 338 0 92 87 93 88 ?1 29 91 394 0 93 94 88 -1e-7 -.0075 .01 18 93 335
 0 95 90 96 91 ?1 29 94 395 0 96 97 91 -1e-7 -.0075 .015 18 96 337 0 98 93 99 94
 ?1 29 97 396 0 99 100 94 -1e-7 -.0095 .015 18 99 339 0 101 96 102 97 ?1 29 100
 397 0 102 103 97 -1e-7 -.0095 .01 18 102 332 0 104 99 105 100 ?1 29 103 501 0 1
05 106 100 0 .0075 -.01 18 105 445 0 107 102 108 103 ?1 29 106 504 0 108 109 103
 .005 .0075 -.015 18 108 450 0 110 105 111 106 ?1 29 109 505 0 111 112 106 .005
 .0095 -.015 18 111 452 0 113 108 114 109 ?1 29 112 507 0 114 115 109 -1e-7 .007
5 -.01 18 114 449 0 116 111 117 112 ?1 29 115 508 0 117 118 112 -1e-7 .0075 -.01
5 18 117 451 0 119 114 120 115 ?1 29 118 509 0 120 121 115 -1e-7 .0095 -.015 18
 120 453 0 122 117 123 118 ?1 29 121 510 0 123 124 118 -1e-7 .0095 -.01 18 123 4
48 0 125 120 126 121 ?1 29 124 616 0 126 127 121 0 -.0095 -.01 18 126 561 0 128
 123 129 124 ?1 29 127 619 0 129 130 124 .005 -.0095 -.015 18 129 564 0 131 126
 132 127 ?1 29 130 620 0 132 133 127 .005 -.0075 -.015 18 132 566 0 134 129 135
 130 ?1 29 133 622 0 135 136 130 -1e-7 -.0095 -.01 18 135 563 0 137 132 138 133
 ?1 29 136 623 0 138 139 133 -1e-7 -.0095 -.015 18 138 565 0 140 135 141 136 ?1
 29 139 624 0 141 142 136 -1e-7 -.0075 -.015 18 141 567 0 143 138 144 139 ?1 29
 142 625 0 144 145 139 -1e-7 -.0075 -.01 18 144 560 0 146 141 147 142 ?1 29 145
 1072 0 147 148 142 0 5e-4 .01 18 147 1001 0 27 144 149 145 ?1 29 148 1074 0 149
 150 145 0 -5e-4 .01 18 149 995 0 151 147 152 148 ?1 29 150 1075 0 152 153 148 0
 -5e-4 .00748331477354788 18 152 996 0 34 149 154 150 ?1 29 153 1076 0 154 155 1
50 .005 5e-4 .01 18 154 994 0 156 152 157 153 ?1 29 155 1077 0 157 158 153 .005
 5e-4 .00748331477354788 18 157 1003 0 22 154 159 155 ?1 29 158 1079 0 159 0 155
 .005 -5e-4 .01 18 159 1007 0 35 157 0 158 ?1 17 35 0 33 31 151 159 160 161 0 36
 -15 255 33 1017 0 31 162 0 17 151 0 33 35 34 149 163 164 0 160 -17 160 0 165 83
 166 149 35 161 0 167 +16 161 948 0 ?160 29 164 168 0 0 1 17 36 0 169 86 170 159
 31 37 0 166 -15 169 936 0 171 172 0 17 86 0 169 173 36 84 166 174 0 175 +17 170
 0 169 36 171 25 176 177 0 0 -16 37 954 0 ?31 178 0 179 0 0 1 17 166 0 165 160 1
80 159 86 174 0 0 -15 165 84 0 166 17 0 17 180 0 165 166 83 84 181 182 0 0 -16 1
74 915 0 ?86 183 184 185 183 183 1 16 183 177 0 ?186 187 174 185 174 174 1 16 18
4 45 0 ?188 174 189 190 0 0 1 30 185 5 0 183 191 192 0 +.005 -.0095 .01 0 -1 0 3
1 255 191 142 0 193 194 185 0 +0 0 0 1 0 0 0 0 -1 .0075 30 192 8 0 187 185 195 0
 +.005 -.0095 .01 0 1734723475976805e-31 -1 16 187 7 0 ?131 196 183 192 0 0 1 30
 195 11 0 196 192 197 0 +.005 -.0095 -.01 0 1 0 16 196 520 0 ?47 198 187 195 0 0
 1 30 197 14 0 198 195 199 0 +.005 .0095 -.01 0 -1734723475976805e-31 1 16 198 1
3 0 ?62 23 196 197 0 0 1 30 199 69 0 200 197 201 0 +0 -.0095 .01 0 -1 0 16 200 5
7 0 ?202 203 204 199 205 204 1 30 201 68 0 203 199 206 0 +0 -.0095 .01 0 1734723
475976805e-31 -1 16 203 53 0 ?207 208 200 201 0 0 1 30 206 67 0 189 201 190 0 +0
 -.0095 -.01 0 1 0 16 189 49 0 ?209 184 210 206 210 208 1 30 190 66 0 184 206 21
1 0 +0 .0095 -.01 0 -1734723475976805e-31 1 31 211 687 0 212 190 213 0 +.0024999
5 -.0075 .0125 0 1 -1734723475976805e-31 0 1734723475976805e-31 1 .0015 16 212 7
12 0 ?214 215 216 211 0 0 1 31 213 773 0 217 211 19 0 +.00249995 -.0075 -.0125 0
 1 0 0 0 1 .0015 16 217 798 0 ?218 219 220 213 0 0 1 30 19 898 0 23 213 7 0 +.00
5 -5e-4 .00748331477354788 -1 0 0 16 23 897 0 ?34 10 198 19 0 0 1 17 34 0 33 151
 31 152 38 23 0 163 +17 38 0 221 176 222 25 34 23 0 170 -17 163 0 223 224 167 15
2 151 164 0 222 +15 223 44 0 224 225 0 17 224 0 223 28 163 11 222 193 0 0 +17 16
7 0 223 163 226 149 83 205 0 0 -16 164 949 0 ?163 161 178 227 0 0 1 17 222 0 221
 38 30 152 224 193 0 0 -15 221 900 0 30 228 0 17 30 0 221 222 176 11 22 10 0 224
 -16 193 895 0 ?224 177 229 191 0 0 1 16 177 890 0 ?176 205 193 194 0 0 1 16 229
 191 0 ?71 193 230 231 0 0 1 17 71 0 232 233 188 69 59 229 0 234 +16 230 195 0 ?
74 229 235 236 0 0 1 30 231 262 0 229 237 236 0 +.005 .0095 .01 -1 0 0 30 237 26
4 0 238 239 231 0 +.005 .0095 .015 0 1 0 30 236 261 0 230 231 240 0 +.005 .0095
 .015 -1 0 0 30 240 260 0 235 236 241 0 +.005 .0075 .015 -1 0 0 16 235 199 0 ?77
 230 242 240 0 0 1 30 241 259 0 242 240 194 0 +.005 .0075 .01 -1 0 0 16 242 187
 0 ?243 235 244 241 244 244 1 31 194 143 0 177 241 191 0 +.005 0 0 1 0 0 0 0 -1
 .0075 17 243 0 245 246 247 48 68 242 0 248 +16 244 189 0 ?80 242 238 241 242 24
2 1 17 80 0 249 250 202 78 50 244 0 251 +16 238 196 0 ?252 244 253 237 0 0 1 17
 252 0 254 74 65 60 255 238 0 0 +16 253 200 0 ?256 238 257 239 0 0 1 17 256 0 25
8 77 68 63 259 253 0 0 +16 257 212 0 ?234 253 260 261 0 0 1 30 239 265 0 253 261
 237 0 +.005 .0075 .015 0 1734723475976805e-31 1 30 261 267 0 257 262 239 0 +-1e
-7 .0095 .01 0 0 -1 30 262 268 0 260 263 261 0 +-1e-7 .0095 .015 0 1 0 16 260 20
9 0 ?264 257 265 262 0 0 1 30 263 269 0 265 266 262 0 +-1e-7 .0075 .015 0 173472
3475976805e-31 1 16 265 206 0 ?267 260 268 263 0 0 1 30 266 270 0 268 269 263 0
 +-1e-7 .0075 .01 0 -1 0 16 268 203 0 ?270 265 271 266 0 0 1 30 269 375 0 271 27
2 266 0 +0 0 .01 0 1 0 16 271 302 0 ?226 268 182 269 0 0 1 30 272 376 0 273 274
 269 0 +.005 -.0095 .01 -1 0 0 16 273 300 0 ?104 275 276 272 0 0 1 30 274 377 0
 275 277 272 0 +.005 -.0095 .015 -1 0 0 16 275 315 0 ?101 278 273 274 0 0 1 30 2
77 378 0 278 279 274 0 +.005 -.0075 .015 -1 0 0 16 278 311 0 ?98 280 275 277 0 0
 1 30 279 379 0 182 281 277 0 +.005 -.0075 .01 -1 0 0 16 182 306 0 ?181 271 280
 279 280 280 1 30 281 380 0 276 282 279 0 +.005 -.0075 .015 0 -1734723475976805e
-31 -1 16 276 308 0 ?175 273 283 281 0 0 1 30 282 381 0 283 284 281 0 +.005 -.00
95 .015 0 1 0 16 283 312 0 ?285 276 286 282 0 0 1 30 284 384 0 286 287 282 0 +-1
e-7 -.0075 .015 0 -1734723475976805e-31 -1 16 286 328 0 ?288 283 289 284 0 0 1 3
0 287 385 0 289 290 284 0 +-1e-7 -.0095 .015 0 1 0 16 289 325 0 ?291 286 292 287
 0 0 1 30 290 386 0 292 293 287 0 +-1e-7 -.0095 .01 0 0 1 16 292 322 0 ?294 289
 295 290 0 0 1 30 293 387 0 295 296 290 0 +-1e-7 -.0075 .01 0 -1 0 16 295 319 0
 ?297 292 298 293 0 0 1 30 296 489 0 299 300 293 0 +.005 .0095 -.01 -1 0 0 16 29
9 419 0 ?125 301 302 296 0 0 1 30 300 490 0 301 303 296 0 +.005 .0095 -.015 -1 0
 0 16 301 429 0 ?122 304 299 300 0 0 1 30 303 491 0 304 305 300 0 +.005 .0075 -.
015 -1 0 0 16 304 425 0 ?119 306 301 303 0 0 1 30 305 492 0 298 307 303 0 +.005
 .0075 -.01 -1 0 0 16 298 420 0 ?308 295 306 305 306 306 1 30 307 493 0 302 309
 305 0 +.005 .0075 -.015 0 -1734723475976805e-31 1 16 302 422 0 ?310 299 311 307
 0 0 1 30 309 494 0 311 312 307 0 +.005 .0095 -.015 0 -1 0 16 311 426 0 ?313 302
 314 309 0 0 1 30 312 497 0 314 315 309 0 +-1e-7 .0075 -.015 0 -1734723475976805
e-31 1 16 314 442 0 ?316 311 317 312 0 0 1 30 315 498 0 317 318 312 0 +-1e-7 .00
95 -.015 0 -1 0 16 317 439 0 ?319 314 320 315 0 0 1 30 318 499 0 320 321 315 0 +
-1e-7 .0095 -.01 0 0 -1 16 320 436 0 ?322 317 323 318 0 0 1 30 321 500 0 323 324
 318 0 +-1e-7 .0075 -.01 0 1 0 16 323 433 0 ?325 320 326 321 0 0 1 30 324 604 0
 327 328 321 0 +.005 -.0075 -.01 -1 0 0 16 327 529 0 ?44 329 330 324 330 330 1 3
0 328 605 0 329 331 324 0 +.005 -.0075 -.015 -1 0 0 16 329 543 0 ?143 332 327 32
8 0 0 1 30 331 606 0 332 333 328 0 +.005 -.0095 -.015 -1 0 0 16 332 539 0 ?140 3
26 329 331 0 0 1 30 333 607 0 326 334 331 0 +.005 -.0095 -.01 -1 0 0 16 326 535
 0 ?137 323 332 333 0 0 1 30 334 609 0 335 336 333 0 +.005 -.0095 -.015 0 -1 0 1
6 335 540 0 ?337 330 338 334 0 0 1 30 336 610 0 338 339 334 0 +.005 -.0075 -.015
 0 0 -1 16 338 544 0 ?340 335 341 336 0 0 1 30 339 612 0 341 342 336 0 +-1e-7 -.
0095 -.01 0 0 1 16 341 556 0 ?343 338 344 339 0 0 1 30 342 613 0 344 345 339 0 +
-1e-7 -.0095 -.015 0 -1 0 16 344 553 0 ?346 341 347 342 0 0 1 30 345 614 0 347 3
48 342 0 +-1e-7 -.0075 -.015 0 0 -1 16 347 550 0 ?349 344 350 345 0 0 1 30 348 6
15 0 350 351 345 0 +-1e-7 -.0075 -.01 0 1 0 16 350 547 0 ?352 347 215 348 0 0 1
 31 351 746 0 215 353 348 0 +.00249995 .0075 .0125 0 -1 1734723475976805e-31 0 -
1734723475976805e-31 -1 .0015 16 215 713 0 ?354 350 212 351 0 0 1 31 353 747 0 3
55 356 351 0 +.00249995 .0095 .0125 0 1 1734723475976805e-31 0 -1734723475976805
e-31 1 .0015 16 355 717 0 ?357 216 219 353 0 0 1 31 356 748 0 216 358 353 0 +.00
249995 -.0095 .0125 0 1 1734723475976805e-31 0 -1734723475976805e-31 1 .0015 16
 216 714 0 ?359 212 355 356 0 0 1 31 358 832 0 219 360 356 0 +.00249995 .0075 -.
0125 0 -1 -1734723475976805e-31 0 1734723475976805e-31 -1 .0015 16 219 799 0 ?36
1 355 217 358 0 0 1 31 360 833 0 362 363 358 0 +.00249995 .0095 -.0125 0 1 17347
23475976805e-31 0 -1734723475976805e-31 1 .0015 16 362 803 0 ?364 220 365 360 0
 0 1 31 363 834 0 220 366 360 0 +.00249995 -.0095 -.0125 0 1 1734723475976805e-3
1 0 -1734723475976805e-31 1 .0015 16 220 800 0 ?367 217 362 363 0 0 1 30 366 105
4 0 365 368 363 0 +.005 5e-4 .01 1 0 0 16 365 947 0 ?369 362 29 366 0 0 1 30 368
 1055 0 29 168 366 0 +0 5e-4 711413419143174e-34 0 -1422826838286344e-31 1 16 29
 946 0 ?28 365 161 368 0 0 1 30 168 1056 0 161 227 368 0 +.005 -5e-4 .01 -1 0 0
 30 227 1057 0 164 370 168 0 +0 -5e-4 -609782930694146e-34 0 1219565861388294e-3
1 -1 30 370 1064 0 178 179 227 0 +.005 5e-4 .00483298002146936 0 -14228268382863
44e-31 1 16 178 950 0 ?156 164 37 370 0 0 1 30 179 1066 0 37 0 370 0 +.005 -5e-4
 .00483298002146936 0 1219565861388294e-31 -1 17 156 0 26 27 22 154 171 178 0 36
9 +15 26 1013 0 24 371 0 17 27 0 26 24 156 147 369 365 0 28 -17 22 0 26 156 24 1
57 30 10 0 171 +17 171 0 169 170 186 157 156 178 0 176 -17 369 0 245 247 246 154
 27 365 0 186 +15 245 918 0 246 15 0 17 247 0 245 243 369 66 186 183 0 0 -17 246
 0 245 369 243 147 248 204 0 0 +17 186 0 169 171 259 154 247 183 0 0 +17 259 0 1
69 186 255 66 256 253 0 247 -17 255 0 169 259 62 63 252 238 0 256 -17 62 0 169 2
55 372 60 113 198 0 373 +17 372 0 169 62 374 111 313 311 0 0 -17 113 0 232 122 3
73 111 62 198 0 375 -17 373 0 232 113 233 60 74 230 0 252 -15 232 78 0 188 376 0
 17 233 0 232 373 71 72 234 257 0 0 -17 74 0 254 377 252 72 373 230 0 264 +15 25
4 240 0 74 378 0 17 377 0 254 65 74 75 264 260 0 0 -17 264 0 379 234 267 72 377
 260 0 233 +15 379 250 0 270 380 0 17 234 0 379 270 264 69 233 257 0 250 +17 267
 0 379 264 270 75 251 265 0 377 +17 270 0 379 267 234 78 250 268 0 0 +17 251 0 2
58 50 77 78 267 265 0 270 -15 258 244 0 77 381 0 17 50 0 258 68 251 48 80 244 0
 202 -17 77 0 258 251 256 75 65 235 0 267 +17 65 0 254 252 377 63 77 235 0 255 -
17 68 0 258 256 50 66 243 242 0 259 -17 202 0 249 80 59 48 382 200 0 243 +15 249
 232 0 59 383 0 17 59 0 249 202 250 57 71 229 0 188 -17 382 0 223 53 248 57 202
 200 0 0 -17 53 0 223 384 382 51 188 184 0 385 -17 248 0 223 382 28 48 246 204 0
 0 -17 28 0 223 248 224 147 24 29 0 246 +16 204 174 0 ?246 200 205 199 200 205 1
 16 205 909 0 ?83 204 177 199 204 200 1 17 83 0 165 180 160 81 167 205 0 386 +17
 386 0 387 388 389 81 95 280 0 181 -15 387 344 0 388 390 0 17 388 0 387 104 386
 54 226 271 0 391 -17 389 0 387 386 104 93 297 295 0 0 -17 95 0 392 393 181 93 3
86 280 0 288 +16 280 307 0 ?95 182 278 279 182 182 1 17 181 0 392 95 175 81 180
 182 0 226 +15 392 352 0 181 394 0 17 175 0 392 181 89 84 173 276 0 180 +17 226
 0 223 167 391 81 388 271 0 0 +17 391 0 223 226 128 54 207 203 0 0 -17 128 0 223
 391 395 126 209 189 0 207 -17 207 0 396 137 56 126 391 203 0 397 +15 396 82 0 2
07 398 0 17 137 0 396 399 207 135 397 326 0 343 +17 56 0 396 207 400 54 104 273
 0 388 -17 397 0 401 209 402 126 137 326 0 0 -15 401 572 0 209 403 0 17 209 0 40
1 146 397 40 128 189 0 404 +17 402 0 401 397 146 135 352 350 0 0 -17 146 0 401 4
02 209 144 404 330 0 405 +17 352 0 406 349 343 144 402 350 0 0 +15 406 594 0 352
 407 0 17 349 0 406 346 352 141 405 347 0 408 +17 343 0 406 352 346 135 399 341
 0 402 +17 346 0 406 343 349 138 408 344 0 399 +17 399 0 396 409 137 138 343 341
 0 0 -17 409 0 396 92 399 129 140 332 0 337 -17 92 0 396 101 409 90 131 187 0 41
0 -17 140 0 411 408 337 138 409 332 0 346 +17 337 0 411 140 134 129 412 335 0 0
 +15 411 584 0 140 413 0 17 134 0 411 337 408 132 143 329 0 412 -17 412 0 169 41
4 131 132 337 335 0 340 -17 414 0 169 47 412 32 340 338 0 0 -17 131 0 169 412 41
5 129 92 187 0 409 +17 340 0 416 143 417 132 414 338 0 0 +15 416 588 0 143 418 0
 17 143 0 416 405 340 141 134 329 0 349 +17 417 0 416 340 404 32 44 327 0 414 -1
7 404 0 416 417 405 40 146 330 0 0 -17 44 0 419 107 39 40 417 327 0 395 +15 419
 410 0 39 420 0 17 107 0 419 421 44 105 395 210 0 384 +17 39 0 419 44 421 32 47
 196 0 417 -17 395 0 223 128 384 40 107 210 0 209 -17 384 0 223 395 53 105 385 2
08 0 422 -16 210 517 0 ?107 189 208 206 208 189 1 16 208 404 0 ?385 210 203 206
 189 210 1 17 385 0 423 125 422 51 384 208 0 424 +15 423 462 0 422 425 0 17 125
 0 423 426 385 123 424 299 0 427 +17 422 0 423 385 426 105 116 306 0 308 -17 424
 0 232 188 427 51 125 299 0 0 -17 188 0 232 71 424 57 53 184 0 382 +17 427 0 232
 424 122 123 322 320 0 325 -17 122 0 232 427 113 120 375 301 0 322 +17 322 0 428
 319 325 120 427 320 0 429 +17 325 0 428 322 316 123 426 323 0 0 +15 428 480 0 3
25 430 0 17 316 0 428 325 319 114 431 314 0 426 +17 426 0 423 422 125 114 325 32
3 0 0 -17 319 0 428 316 322 117 429 317 0 431 +17 431 0 432 110 116 117 316 314
 0 0 -15 432 466 0 308 433 0 17 110 0 432 310 431 108 119 304 0 313 -17 116 0 43
2 431 308 114 422 306 0 316 +17 308 0 432 116 310 105 421 298 0 0 +16 306 421 0
 ?116 298 304 305 298 298 1 17 310 0 432 308 110 45 374 302 0 0 +17 421 0 419 39
 107 45 308 298 0 310 -17 374 0 169 372 47 108 310 302 0 0 -17 47 0 169 374 414
 45 39 196 0 421 +17 119 0 434 429 313 117 110 304 0 319 +17 313 0 434 119 375 1
08 372 311 0 374 +15 434 470 0 119 435 0 17 375 0 434 313 429 111 122 301 0 372
 -17 429 0 434 375 119 120 319 317 0 0 -14 255 435 467 436 ?430 433 434 5 437 +0
 0 430 433 21 81 1 436 1250 438 435 439 0 0 440 441 14 430 478 440 ?403 435 428
 5 442 +0 0 403 435 21 14 433 463 443 ?435 425 444 5 445 +0 0 435 425 21 50 437
 485 0 435 445 446 0 +.005 .0095 -.015 0 0 -1 -1 0 0 13 21 29 0 0 0 0 0 0 9 15 1
4 15 919 447 ?420 0 245 5 6 -17 17 420 0 21 81 1 447 1253 438 15 448 0 443 449 4
50 14 420 411 449 ?172 15 419 5 451 -0 0 172 15 21 14 17 85 452 ?398 225 165 5 6
 -15 15 398 225 21 81 1 452 1255 438 17 453 0 449 454 455 14 398 83 454 ?376 17
 456 5 18 -0 0 376 17 21 14 225 111 457 ?17 172 223 5 458 -0 0 17 172 21 81 1 45
7 1257 438 225 459 0 454 460 461 14 172 117 460 ?225 420 169 5 462 +0 0 225 420
 21 50 458 65 0 225 462 463 0 +0 0 0 1 0 0 0 0 -1 50 462 2 0 172 464 458 0 +.005
 0 0 1 0 0 0 0 -1 50 463 86 0 376 458 451 0 +.005 .0095 -.01 0 -1 -1734723475976
805e-31 0 1734723475976805e-31 -1 14 376 79 465 ?228 398 466 5 463 -0 0 228 398
 21 50 451 87 0 420 463 18 0 +.005 -.0095 -.01 0 0 1 1 0 0 50 18 88 0 398 451 6
 0 +.005 -.0095 .01 0 1 1734723475976805e-31 0 -1734723475976805e-31 1 81 1 465
 1259 438 376 467 0 460 468 469 14 228 126 468 ?383 376 221 5 464 +0 0 383 376 2
1 15 466 782 0 470 376 471 17 470 0 466 470 470 0 364 362 0 0 -15 471 696 0 472
 376 232 17 472 0 471 472 472 0 357 355 0 0 -17 357 0 473 357 357 0 472 355 0 0
 +15 473 729 0 357 474 0 14 474 725 475 ?476 477 478 5 479 -477 477 476 477 21 8
1 1 475 1261 438 474 480 0 468 481 482 14 476 816 481 ?483 474 484 5 485 -483 48
3 483 474 21 14 477 730 486 ?474 407 487 5 479 -474 474 474 407 21 15 478 728 0
 354 474 473 51 255 479 743 0 477 485 488 0 +.00249995 -.0095 .0125 0 1 17347234
75976805e-31 .0015 0 -1734723475976805e-31 1 51 485 829 0 476 489 479 0 +.002499
95 -.0095 -.0125 0 1 1734723475976805e-31 .0015 0 -1734723475976805e-31 1 50 488
 602 0 407 479 490 0 +-1e-7 0 0 1 0 0 0 0 -1 14 407 592 491 ?477 418 406 5 488 -
0 0 477 418 21 50 490 599 0 413 488 492 0 +.005 -.0095 -.015 0 0 -1 -1 0 0 14 41
3 581 493 ?418 403 411 5 490 +0 0 418 403 21 50 492 598 0 418 490 494 0 +.005 -.
0075 -.015 0 1 0 0 0 1 14 418 585 495 ?407 413 496 5 492 +0 0 407 413 21 50 494
 597 0 403 492 442 0 +.005 -.0075 -.01 0 0 1 1 0 0 14 403 569 497 ?413 430 401 5
 494 +0 0 413 430 21 50 442 488 0 430 494 445 0 +-1e-7 0 0 -1 0 0 0 0 1 50 445 4
86 0 433 442 437 0 +.005 .0075 -.015 0 -1 -1734723475976805e-31 0 17347234759768
05e-31 -1 81 1 497 1267 438 403 498 0 495 499 500 80 255 1 438 501 502 9000 1 1
 1 1 1 1 1 1 0 FFFFTFTFFFFFFF1 81 1 498 1170 503 403 0 497 504 505 506 81 1 495
 1266 438 418 507 0 493 497 508 81 1 499 1268 438 425 509 0 497 510 511 82 255 1
 500 1029832878 14 425 459 499 ?433 512 423 5 446 +0 0 433 512 21 81 1 509 1166
 503 425 0 499 513 514 515 81 1 510 1269 438 512 513 0 499 516 517 82 1 511 9718
33518 14 512 364 510 ?425 518 519 5 520 +0 0 425 518 21 81 1 513 1165 503 512 0
 510 521 509 522 81 1 516 1270 438 518 521 0 510 523 524 82 1 517 999751854 14 5
18 353 516 ?512 394 525 5 526 +0 0 512 394 21 81 1 521 1164 503 518 0 516 527 51
3 528 81 1 523 1271 438 394 527 0 516 529 530 82 1 524 960430254 14 394 349 523
 ?518 390 531 5 532 +0 0 518 390 21 81 1 527 1163 503 394 0 523 533 521 534 81 1
 529 1272 438 390 533 0 523 535 536 82 1 530 960299193 14 390 341 529 ?394 380 3
87 5 537 +0 0 394 380 21 81 1 533 1162 503 390 0 529 538 527 539 81 1 535 1273 4
38 380 538 0 529 540 541 82 1 536 1024721070 14 380 248 535 ?390 381 379 5 542 -
0 0 390 381 21 81 1 538 1161 503 380 0 535 543 533 544 81 1 540 1274 438 381 543
 0 535 545 546 82 1 541 991494318 14 381 241 540 ?380 378 547 5 548 +0 0 380 378
 21 81 1 543 1160 503 381 0 540 549 538 550 81 1 545 1275 438 378 549 0 540 551
 552 82 1 546 949354681 14 378 237 545 ?381 383 254 5 553 +0 0 381 383 21 81 1 5
49 1159 503 378 0 545 554 543 555 81 1 551 1276 438 383 554 0 545 556 557 82 1 5
52 949223598 14 383 229 551 ?378 228 249 5 558 +0 0 378 228 21 81 1 554 1158 503
 383 0 551 559 549 560 81 1 556 1277 438 162 561 0 551 562 563 82 1 557 94948574
2 14 162 1014 556 ?371 483 33 5 489 -0 0 371 483 21 81 1 561 1178 503 162 0 556
 564 565 566 81 1 562 1278 438 371 565 0 556 567 568 82 1 563 -2109603647 14 371
 1010 562 ?0 162 26 5 569 -0 0 0 162 21 81 1 565 1179 503 371 0 562 561 0 570 81
 1 567 1279 438 483 564 0 562 0 571 82 1 568 -2108358463 14 483 811 567 ?162 476
 572 5 485 -476 476 162 476 21 81 1 564 1177 503 483 0 567 573 561 574 82 1 571
 -100466499 80 1 503 0 575 8001 0 0 0 0 3 5 0 0 0 FFFFTFTFFFFFFF2 81 1 573 1176
 503 476 0 481 480 564 576 83 255 3 574 1 1 1 81 1 481 1262 438 476 573 0 475 48
6 577 81 1 480 1175 503 474 0 475 578 573 579 83 3 576 1 1 1 81 1 578 1174 503 4
77 0 486 580 480 581 83 3 579 1 1 1 81 1 486 1263 438 477 578 0 481 491 582 81 1
 580 1173 503 407 0 491 507 578 583 83 3 581 1 1 1 81 1 491 1264 438 407 580 0 4
86 493 584 81 1 507 1172 503 418 0 495 505 580 585 83 3 583 1 1 1 81 1 505 1171
 503 413 0 493 498 507 586 83 3 585 1 1 1 81 1 493 1265 438 413 505 0 491 495 58
7 83 3 586 1 1 1 82 1 587 982712494 82 1 584 1016266926 82 1 582 -315096903 82 1
 577 -102956867 79 255 15 575 SDL/TYSA_COLOUR15 572 814 0 361 483 588 17 361 0 5
72 361 361 0 589 219 0 0 +15 588 815 0 364 483 0 17 364 0 588 364 364 0 470 362
 0 0 +17 589 0 444 589 589 0 361 219 0 0 -15 444 778 0 589 433 432 83 3 570 1 1
 1 50 569 1051 0 371 0 489 0 +-1000000000002734e-22 5e-4 .00483298002146936 0 1
 1422826838286344e-31 0 -1422826838286344e-31 1 50 489 1049 0 162 569 485 0 +-10
00000000002734e-22 -5e-4 .00483298002146936 0 -1 -1219565861388294e-31 0 1219565
861388294e-31 -1 83 3 566 1 1 1 81 1 559 1157 503 228 0 468 467 554 590 83 3 560
 1 1 1 81 1 468 1260 438 228 559 0 465 475 591 81 1 467 1156 503 376 0 465 592 5
59 593 83 3 590 1 1 1 81 1 592 1155 503 398 0 454 453 467 594 83 3 593 1 1 1 81
 1 454 1256 438 398 592 0 452 457 595 81 1 453 1154 503 17 0 452 459 592 596 83
 3 594 1 1 1 81 1 459 1153 503 225 0 457 597 453 598 83 3 596 1 1 1 81 1 597 115
2 503 172 0 460 599 459 600 83 3 598 1 1 1 81 1 460 1258 438 172 597 0 457 465 6
01 81 1 599 1151 503 420 0 449 448 597 602 83 3 600 1 1 1 81 1 449 1254 438 420
 599 0 447 452 603 81 1 448 1150 503 15 0 447 0 599 604 83 3 602 1 1 1 83 3 604
 1 1 1 82 1 603 1027276974 82 1 601 422707393 82 1 595 -338952003 82 1 591 43168
5825 50 558 253 0 383 548 464 0 +.005 .0075 .01 0 0 -1 -1 0 0 50 548 254 0 381 5
53 558 0 +.005 .0075 .015 0 -1 1734723475976805e-31 0 -1734723475976805e-31 -1 5
1 464 139 0 228 558 462 0 -.005 0 0 -1 0 0 .0075 0 0 1 50 553 255 0 378 542 548
 0 +.005 .0095 .015 0 0 1 1 0 0 50 542 258 0 380 537 553 0 +-1e-7 0 0 1 0 0 0 0
 -1 50 537 369 0 390 526 542 0 +.005 -.0075 .01 0 0 -1 -1 0 0 50 526 371 0 518 5
32 537 0 +.005 -.0095 .015 0 0 1 1 0 0 50 532 372 0 394 520 526 0 +.005 -.0075 .
015 0 1 -1734723475976805e-31 0 1734723475976805e-31 1 50 520 374 0 512 446 532
 0 +-1e-7 0 0 -1 0 0 0 0 1 50 446 483 0 425 437 520 0 +.005 .0075 -.01 0 0 1 1 0
 0 83 3 555 1 1 1 83 3 550 1 1 1 15 547 692 0 605 381 258 17 605 0 547 605 605 0
 354 215 0 0 -17 354 0 478 354 354 0 605 215 0 0 +83 3 544 1 1 1 83 3 539 1 1 1
 83 3 534 1 1 1 15 531 686 0 606 394 392 17 606 0 531 606 606 0 214 212 0 0 -17
 214 0 487 214 214 0 606 212 0 0 +15 487 733 0 214 477 607 15 607 734 0 608 477
 0 17 608 0 607 608 608 0 359 216 0 0 -17 359 0 609 359 359 0 608 216 0 0 +15 60
9 704 0 359 398 396 83 3 528 1 1 1 15 525 356 0 98 518 0 17 98 0 525 610 285 96
 89 278 0 291 +17 610 0 525 410 98 99 291 289 0 0 -17 285 0 525 98 410 87 415 28
3 0 173 +17 89 0 392 175 393 87 98 278 0 285 -17 291 0 519 288 294 96 610 289 0
 393 +15 519 366 0 297 512 0 17 288 0 519 297 291 93 393 286 0 389 +17 294 0 519
 291 297 99 400 292 0 610 +17 393 0 392 89 95 96 288 286 0 0 -17 297 0 519 294 2
88 102 389 295 0 0 +17 400 0 396 56 101 102 294 292 0 297 -17 101 0 396 400 92 9
9 410 275 0 294 +17 410 0 525 285 610 90 101 275 0 415 -17 415 0 169 131 173 90
 285 283 0 0 -17 173 0 169 415 86 87 175 276 0 0 -83 3 522 1 1 1 81 1 514 1167 5
03 433 0 443 509 439 611 83 3 515 1 1 1 81 1 443 1252 438 433 514 0 440 447 612
 81 1 439 1168 503 435 0 436 514 504 613 83 3 611 1 1 1 81 1 504 1169 503 430 0
 440 439 498 614 83 3 613 1 1 1 81 1 440 1251 438 430 504 0 436 443 615 83 3 614
 1 1 1 82 1 615 1008009390 82 1 612 971440317 82 1 508 982843581 83 3 506 1 1 1
 79 14 502 SWEntUnchanged15 496 772 0 616 418 416 17 616 0 496 616 616 0 218 217
 0 0 -17 218 0 484 218 218 0 616 217 0 0 +15 484 819 0 218 476 617 15 617 820 0
 618 476 0 17 618 0 617 618 618 0 367 220 0 0 -17 367 0 456 367 367 0 618 220 0
 0 +15 456 790 0 367 398 609 82 1 482 -312672071 82 1 469 -339476291 82 1 461 43
1882433 82 1 455 423231681 82 1 450 -2106588991 82 1 441 971571374 17 405 0 416
 404 143 144 349 347 0 352 -16 330 528 0 ?146 327 335 324 327 327 1 17 408 0 411
 134 140 141 346 344 0 0 -17 104 0 387 389 388 102 56 273 0 400 +17 250 0 249 59
 80 69 270 268 0 0 -17 176 0 221 30 38 157 170 177 0 0 +19 16 95 0 1 0 9 5 S0 74
 4 CI16 index_map_offset0 0 1 dCCZ20 14 3 0 0 567 2 565 0 0 0 0 0 0 0 0 0 0 0 0
 0 0 0 0 0 80 2 12 619 620 8004 0 0 0 0 3 5 0 0 0 FFTFFFFFFFFFFF2 3 83 1 13 1e3
 79 16 620 SDL/TYSA_DENSITY1 0 
