**ABCDEFGHIJKLMNOPQRSTUVWXYZabcdefghijklmnopqrstuvwxyz**************************
**PARASOLID !"#$%&'()*+,-./:;<=>?@[\]^_`{|}~0123456789**************************
**PART1;
MC=AMD64;
MC_MODEL=Intel64 Family 6 Model 142 Stepping 9, GenuineIntel;
MC_ID=unknown;
OS=Windows_NT;
OS_RELEASE=unknown;
FRU=Parasolid Version 28.0, build 174,  7- 3-2015;
APPL=SOLIDWORKS 2016-2015266;
SITE=;
USER=unknown;
FORMAT=text;
GUISE=transmit;
KEY=1005;
FILE=1005.x_t;
DATE=Sat Oct 06 20:50:07 2018;
**PART2;
SCH=SCH_2800174_28002;
USFLD_SIZE=0;
**PART3;
**END_OF_HEADER*****************************************************************
T51 : TRANSMIT FILE created by modeller version 280017423 SCH_2800174_28002_1300
6200 0 12 30 CCCCCCCCCCCCCDI5 owner1040 0 CCCCCCCCCA13 boundary_mesh1006 0 A16 i
ndex_map_offset0 0 1 dA9 index_map82 0 A17 node_id_index_map82 0 A20 schema_embe
dding_map82 0 A5 child12 0 A14 lowest_node_id0 0 1 dZ1 320 2 3 0 0 0 0 1e3 1e-8
 0 4 0 1 0 1 1 5 6 7 8 9 10 11 0 0 0 0 0 0 0 81 255 2 2 262 12 1 0 0 0 0 13 0 70
 11 CI9 list_type0 0 1 uI10 notransmit0 0 1 lCCCDCCDI12 finger_index0 0 1 dI12 f
inger_block1012 0 CZ3 0 4 T1 0 0 3 20 1 14 14 13 255 5 198 0 1 0 15 0 0 16 0 51
 255 6 193 0 17 18 0 0 -.004 .007 -.005 -1 0 0 .0015 0 0 1 30 255 7 197 0 10 19
 0 0 +.004 .012 .009 -1 0 0 29 255 8 154 0 20 21 0 0 .012 -.056 19 8 CCCCCCCA5 o
wner12 0 Z9 57 0 1 16 0 22 V0 16 255 10 161 0 ?23 0 24 7 0 0 1 18 255 11 52 0 25
 0 26 27 ?1 17 255 25 0 28 29 30 11 31 32 0 33 -18 26 49 0 34 11 35 36 ?1 29 27
 54 0 11 36 37 .004 .012 -.056 29 36 51 0 26 38 27 .004 -.012 -.056 29 37 157 0
 39 27 40 0 .012 .009 18 39 144 0 23 41 0 37 ?1 29 40 156 0 41 37 21 0 -.012 .00
9 18 41 143 0 42 43 39 40 ?1 29 21 155 0 43 40 8 0 -.012 -.056 18 43 142 0 44 20
 41 21 ?1 17 44 0 28 30 29 43 34 45 0 46 +18 20 141 0 31 47 43 8 ?1 17 31 0 48 4
9 33 20 25 32 0 50 +18 47 43 0 51 35 20 52 ?1 17 51 0 48 33 49 47 23 10 0 53 -18
 35 46 0 54 26 47 38 ?1 29 52 45 0 47 0 38 .004 .012 .009 29 38 48 0 35 52 36 .0
04 -.012 .009 17 54 0 55 56 57 35 53 58 0 59 +15 255 55 8 0 57 60 0 17 56 0 55 6
1 54 26 62 63 0 29 -17 57 0 55 54 61 47 33 64 0 0 -17 53 0 65 23 59 47 54 58 0 5
7 -16 58 30 0 ?54 63 64 66 0 0 1 17 59 0 65 53 67 35 42 24 0 62 -15 65 166 0 67
 68 0 17 67 0 65 59 23 41 69 70 0 71 +17 42 0 72 46 62 41 59 24 0 67 +16 24 160
 0 ?42 10 45 19 0 0 1 17 62 0 72 42 34 35 56 63 0 0 +15 72 164 0 46 73 0 17 34 0
 72 62 46 26 44 45 0 56 -16 63 34 0 ?62 74 58 75 0 0 1 16 74 39 0 ?29 32 63 76 0
 0 1 30 75 35 0 63 66 76 0 +.004 -.012 -462592926927149e-32 0 -385494105772624e-
30 1 31 255 66 31 0 58 77 75 0 +.004 -1102182119232618e-33 .009 1 0 0 0 0 -1 .01
2 31 76 40 0 74 75 78 0 -.004 0 -.056 1 0 0 0 0 -1 .012 31 78 153 0 79 76 80 0 +
0 .007 -.005 1 0 0 0 0 -1 .0015 16 79 136 0 ?81 82 0 78 0 0 1 31 80 152 0 82 78
 83 0 +0 0 -.056 1 0 0 0 0 -1 .0085 16 82 131 0 ?84 85 79 80 0 0 1 31 83 151 0 8
5 80 86 0 +0 -.007 -.00500000000000015 1 0 0 0 0 -1 .0015 16 85 126 0 ?87 88 82
 83 0 0 1 31 86 150 0 88 83 89 0 +0 -1102182119232618e-33 .009 1 0 0 0 0 -1 .008
5 16 88 121 0 ?90 91 85 86 0 0 1 30 89 149 0 91 86 92 0 +0 .012 0 0 0 -1 16 91 1
15 0 ?50 70 88 89 0 0 1 31 92 148 0 70 89 93 0 +0 -1102182119232618e-33 .009 1 0
 0 0 0 -1 .012 16 70 110 0 ?67 94 91 92 0 0 1 30 93 147 0 94 92 95 0 +0 -.012 -4
62592926927149e-32 0 -385494105772624e-30 1 16 94 104 0 ?71 96 70 93 0 0 1 31 95
 146 0 96 93 97 0 -0 0 -.056 1 0 0 0 0 -1 .012 16 96 99 0 ?98 99 94 95 0 0 1 30
 97 194 0 32 95 100 0 +.004 .012 -.056 -1 0 0 16 32 158 0 ?31 45 74 97 0 0 1 30
 100 195 0 45 97 19 0 +.004 -.012 -.056 -1 0 0 16 45 159 0 ?44 24 32 100 0 0 1 3
0 19 196 0 24 100 7 0 +.004 -.012 .009 -1 0 0 17 98 0 101 71 50 43 30 96 0 0 +16
 99 9 0 ?102 103 96 104 0 0 1 17 102 0 105 102 102 0 106 99 0 0 +16 103 13 0 ?10
7 108 99 109 0 0 1 31 104 10 0 99 0 109 0 +.004 .007 -.005 1 0 0 0 0 -1 .0015 31
 109 14 0 103 104 110 0 +.004 0 -.056 1 0 0 0 0 -1 .0085 31 110 18 0 108 109 111
 0 +.004 -.007 -.00500000000000015 1 0 0 0 0 -1 .0015 16 108 17 0 ?112 113 103 1
10 0 0 1 31 111 22 0 113 110 77 0 +.004 -1102182119232618e-33 .009 1 0 0 0 0 -1
 .0085 16 113 21 0 ?114 64 108 111 0 0 1 30 77 26 0 64 111 66 0 +.004 .012 0 0 0
 -1 16 64 25 0 ?33 58 113 77 0 0 1 17 33 0 48 31 51 11 57 64 0 61 +15 48 168 0 4
9 15 0 17 61 0 55 57 56 11 29 74 0 0 -17 29 0 28 44 25 26 61 74 0 0 +15 28 162 0
 30 115 0 17 30 0 28 25 44 20 98 96 0 0 -14 255 115 163 116 ?60 17 28 5 117 +0 0
 60 17 22 81 1 116 311 118 115 119 0 0 120 121 14 60 1 120 ?122 115 123 5 124 +0
 0 122 115 22 14 17 183 125 ?115 126 105 5 6 +0 0 115 126 22 51 117 186 0 115 12
7 128 0 +.004 0 -.056 -1 0 0 .012 0 0 1 13 22 58 0 0 0 0 0 0 9 15 14 15 169 129
 ?68 0 48 5 130 +0 0 68 0 22 81 1 129 314 118 15 131 0 125 132 133 14 68 167 132
 ?73 15 65 5 134 -0 0 73 15 22 50 255 130 189 0 15 134 135 0 +.004 .012 0 0 1 0
 0 0 1 51 134 188 0 68 128 130 0 -.004 -1102182119232618e-33 .009 -1 0 0 .012 0
 0 1 51 135 190 0 136 130 137 0 -.004 -1102182119232618e-33 .009 -1 0 0 .0085 0
 0 1 14 136 171 138 ?139 73 140 5 135 +0 0 139 73 22 51 137 191 0 139 135 18 0 -
.004 -.007 -.00500000000000015 -1 0 0 .0015 0 0 1 14 139 175 141 ?126 136 142 5
 137 +0 0 126 136 22 51 18 192 0 126 137 6 0 -.004 0 -.056 -1 0 0 .0085 0 0 1 14
 126 179 143 ?17 139 144 5 18 +0 0 17 139 22 81 1 143 318 118 126 145 0 141 146
 147 15 144 178 0 107 126 148 17 107 0 144 107 107 0 149 103 0 0 +15 148 180 0 1
50 126 0 17 150 0 148 150 150 0 84 82 0 0 -17 84 0 151 84 84 0 150 82 0 0 +15 15
1 95 0 84 122 152 14 122 92 146 ?0 60 153 5 127 -0 0 0 60 22 15 152 96 0 87 122
 154 17 87 0 152 87 87 0 155 85 0 0 +15 154 97 0 90 122 101 17 90 0 154 90 90 0
 156 88 0 0 +15 101 98 0 50 122 0 17 50 0 101 98 69 20 49 91 0 30 +17 69 0 101 5
0 71 39 67 70 0 49 -17 49 0 48 51 31 39 50 91 0 0 -17 71 0 101 69 98 41 46 94 0
 0 +17 46 0 72 34 42 43 71 94 0 98 -17 156 0 157 156 156 0 90 88 0 0 -15 157 172
 0 156 136 0 17 155 0 158 155 155 0 87 85 0 0 -15 158 176 0 155 139 0 81 1 146 3
19 118 122 159 0 143 160 161 15 153 94 0 81 122 151 50 127 145 0 122 124 117 0 +
0 0 0 1 0 0 0 0 -1 50 124 2 0 60 0 127 0 +.004 0 0 1 0 0 0 0 -1 17 81 0 153 81 8
1 0 162 79 0 0 +17 162 0 163 162 162 0 81 79 0 0 -15 163 184 0 162 17 0 80 255 1
 118 164 165 9000 1 1 1 1 1 1 1 1 0 FFFFTFTFFFFFFF1 81 1 159 286 166 122 0 146 1
67 0 168 81 1 160 320 118 73 169 0 146 0 170 82 255 1 161 -2065497954 14 73 165
 160 ?136 68 72 5 128 +0 0 136 68 22 81 1 169 279 166 73 0 160 171 172 173 82 1
 170 -2061500258 80 1 166 0 174 8001 0 0 0 0 3 5 0 0 0 FFFFTFTFFFFFFF2 81 1 171
 278 166 68 0 132 131 169 175 81 1 172 280 166 136 0 138 169 176 177 83 255 3 17
3 1 1 1 81 1 138 316 118 136 172 0 132 141 178 81 1 176 281 166 139 0 141 172 14
5 179 83 3 177 1 1 1 81 1 141 317 118 139 176 0 138 143 180 81 1 145 282 166 126
 0 143 176 181 182 83 3 179 1 1 1 81 1 181 283 166 17 0 125 145 119 183 83 3 182
 1 1 1 81 1 125 313 118 17 181 0 120 129 184 81 1 119 284 166 115 0 116 181 167
 185 83 3 183 1 1 1 81 1 167 285 166 60 0 120 119 159 186 83 3 185 1 1 1 81 1 12
0 312 118 60 167 0 116 125 187 83 3 186 1 1 1 82 1 187 -2074869602 82 1 184 -206
0058466 82 1 180 -2060582754 81 1 132 315 118 68 171 0 129 138 188 82 1 178 -206
0844898 82 1 188 -2061369186 81 1 131 277 166 15 0 129 0 171 189 83 3 175 1 1 1
 83 3 189 1 1 1 79 255 15 174 SDL/TYSA_COLOUR50 128 187 0 73 117 134 0 +.004 -.0
12 -462592926927149e-32 0 -1 -385494105772624e-30 0 385494105772624e-30 -1 83 3
 168 1 1 1 79 14 165 SWEntUnchanged17 149 0 190 149 149 0 107 103 0 0 -15 190 5
 0 149 60 191 15 191 6 0 192 60 193 17 192 0 191 192 192 0 112 108 0 0 -15 193 7
 0 194 60 55 17 194 0 193 194 194 0 114 113 0 0 -17 114 0 140 114 114 0 194 113
 0 0 +15 140 170 0 114 136 157 17 112 0 142 112 112 0 192 108 0 0 +15 142 174 0
 112 139 158 82 1 147 -2060320610 82 1 133 -2061041506 15 105 182 0 102 17 163 1
5 123 4 0 106 60 190 17 106 0 123 106 106 0 102 99 0 0 -82 1 121 -2061631330 17
 23 0 65 67 53 39 51 10 0 69 +19 16 199 0 1 0 9 5 S0 74 4 CI16 index_map_offset0
 0 1 dCCZ20 14 3 0 0 160 2 159 0 0 0 0 0 0 0 0 0 0 0 0 0 0 0 0 0 80 2 12 195 196
 8004 0 0 0 0 3 5 0 0 0 FFTFFFFFFFFFFF2 3 83 1 13 1e3 79 16 196 SDL/TYSA_DENSITY
1 0 
