**ABCDEFGHIJKLMNOPQRSTUVWXYZabcdefghijklmnopqrstuvwxyz**************************
**PARASOLID !"#$%&'()*+,-./:;<=>?@[\]^_`{|}~0123456789**************************
**PART1;
MC=AMD64;
MC_MODEL=Intel64 Family 6 Model 142 Stepping 9, GenuineIntel;
MC_ID=unknown;
OS=Windows_NT;
OS_RELEASE=unknown;
FRU=Parasolid Version 28.0, build 174,  7- 3-2015;
APPL=SOLIDWORKS 2016-2015266;
SITE=;
USER=unknown;
FORMAT=text;
GUISE=transmit;
KEY=1006;
FILE=1006.x_t;
DATE=Sat Oct 06 20:50:20 2018;
**PART2;
SCH=SCH_2800174_28002;
USFLD_SIZE=0;
**PART3;
**END_OF_HEADER*****************************************************************
T51 : TRANSMIT FILE created by modeller version 280017423 SCH_2800174_28002_1300
6200 0 12 30 CCCCCCCCCCCCCDI5 owner1040 0 CCCCCCCCCA13 boundary_mesh1006 0 A16 i
ndex_map_offset0 0 1 dA9 index_map82 0 A17 node_id_index_map82 0 A20 schema_embe
dding_map82 0 A5 child12 0 A14 lowest_node_id0 0 1 dZ1 2483 2 3 0 0 0 0 1e3 1e-8
 0 4 0 1 0 1 1 5 6 7 8 9 10 11 0 0 0 0 0 0 0 81 255 2 2 251 12 1 0 0 0 0 13 0 70
 11 CI9 list_type0 0 1 uI10 notransmit0 0 1 lCCCDCCDI12 finger_index0 0 1 dI12 f
inger_block1012 0 CZ3 0 4 T1 0 0 3 20 1 14 14 13 255 5 194 0 1 0 15 0 0 16 0 51
 255 6 187 0 15 17 0 0 +.002 0 0 -1 0 0 .012 0 0 1 31 255 7 2382 0 18 19 0 0 +0
 .01374317325026676 .0476729268254564 1 0 0 0 0 -1 .0015 29 255 8 148 0 20 21 0
 0 -.012 0 19 8 CCCCCCCA5 owner12 0 Z9 59 0 1 16 0 22 V0 16 255 10 159 0 ?23 0 2
4 19 0 0 1 18 255 11 54 0 25 0 26 27 ?1 17 255 25 0 28 29 30 11 31 32 0 33 +18 2
6 51 0 30 11 34 35 ?1 29 27 56 0 11 35 36 .002 -.012 0 29 35 53 0 26 37 27 .002
 -.012 .0526729268254564 29 36 153 0 38 27 39 0 .00736150243810954 -.00947672316
012804 18 38 138 0 23 40 0 36 ?1 29 39 152 0 40 36 41 0 .0468478489386431 .02119
62036653284 18 40 137 0 42 43 38 39 ?1 29 41 151 0 43 39 44 0 .0394863465005335
 .04267292682545645 18 43 136 0 45 46 40 41 ?1 29 44 150 0 46 41 21 0 .039486346
50053355 .0526729268254564 18 46 135 0 47 48 43 44 ?1 29 21 149 0 48 44 8 0 -.01
2 .0526729268254564 18 48 134 0 49 20 46 21 ?1 17 49 0 50 51 52 48 53 54 0 55 +1
8 20 133 0 56 57 48 8 ?1 17 56 0 58 59 60 20 33 61 0 62 +18 57 39 0 63 64 20 65
 ?1 17 63 0 58 60 59 57 23 10 0 29 -18 64 42 0 66 67 57 68 ?1 29 65 41 0 57 0 68
 .002 .00736150243810954 -.00947672316012804 29 68 44 0 64 65 69 .002 .046847848
9386431 .0211962036653284 29 69 47 0 67 68 37 .002 .0394863465005335 .0426729268
2545645 18 67 45 0 70 34 64 69 ?1 29 37 50 0 34 69 35 .002 .03948634650053355 .0
526729268254564 18 34 48 0 71 26 67 37 ?1 17 71 0 28 30 72 34 73 74 0 75 +15 255
 28 4 0 29 76 77 17 30 0 28 25 71 26 78 79 0 51 +17 72 0 28 71 80 67 81 82 0 0 -
17 73 0 83 45 75 67 71 74 0 72 -16 74 19 0 ?71 79 82 84 0 0 1 17 75 0 83 73 47 3
4 52 85 0 78 -15 83 172 0 47 86 0 17 47 0 83 75 45 46 87 88 0 52 +17 52 0 50 49
 78 46 75 85 0 53 +16 85 156 0 ?52 89 90 91 0 0 1 17 78 0 50 52 51 34 30 79 0 0
 -15 50 170 0 49 92 0 17 51 0 50 78 49 26 55 90 0 31 -16 79 23 0 ?30 32 74 93 0
 0 1 16 32 27 0 ?25 94 79 95 0 0 1 30 255 93 24 0 79 84 95 0 +.002 -709881115464
9e-30 .0526729268254564 0 -1 -1347715341160462e-31 30 84 20 0 74 96 93 0 +.002 .
0394863465005335 -2739915690201205e-32 0 693889390390723e-30 1 30 95 28 0 32 93
 97 0 +.002 -.012 0 0 0 -1 31 97 32 0 94 95 98 0 +.002 .03948634650053355 .03067
29268254564 1 0 0 0 0 -1 .0085 16 94 31 0 ?99 100 32 97 0 0 1 31 98 36 0 100 97
 101 0 +.002 0 0 1 0 0 0 0 -1 .0085 16 100 35 0 ?102 61 94 98 0 0 1 31 101 147 0
 103 98 104 0 -0 0 0 1 0 0 0 0 -1 .012 16 103 128 0 ?105 106 18 101 0 0 1 30 104
 146 0 106 101 107 0 +0 .00736150243810954 -.00947672316012804 0 -.7897269300106
7 -.613458536509128 16 106 123 0 ?108 109 103 104 0 0 1 31 107 145 0 109 104 110
 0 -0 .03948634650053355 .0306729268254564 1 0 0 0 0 -1 .012 16 109 118 0 ?111 8
8 106 107 0 0 1 30 110 144 0 88 107 112 0 +0 .0394863465005335 -2739915690201205
e-32 0 693889390390723e-30 1 16 88 113 0 ?47 54 109 110 0 0 1 30 112 143 0 54 11
0 113 0 +0 -7098811154649e-30 .0526729268254564 0 -1 -1347715341160462e-31 16 54
 108 0 ?49 114 88 112 0 0 1 30 113 142 0 114 112 115 0 +0 -.012 0 0 0 -1 16 114
 103 0 ?62 116 54 113 0 0 1 31 115 141 0 116 113 117 0 +0 .03948634650053355 .03
06729268254564 1 0 0 0 0 -1 .0085 16 116 98 0 ?118 119 114 115 0 0 1 31 117 140
 0 119 115 120 0 +0 0 0 1 0 0 0 0 -1 .0085 16 119 93 0 ?121 122 116 117 0 0 1 30
 120 188 0 61 117 123 0 +.002 -.012 0 -1 0 0 16 61 154 0 ?56 90 100 120 0 0 1 30
 123 189 0 90 120 91 0 +.002 -.012 .0526729268254564 -1 0 0 16 90 155 0 ?55 85 6
1 123 0 0 1 30 91 190 0 85 123 124 0 +.002 .03948634650053355 .0526729268254564
 -1 0 0 30 124 191 0 89 91 125 0 +.002 .0394863465005335 .04267292682545645 -1 0
 0 16 89 157 0 ?45 24 85 124 0 0 1 30 125 192 0 24 124 19 0 +.002 .0468478489386
431 .0211962036653284 -1 0 0 16 24 158 0 ?42 10 89 125 0 0 1 30 19 193 0 10 125
 7 0 +.002 .00736150243810954 -.00947672316012804 -1 0 0 17 42 0 126 127 81 40 6
6 24 0 128 +15 126 174 0 127 129 0 17 127 0 126 70 42 43 111 109 0 0 -17 81 0 12
6 42 70 64 72 82 0 0 +17 66 0 130 131 128 64 42 24 0 80 -17 128 0 130 66 23 40 1
08 106 0 111 -15 130 176 0 128 132 0 17 23 0 130 128 131 38 63 10 0 59 +17 108 0
 133 105 111 38 128 106 0 0 +17 111 0 133 108 87 40 127 109 0 0 +15 133 90 0 105
 134 135 17 87 0 133 111 53 43 47 88 0 127 -17 53 0 133 87 136 46 49 54 0 0 -17
 136 0 133 53 105 48 62 114 0 0 -17 105 0 133 136 108 20 59 103 0 0 +17 62 0 137
 33 55 20 136 114 0 105 +15 137 168 0 62 138 0 17 33 0 137 31 62 11 56 61 0 60 -
17 55 0 137 62 31 48 51 90 0 136 +17 31 0 137 55 33 26 25 32 0 0 -17 60 0 58 56
 63 11 29 122 0 0 +15 58 178 0 59 15 0 17 29 0 28 80 25 57 60 122 0 131 -16 122
 7 0 ?60 139 119 140 0 0 1 16 139 11 0 ?131 82 122 141 0 0 1 31 140 8 0 122 142
 141 0 -.002 0 0 1 0 0 0 0 -1 .012 31 142 2422 0 143 0 140 0 +.002 .013743173250
26676 .0476729268254564 1 0 0 0 0 -1 .0015 30 141 12 0 139 140 96 0 +.002 .00736
150243810954 -.00947672316012804 0 -.78972693001067 -.613458536509128 31 96 16 0
 82 141 84 0 -.002 .03948634650053355 .0306729268254564 1 0 0 0 0 -1 .012 16 82
 15 0 ?81 74 139 96 0 0 1 16 143 2398 0 ?144 18 0 142 0 0 1 17 144 0 145 144 144
 0 146 143 0 0 +16 18 2394 0 ?147 103 143 7 0 0 1 17 147 0 148 147 147 0 149 18
 0 0 +15 148 2380 0 147 134 133 17 149 0 150 149 149 0 147 18 0 0 -15 150 2405 0
 149 151 0 14 255 151 2401 152 ?0 134 145 5 153 -0 0 0 134 22 81 1 152 2473 154
 151 155 0 0 156 157 14 134 88 156 ?151 76 148 5 158 -0 0 151 76 22 15 145 2404
 0 144 151 150 51 153 2419 0 151 0 159 0 +-.008 .01374317325026676 .047672926825
4564 1 0 0 .0015 0 0 -1 13 22 60 0 0 0 0 0 0 9 15 14 15 179 160 ?132 0 58 5 6 +0
 0 132 0 22 81 1 160 2475 154 15 161 0 156 162 163 14 132 177 162 ?129 15 130 5
 17 +0 0 129 15 22 81 1 162 2476 154 132 164 0 160 165 166 14 129 175 165 ?86 13
2 126 5 167 +0 0 86 132 22 50 255 17 186 0 132 167 6 0 +.002 .00736150243810954
 -.00947672316012804 0 .613458536509128 -.78972693001067 0 .78972693001067 .6134
58536509128 51 167 185 0 129 168 17 0 +.002 .03948634650053355 .0306729268254564
 -1 0 0 .012 0 0 1 50 168 184 0 86 169 167 0 +.002 .0394863465005335 -2739915690
201205e-32 0 -1 693889390390723e-30 0 -693889390390723e-30 -1 14 86 173 170 ?92
 129 83 5 168 -0 0 92 129 22 50 169 183 0 92 171 168 0 +.002 -7098811154649e-30
 .0526729268254564 0 1347715341160462e-31 -1 0 1 1347715341160462e-31 14 92 171
 172 ?173 86 50 5 169 -0 0 173 86 22 50 171 182 0 138 174 169 0 +.002 -.012 0 0
 1 0 0 0 1 14 138 169 175 ?176 173 137 5 171 -0 0 176 173 22 51 174 181 0 173 17
7 171 0 -.002 .03948634650053355 .0306729268254564 -1 0 0 .0085 0 0 1 14 173 165
 178 ?138 92 179 5 174 +0 0 138 92 22 51 177 180 0 176 158 174 0 -.002 0 0 -1 0
 0 .0085 0 0 1 14 176 161 180 ?76 138 181 5 177 +0 0 76 138 22 50 158 139 0 134
 159 177 0 +0 0 0 1 0 0 0 0 -1 50 159 2 0 76 153 158 0 +.002 0 0 1 0 0 0 0 -1 14
 76 1 182 ?134 176 183 5 159 +0 0 134 176 22 81 1 182 2483 154 76 184 0 180 0 18
5 15 183 2388 0 146 76 28 17 146 0 183 146 146 0 144 143 0 0 -80 255 1 154 186 1
87 9000 1 1 1 1 1 1 1 1 0 FFFFTFTFFFFFFF1 81 1 184 2446 188 76 0 182 189 190 191
 81 1 180 2482 154 176 189 0 178 182 192 82 255 1 185 1666449558 81 1 189 2445 1
88 176 0 180 193 184 194 81 1 178 2481 154 173 195 0 175 180 196 82 1 192 -52251
8382 81 1 195 2443 188 173 0 178 197 193 198 81 1 175 2480 154 138 193 0 172 178
 199 82 1 196 -522256238 81 1 193 2444 188 138 0 175 195 189 200 81 1 172 2479 1
54 92 197 0 170 175 201 82 1 199 -521994094 81 1 197 2442 188 92 0 172 202 195 2
03 81 1 170 2478 154 86 202 0 165 172 204 82 1 201 -521731950 81 1 202 2441 188
 86 0 170 205 197 206 81 1 165 2477 154 129 205 0 162 170 207 82 1 204 -52146980
6 81 1 205 2440 188 129 0 165 164 202 208 82 1 207 -521207662 80 1 188 0 209 800
1 0 0 0 0 3 5 0 0 0 FFFFTFTFFFFFFF2 81 1 164 2439 188 132 0 162 161 205 210 83 2
55 3 208 1 1 1 81 1 161 2438 188 15 0 160 0 164 211 83 3 210 1 1 1 83 3 211 1 1
 1 79 255 15 209 SDL/TYSA_COLOUR83 3 206 1 1 1 83 3 203 1 1 1 83 3 200 1 1 1 83
 3 198 1 1 1 83 3 194 1 1 1 81 1 190 2447 188 134 0 156 184 155 212 83 3 191 1 1
 1 81 1 156 2474 154 134 190 0 152 160 213 81 1 155 2448 188 151 0 152 190 0 214
 83 3 212 1 1 1 83 3 214 1 1 1 82 1 213 1666318486 79 14 187 SWEntUnchanged15 18
1 160 0 102 176 215 17 102 0 181 102 102 0 216 100 0 0 +15 215 162 0 217 176 0 1
7 217 0 215 217 217 0 121 119 0 0 -17 121 0 218 121 121 0 217 119 0 0 +15 218 92
 0 121 134 0 17 216 0 219 216 216 0 102 100 0 0 -15 219 6 0 216 76 0 15 179 164
 0 99 173 220 17 99 0 179 99 99 0 221 94 0 0 +15 220 166 0 222 173 0 17 222 0 22
0 222 222 0 118 116 0 0 -17 118 0 135 118 118 0 222 116 0 0 +15 135 91 0 118 134
 218 17 221 0 77 221 221 0 99 94 0 0 -15 77 5 0 221 76 219 82 1 166 -521011054 8
2 1 163 -520879982 82 1 157 -1445003114 17 131 0 130 23 66 57 80 139 0 0 +17 80
 0 28 72 29 64 131 139 0 81 -17 59 0 58 63 56 38 105 103 0 108 -17 70 0 126 81 1
27 67 45 89 0 73 -17 45 0 83 47 73 43 70 89 0 87 +19 16 195 0 1 0 9 5 S0 74 4 CI
16 index_map_offset0 0 1 dCCZ20 14 3 0 0 182 2 155 0 0 0 0 0 0 0 0 0 0 0 0 0 0 0
 0 0 80 2 12 223 224 8004 0 0 0 0 3 5 0 0 0 FFTFFFFFFFFFFF2 3 83 1 13 1e3 79 16
 224 SDL/TYSA_DENSITY1 0 
