**ABCDEFGHIJKLMNOPQRSTUVWXYZabcdefghijklmnopqrstuvwxyz**************************
**PARASOLID !"#$%&'()*+,-./:;<=>?@[\]^_`{|}~0123456789**************************
**PART1;
MC=AMD64;
MC_MODEL=Intel64 Family 6 Model 142 Stepping 9, GenuineIntel;
MC_ID=unknown;
OS=Windows_NT;
OS_RELEASE=unknown;
FRU=Parasolid Version 28.0, build 174,  7- 3-2015;
APPL=SOLIDWORKS 2016-2015266;
SITE=;
USER=unknown;
FORMAT=text;
GUISE=transmit;
KEY=1007;
FILE=1007.x_t;
DATE=Sat Oct 06 20:50:35 2018;
**PART2;
SCH=SCH_2800174_28002;
USFLD_SIZE=0;
**PART3;
**END_OF_HEADER*****************************************************************
T51 : TRANSMIT FILE created by modeller version 280017423 SCH_2800174_28002_1300
6200 0 12 30 CCCCCCCCCCCCCDI5 owner1040 0 CCCCCCCCCA13 boundary_mesh1006 0 A16 i
ndex_map_offset0 0 1 dA9 index_map82 0 A17 node_id_index_map82 0 A20 schema_embe
dding_map82 0 A5 child12 0 A14 lowest_node_id0 0 1 dZ1 971 2 3 0 0 0 0 1e3 1e-8
 0 4 0 1 0 1 1 5 6 7 8 9 10 11 0 0 0 0 0 0 0 81 255 2 2 456 12 1 0 0 0 0 13 0 70
 11 CI9 list_type0 0 1 uI10 notransmit0 0 1 lCCCDCCDI12 finger_index0 0 1 dI12 f
inger_block1012 0 CZ3 0 4 T1 0 0 3 20 1 14 14 13 255 5 354 0 1 0 15 0 0 16 0 51
 255 6 348 0 17 18 0 0 -.004 -.01631980515339535 .0473198051466052 -1 0 0 .0015
 0 0 1 30 255 7 676 0 10 19 0 0 +0 0 .0458840658366152 0 -1 0 29 255 8 682 0 11
 20 0 .004 -710678118654717e-19 .0458840658366152 19 8 CCCCCCCA5 owner12 0 Z9 95
 0 1 16 0 21 V0 16 255 10 674 0 ?22 0 23 7 0 0 1 18 255 11 680 0 24 0 25 8 ?1 17
 255 24 0 26 27 28 11 29 30 0 31 +18 25 662 0 32 11 33 20 ?1 17 32 0 34 35 36 25
 37 38 0 39 -18 33 514 0 40 25 41 42 ?1 29 20 664 0 25 42 8 0 -710678118654717e-
19 .0432840658366152 29 42 516 0 33 43 20 .004 -710678118654717e-19 .05538406583
66152 29 43 498 0 41 44 42 0 -710678118654717e-19 .0527840658366152 18 41 496 0
 45 33 46 43 ?1 29 44 274 0 47 48 43 0 178428700386186e-32 -.012 18 47 253 0 49
 50 51 44 ?1 29 48 275 0 51 52 44 0 -.07 -.012 18 51 254 0 53 47 54 48 ?1 29 52
 276 0 54 55 48 0 -.07 .0611551336484807 18 54 255 0 56 51 57 52 ?1 29 55 277 0
 57 58 52 0 .012 .0611551336484807 18 57 256 0 59 54 60 55 ?1 29 58 278 0 60 61
 55 0 .012 0 18 60 257 0 62 57 63 58 ?1 29 61 92 0 46 64 58 .004 178428700386186
e-32 -.012 18 46 90 0 65 41 66 61 ?1 29 64 89 0 66 67 61 .004 -.07 -.012 18 66 8
7 0 68 46 69 64 ?1 29 67 86 0 69 70 64 .004 -.07 .0611551336484807 18 69 84 0 71
 66 72 67 ?1 29 70 83 0 72 73 67 .004 .012 .0611551336484807 18 72 81 0 74 69 50
 70 ?1 29 73 80 0 50 75 70 .004 .012 0 18 50 78 0 76 72 47 73 ?1 29 75 642 0 63
 77 73 0 .00492893218813453 .0553840658366152 18 63 577 0 78 60 79 75 ?1 29 77 6
43 0 79 80 75 0 .00492893218813453 .0527840658366152 18 79 579 0 81 63 82 77 ?1
 29 80 645 0 82 83 77 0 -710678118654717e-19 .0553840658366152 18 82 572 0 84 79
 85 80 ?1 29 83 646 0 85 86 80 .004 .00492893218813453 .0553840658366152 18 85 5
74 0 87 82 88 83 ?1 29 86 647 0 88 89 83 .004 .00492893218813453 .05278406583661
52 18 88 575 0 90 85 91 86 ?1 29 89 648 0 91 92 86 .004 -710678118654717e-19 .05
27840658366152 18 91 576 0 93 88 94 89 ?1 29 92 808 0 94 95 89 0 .00492893218813
453 .0458840658366152 18 94 743 0 96 91 97 92 ?1 29 95 809 0 97 98 92 0 .0049289
3218813453 .0432840658366152 18 97 745 0 99 94 100 95 ?1 29 98 811 0 100 101 95
 0 -710678118654717e-19 .0458840658366152 18 100 738 0 35 97 102 98 ?1 29 101 81
2 0 102 103 98 .004 .00492893218813453 .0458840658366152 18 102 740 0 28 100 104
 101 ?1 29 103 813 0 104 105 101 .004 .00492893218813453 .0432840658366152 18 10
4 741 0 106 102 107 103 ?1 29 105 814 0 107 0 103 .004 -710678118654717e-19 .043
2840658366152 18 107 742 0 37 104 0 105 ?1 17 37 0 108 109 39 107 32 38 0 36 +15
 255 108 761 0 37 110 0 17 109 0 108 111 37 104 112 113 0 114 +17 39 0 108 37 11
1 25 115 116 0 117 -16 38 711 0 ?37 118 119 120 0 0 1 17 36 0 34 32 31 107 121 1
22 0 112 +15 34 765 0 31 123 0 17 31 0 34 36 35 11 27 119 0 121 +17 121 0 124 29
 112 11 36 122 0 0 -16 122 732 0 ?36 113 30 125 0 0 1 17 112 0 124 121 114 107 1
09 113 0 0 -15 124 696 0 29 126 127 17 114 0 124 112 29 104 128 129 0 0 +16 113
 735 0 ?109 129 122 130 0 0 1 16 129 705 0 ?114 119 113 131 0 0 1 30 130 801 0 1
13 125 131 0 +.004 0 .0432840658366152 0 1 0 31 255 125 802 0 122 132 130 0 +.00
4 -710678118654717e-19 .0445840658366152 1 0 0 0 0 -1 .0013 31 131 800 0 129 130
 133 0 -.004 .00492893218813453 .0445840658366152 1 0 0 0 0 -1 .0013 30 133 799
 0 134 131 135 0 +-.006 .00492893218813453 .0458840658366152 1 0 0 16 134 704 0
 ?28 136 118 133 0 0 1 30 135 798 0 118 133 120 0 +-.006 .00492893218813453 .043
2840658366152 1 0 0 16 118 709 0 ?106 134 38 135 0 0 1 30 120 797 0 38 135 137 0
 +-.006 -710678118654717e-19 .0432840658366152 1 0 0 30 137 796 0 119 120 138 0
 +-.006 -710678118654717e-19 .0458840658366152 1 0 0 16 119 703 0 ?31 38 129 137
 0 0 1 30 138 637 0 136 137 139 0 +.004 0 .0553840658366152 0 -1 0 16 136 563 0
 ?40 140 134 138 0 0 1 31 139 636 0 140 138 141 0 +.004 -710678118654717e-19 .05
40840658366152 1 0 0 0 0 -1 .0013 16 140 566 0 ?142 143 136 139 0 0 1 30 141 635
 0 143 139 144 0 +.004 0 .0527840658366152 0 1 0 16 143 569 0 ?145 146 140 141 0
 0 1 31 144 634 0 146 141 147 0 -.004 .00492893218813453 .0540840658366152 1 0 0
 0 0 -1 .0013 16 146 539 0 ?148 149 143 144 0 0 1 30 147 633 0 150 144 151 0 +-.
006 .00492893218813453 .0553840658366152 1 0 0 16 150 538 0 ?87 152 153 147 0 0
 1 30 151 632 0 153 147 154 0 +-.006 .00492893218813453 .0527840658366152 1 0 0
 16 153 543 0 ?90 150 155 151 0 0 1 30 154 631 0 155 151 156 0 +-.006 -710678118
654717e-19 .0527840658366152 1 0 0 16 155 545 0 ?93 153 149 154 0 0 1 30 156 630
 0 149 154 157 0 +-.006 -710678118654717e-19 .0553840658366152 1 0 0 16 149 537
 0 ?158 155 146 156 0 0 1 31 157 16 0 159 156 160 0 +.004 -.01631980515339535 .0
473198051466052 1 0 0 0 0 -1 .0015 16 159 15 0 ?161 162 163 157 0 0 1 31 160 20
 0 162 157 164 0 +.004 -.0473198051466061 .0473198051466046 1 0 0 0 0 -1 .0015 1
6 162 19 0 ?165 166 159 160 0 0 1 31 164 24 0 166 160 167 0 +.004 -.047319805146
6054 .01631980515339385 1 0 0 0 0 -1 .0015 16 166 23 0 ?168 169 162 164 0 0 1 31
 167 28 0 169 164 170 0 +.004 -.01631980515339465 .01631980515339465 1 0 0 0 0 -
1 .0015 16 169 27 0 ?171 172 166 167 0 0 1 31 170 32 0 172 167 173 0 +.004 -.062
 -.002 1 0 0 0 0 -1 .0015 16 172 31 0 ?174 175 169 170 0 0 1 31 173 36 0 175 170
 176 0 +.004 -.062 .008 1 0 0 0 0 -1 .0015 16 175 35 0 ?177 178 172 173 0 0 1 31
 176 40 0 178 173 179 0 +.004 -.062 .0411551336484807 1 0 0 0 0 -1 .0015 16 178
 39 0 ?180 181 175 176 0 0 1 31 179 44 0 181 176 182 0 +.004 -.03181980515339465
 .03181980515339465 1 0 0 0 0 -1 .011 16 181 43 0 ?183 184 178 179 0 0 1 31 182
 48 0 184 179 185 0 -.004 0 0 1 0 0 0 0 -1 .012 16 184 47 0 ?186 187 181 182 0 0
 1 30 185 53 0 187 182 188 0 +.004 .012 0 0 0 -1 16 187 52 0 ?189 190 184 185 0
 0 1 30 188 57 0 190 185 191 0 +.004 0 .0611551336484807 0 1 0 16 190 56 0 ?192
 193 187 188 0 0 1 30 191 62 0 193 188 194 0 +.004 -.07 0 0 0 -1 16 193 61 0 ?68
 195 190 191 0 0 1 30 194 66 0 195 191 196 0 +.004 178428700386186e-32 -.012 0 -
1 -148690583655155e-30 16 195 65 0 ?197 198 193 194 0 0 1 31 196 71 0 198 194 19
9 0 +.004 -.062 .0511551336484807 1 0 0 0 0 -1 .0015 16 198 70 0 ?200 201 195 19
6 0 0 1 31 199 75 0 201 196 202 0 +.004 0 0 1 0 0 0 0 -1 .003 16 201 74 0 ?203 2
04 198 199 0 0 1 31 202 273 0 152 199 205 0 +0 -.01631980515339535 .047319805146
6052 1 0 0 0 0 -1 .0015 16 152 248 0 ?206 207 150 202 0 0 1 31 205 272 0 207 202
 208 0 +0 -.0473198051466061 .0473198051466046 1 0 0 0 0 -1 .0015 16 207 243 0 ?
209 210 152 205 0 0 1 31 208 271 0 210 205 211 0 +0 -.0473198051466054 .01631980
515339385 1 0 0 0 0 -1 .0015 16 210 238 0 ?212 213 207 208 0 0 1 31 211 270 0 21
3 208 214 0 +0 -.01631980515339465 .01631980515339465 1 0 0 0 0 -1 .0015 16 213
 233 0 ?215 216 210 211 0 0 1 31 214 269 0 216 211 217 0 +0 -.062 -.002 1 0 0 0
 0 -1 .0015 16 216 228 0 ?218 219 213 214 0 0 1 31 217 268 0 219 214 220 0 +0 -.
062 .008 1 0 0 0 0 -1 .0015 16 219 223 0 ?221 222 216 217 0 0 1 31 220 267 0 222
 217 223 0 +0 -.062 .0411551336484807 1 0 0 0 0 -1 .0015 16 222 218 0 ?224 225 2
19 220 0 0 1 31 223 266 0 225 220 226 0 +0 -.03181980515339465 .0318198051533946
5 1 0 0 0 0 -1 .011 16 225 213 0 ?227 228 222 223 0 0 1 31 226 265 0 228 223 229
 0 -0 0 0 1 0 0 0 0 -1 .012 16 228 207 0 ?230 231 225 226 0 0 1 30 229 264 0 231
 226 232 0 +0 .012 0 0 0 -1 16 231 202 0 ?233 234 228 229 0 0 1 30 232 263 0 234
 229 235 0 +0 0 .0611551336484807 0 1 0 16 234 196 0 ?236 237 231 232 0 0 1 30 2
35 262 0 237 232 238 0 +0 -.07 0 0 0 -1 16 237 191 0 ?239 240 234 235 0 0 1 30 2
38 261 0 240 235 241 0 +0 178428700386186e-32 -.012 0 -1 -148690583655155e-30 16
 240 185 0 ?242 243 237 238 0 0 1 31 241 260 0 243 238 244 0 +0 -.062 .051155133
6484807 1 0 0 0 0 -1 .0015 16 243 180 0 ?245 163 240 241 0 0 1 31 244 259 0 163
 241 246 0 +0 0 0 1 0 0 0 0 -1 .003 16 163 175 0 ?247 159 243 244 0 0 1 30 246 3
49 0 204 244 248 0 +.004 178428700386186e-32 -.012 -1 0 0 16 204 279 0 ?49 249 2
01 246 0 0 1 30 248 350 0 249 246 250 0 +.004 -.07 -.012 -1 0 0 16 249 280 0 ?53
 251 204 248 0 0 1 30 250 351 0 251 248 252 0 +.004 -.07 .0611551336484807 -1 0
 0 16 251 281 0 ?56 253 249 250 0 0 1 30 252 352 0 253 250 254 0 +.004 .012 .061
1551336484807 -1 0 0 16 253 282 0 ?59 255 251 252 0 0 1 30 254 353 0 255 252 256
 0 +.004 .012 0 -1 0 0 16 255 283 0 ?62 257 253 254 0 0 1 31 256 499 0 257 254 2
58 0 +0 -710678118654717e-19 .0540840658366152 1 0 0 0 0 -1 .0013 16 257 497 0 ?
259 260 255 256 0 0 1 30 258 503 0 260 256 261 0 +0 0 .0527840658366152 0 1 0 16
 260 501 0 ?262 263 257 258 0 0 1 31 261 507 0 263 258 264 0 -0 .004928932188134
53 .0540840658366152 1 0 0 0 0 -1 .0013 16 263 505 0 ?81 265 260 261 0 0 1 30 26
4 510 0 265 261 266 0 +0 0 .0553840658366152 0 -1 0 16 265 508 0 ?267 268 263 26
4 0 0 1 31 266 665 0 268 264 269 0 +0 -710678118654717e-19 .0445840658366152 1 0
 0 0 0 -1 .0013 16 268 663 0 ?117 116 265 266 0 0 1 30 269 669 0 116 266 19 0 +0
 0 .0432840658366152 0 1 0 16 116 667 0 ?115 23 268 269 0 0 1 31 19 673 0 23 269
 7 0 -0 .00492893218813453 .0445840658366152 1 0 0 0 0 -1 .0013 16 23 671 0 ?99
 10 116 19 0 0 1 17 99 0 270 106 271 97 272 23 0 111 +15 270 757 0 99 273 0 17 1
06 0 270 128 99 104 111 118 0 109 +17 271 0 270 99 128 94 28 134 0 272 -17 272 0
 274 22 115 94 99 23 0 0 -17 111 0 108 39 109 97 106 118 0 115 -17 115 0 274 272
 117 97 39 116 0 0 +15 274 660 0 272 275 276 17 117 0 274 115 22 25 35 268 0 0 +
17 22 0 274 117 272 100 96 10 0 0 +17 35 0 34 31 32 100 117 268 0 27 -17 27 0 26
 96 24 100 31 119 0 22 -15 26 753 0 28 277 0 17 96 0 26 28 27 94 22 10 0 271 -17
 28 0 26 24 96 102 271 134 0 128 +17 128 0 270 271 106 102 114 129 0 29 -17 29 0
 124 114 121 102 24 30 0 0 -16 30 729 0 ?24 122 0 132 0 0 1 30 132 803 0 30 0 12
5 0 +.004 0 .0458840658366152 0 -1 0 14 255 277 750 278 ?273 279 26 5 280 -0 0 2
73 279 21 81 1 278 947 281 277 282 0 0 283 284 14 273 754 283 ?110 277 270 5 285
 +0 0 110 277 21 14 279 596 286 ?277 287 288 5 289 -0 0 277 287 21 50 255 280 79
0 0 277 290 291 0 +-.006 0 .0458840658366152 0 0 1 1 0 0 13 21 96 0 0 0 0 0 0 9
 15 14 15 301 292 ?293 0 294 5 295 +0 0 293 0 21 81 1 292 950 281 15 296 0 286 2
97 298 14 293 299 297 ?299 15 300 5 301 +0 0 299 15 21 15 294 300 0 302 15 0 51
 295 340 0 15 301 303 0 +.004 0 0 -1 0 0 .012 0 0 1 50 301 339 0 293 304 295 0 +
.004 .012 0 0 1 0 0 0 1 51 303 341 0 305 295 306 0 -.004 -.03181980515339465 .03
181980515339465 -1 0 0 .011 0 0 1 14 305 303 307 ?308 309 310 5 303 +0 0 308 309
 21 51 306 342 0 308 303 311 0 -.004 -.062 .0411551336484807 -1 0 0 .0015 0 0 1
 14 308 307 312 ?313 305 314 5 306 +0 0 313 305 21 51 311 343 0 313 306 315 0 -.
004 -.062 .008 -1 0 0 .0015 0 0 1 14 313 311 316 ?317 308 318 5 311 +0 0 317 308
 21 51 315 344 0 317 311 319 0 -.004 -.062 -.002 -1 0 0 .0015 0 0 1 14 317 315 3
20 ?321 313 322 5 315 +0 0 321 313 21 51 319 345 0 321 315 323 0 -.004 -.0163198
0515339465 .01631980515339465 -1 0 0 .0015 0 0 1 14 321 319 324 ?325 317 326 5 3
19 +0 0 325 317 21 51 323 346 0 325 319 18 0 -.004 -.0473198051466054 .016319805
15339385 -1 0 0 .0015 0 0 1 14 325 323 327 ?328 321 329 5 323 +0 0 328 321 21 51
 18 347 0 328 323 6 0 -.004 -.0473198051466061 .0473198051466046 -1 0 0 .0015 0
 0 1 14 328 327 330 ?17 325 331 5 18 +0 0 17 325 21 81 1 330 958 281 328 332 0 3
27 333 334 14 17 331 333 ?335 328 336 5 6 +0 0 335 328 21 15 331 326 0 165 328 3
37 17 165 0 331 165 165 0 338 162 0 0 +15 337 328 0 339 328 0 17 339 0 337 339 3
39 0 209 207 0 0 -17 209 0 340 209 209 0 339 207 0 0 +15 340 165 0 209 275 341 1
4 275 162 342 ?343 126 274 5 344 -0 0 343 126 21 15 341 166 0 212 275 345 17 212
 0 341 212 212 0 346 210 0 0 +15 345 167 0 215 275 347 17 215 0 345 215 215 0 34
8 213 0 0 +15 347 168 0 218 275 349 17 218 0 347 218 218 0 350 216 0 0 +15 349 1
69 0 221 275 351 17 221 0 349 221 221 0 352 219 0 0 +15 351 170 0 224 275 353 17
 224 0 351 224 224 0 354 222 0 0 +15 353 171 0 227 275 355 17 227 0 353 227 227
 0 356 225 0 0 +15 355 172 0 230 275 357 17 230 0 355 242 233 47 302 228 0 358 +
15 357 173 0 245 275 359 17 245 0 357 245 245 0 360 243 0 0 +15 359 174 0 247 27
5 0 17 247 0 359 247 247 0 361 163 0 0 +17 361 0 362 361 361 0 247 163 0 0 -15 3
62 286 0 361 335 0 14 335 285 363 ?126 17 364 5 365 +0 0 126 17 21 81 1 363 961
 281 335 366 0 342 367 368 14 126 1 367 ?275 335 124 5 369 +0 0 275 335 21 15 36
4 284 0 203 335 362 51 365 334 0 335 344 370 0 -.004 0 0 -1 0 0 .003 0 0 1 50 34
4 258 0 275 369 365 0 +0 0 0 1 0 0 0 0 -1 51 370 335 0 371 365 372 0 -.004 -.062
 .0511551336484807 -1 0 0 .0015 0 0 1 14 371 289 373 ?309 374 375 5 370 +0 0 309
 374 21 50 372 336 0 309 370 376 0 +.004 178428700386186e-32 -.012 0 14869058365
5155e-30 -1 0 1 148690583655155e-30 14 309 293 377 ?305 371 378 5 372 +0 0 305 3
71 21 50 376 337 0 374 372 304 0 +.004 -.07 0 0 1 0 0 0 1 14 374 295 379 ?371 29
9 380 5 376 -0 0 371 299 21 50 304 338 0 299 376 301 0 +.004 0 .0611551336484807
 0 0 1 1 0 0 14 299 297 381 ?374 293 382 5 304 +0 0 374 293 21 81 1 381 966 281
 299 383 0 379 384 385 15 382 296 0 386 299 0 17 386 0 382 71 59 54 236 234 0 0
 -17 71 0 382 192 386 69 56 251 0 387 -17 59 0 382 386 192 57 74 253 0 388 +17 2
36 0 355 233 389 57 386 234 0 0 +17 233 0 355 230 236 60 388 231 0 0 +17 389 0 3
55 236 242 54 239 237 0 386 -17 242 0 355 389 230 51 358 240 0 0 +17 239 0 380 3
90 56 51 389 237 0 242 +15 380 294 0 239 374 0 17 390 0 380 387 239 66 53 249 0
 197 -17 56 0 380 239 387 54 71 251 0 389 +17 387 0 380 56 390 69 68 193 0 391 -
17 68 0 392 393 391 66 387 193 0 390 +17 391 0 392 68 394 69 192 190 0 0 -15 392
 12 0 395 126 396 17 394 0 392 391 395 72 189 187 0 192 -17 192 0 382 59 71 72 3
91 190 0 0 +17 395 0 392 394 393 50 186 184 0 189 -17 189 0 300 62 74 50 394 187
 0 0 +15 300 298 0 388 293 0 17 62 0 300 388 189 60 76 255 0 302 +17 74 0 300 18
9 388 72 59 253 0 394 -17 388 0 300 74 62 57 233 231 0 236 -17 76 0 294 186 302
 50 62 255 0 395 -17 302 0 294 76 49 60 230 228 0 233 -17 49 0 294 302 186 47 65
 204 0 230 +17 186 0 294 49 76 46 395 184 0 393 +17 65 0 378 197 358 46 49 204 0
 186 -15 378 292 0 358 309 0 17 197 0 378 53 65 66 393 195 0 0 +17 358 0 378 65
 53 47 242 240 0 0 -17 53 0 378 358 197 51 390 249 0 239 +17 393 0 392 395 68 46
 197 195 0 0 -15 396 13 0 397 126 398 17 397 0 396 397 397 0 200 198 0 0 -15 398
 14 0 399 126 0 17 399 0 398 399 399 0 203 201 0 0 -17 203 0 364 203 203 0 399 2
01 0 0 +17 200 0 375 200 200 0 397 198 0 0 +15 375 288 0 200 371 400 15 400 290
 0 360 371 0 17 360 0 400 360 360 0 245 243 0 0 -80 255 1 281 401 402 9000 1 1 1
 1 1 1 1 1 0 FFFFTFTFFFFFFF1 81 1 383 869 403 299 0 381 404 405 406 81 1 379 965
 281 374 405 0 377 381 407 81 1 384 967 281 343 408 0 381 409 410 82 255 1 385 2
48250532 14 343 584 384 ?411 275 412 5 413 -0 0 411 275 21 81 1 408 884 403 343
 0 384 414 415 416 81 1 409 968 281 411 415 0 384 417 418 82 1 410 -289013592 14
 411 588 409 ?287 343 419 5 291 +0 0 287 343 21 81 1 415 885 403 411 0 409 408 4
20 421 81 1 417 969 281 287 420 0 409 422 423 82 1 418 -289472344 14 287 592 417
 ?279 411 424 5 425 -0 0 279 411 21 81 1 420 886 403 287 0 417 415 426 427 81 1
 422 970 281 110 428 0 417 429 430 82 1 423 -290258776 14 110 758 422 ?123 273 1
08 5 431 -0 0 123 273 21 81 1 428 890 403 110 0 422 432 433 434 81 1 429 971 281
 123 433 0 422 0 435 82 1 430 -282722136 14 123 762 429 ?0 110 34 5 290 -0 0 0 1
10 21 81 1 433 891 403 123 0 429 428 0 436 82 1 435 -283508568 80 1 403 0 437 80
01 0 0 0 0 3 5 0 0 0 FFFFTFTFFFFFFF2 83 255 3 436 1 1 1 79 255 15 437 SDL/TYSA_C
OLOUR51 290 791 0 123 431 280 0 +-.006 -710678118654717e-19 .0445840658366152 1
 0 0 .0013 0 0 -1 50 431 792 0 110 285 290 0 +-.006 0 .0432840658366152 0 0 -1 -
1 0 0 51 285 793 0 273 0 431 0 --.006 .00492893218813453 .0445840658366152 1 0 0
 .0013 0 0 -1 81 1 432 889 403 273 0 283 282 428 438 83 3 434 1 1 1 81 1 283 948
 281 273 432 0 278 286 439 81 1 282 888 403 277 0 278 426 432 440 83 3 438 1 1 1
 81 1 426 887 403 279 0 286 420 282 441 83 3 440 1 1 1 81 1 286 949 281 279 426
 0 283 292 442 83 3 441 1 1 1 82 1 442 -291045208 82 1 439 -281935704 83 3 427 1
 1 1 15 424 595 0 93 287 0 50 425 626 0 287 291 289 0 +-.006 0 .0527840658366152
 0 0 -1 -1 0 0 51 291 627 0 411 280 425 0 --.006 .00492893218813453 .05408406583
66152 1 0 0 .0013 0 0 -1 51 289 625 0 279 425 413 0 +-.006 -710678118654717e-19
 .0540840658366152 1 0 0 .0013 0 0 -1 50 413 624 0 343 289 369 0 +-.006 0 .05538
40658366152 0 0 1 1 0 0 50 369 2 0 126 413 344 0 +.004 0 0 1 0 0 0 0 -1 17 93 0
 424 145 443 91 45 155 0 142 +17 145 0 424 444 93 88 445 143 0 148 +17 443 0 424
 93 444 41 262 260 0 259 -17 45 0 288 84 142 41 93 155 0 443 -17 142 0 288 45 15
8 91 446 140 0 445 +15 288 599 0 158 279 0 17 158 0 288 142 84 33 447 149 0 446
 +17 446 0 127 448 445 33 142 140 0 0 -17 445 0 127 446 148 91 145 143 0 0 -15 1
27 530 0 448 126 449 17 148 0 127 445 448 88 450 146 0 0 +17 448 0 127 148 446 8
5 40 136 0 0 -17 450 0 419 451 90 85 148 146 0 448 -15 419 591 0 81 411 0 17 451
 0 419 81 450 63 87 150 0 452 -17 90 0 419 450 81 88 444 153 0 145 +17 81 0 419
 90 451 79 452 263 0 444 +17 444 0 424 443 145 79 90 153 0 262 -17 262 0 276 452
 259 79 443 260 0 0 +15 276 494 0 452 275 453 17 452 0 276 267 262 63 81 263 0 0
 -17 259 0 276 262 267 41 84 257 0 0 +17 267 0 276 259 452 82 78 265 0 0 +17 84
 0 288 158 45 82 259 257 0 447 -17 447 0 412 78 40 82 158 149 0 267 -15 412 587
 0 87 343 0 17 78 0 412 87 447 63 267 265 0 451 -17 40 0 412 447 87 33 448 136 0
 158 +17 87 0 412 40 78 85 451 150 0 450 +15 453 164 0 206 275 340 17 206 0 453
 206 206 0 454 152 0 0 +17 454 0 455 454 454 0 206 152 0 0 -15 455 332 0 454 17
 0 15 449 4 0 456 126 457 17 456 0 449 456 456 0 161 159 0 0 -15 457 5 0 338 126
 458 17 338 0 457 338 338 0 165 162 0 0 -15 458 6 0 459 126 460 17 459 0 458 459
 459 0 168 166 0 0 -15 460 7 0 461 126 462 17 461 0 460 461 461 0 171 169 0 0 -1
5 462 8 0 463 126 464 17 463 0 462 463 463 0 174 172 0 0 -15 464 9 0 465 126 466
 17 465 0 464 465 465 0 177 175 0 0 -15 466 10 0 467 126 468 17 467 0 466 467 46
7 0 180 178 0 0 -15 468 11 0 469 126 392 17 469 0 468 469 469 0 183 181 0 0 -17
 183 0 310 183 183 0 469 181 0 0 +15 310 302 0 183 305 470 15 470 304 0 356 305
 0 17 356 0 470 356 356 0 227 225 0 0 -17 180 0 314 180 180 0 467 178 0 0 +15 31
4 306 0 180 308 471 15 471 308 0 354 308 0 17 354 0 471 354 354 0 224 222 0 0 -1
7 177 0 318 177 177 0 465 175 0 0 +15 318 310 0 177 313 472 15 472 312 0 352 313
 0 17 352 0 472 352 352 0 221 219 0 0 -17 174 0 322 174 174 0 463 172 0 0 +15 32
2 314 0 174 317 473 15 473 316 0 350 317 0 17 350 0 473 350 350 0 218 216 0 0 -1
7 171 0 326 171 171 0 461 169 0 0 +15 326 318 0 171 321 474 15 474 320 0 348 321
 0 17 348 0 474 348 348 0 215 213 0 0 -17 168 0 329 168 168 0 459 166 0 0 +15 32
9 322 0 168 325 475 15 475 324 0 346 325 0 17 346 0 475 346 346 0 212 210 0 0 -1
7 161 0 336 161 161 0 456 159 0 0 +15 336 330 0 161 17 455 83 3 421 1 1 1 81 1 4
14 883 403 275 0 342 476 408 477 83 3 416 1 1 1 81 1 342 960 281 275 414 0 333 3
63 478 81 1 476 882 403 126 0 367 366 414 479 83 3 477 1 1 1 81 1 367 962 281 12
6 476 0 363 373 480 81 1 366 881 403 335 0 363 481 476 482 83 3 479 1 1 1 81 1 4
81 880 403 17 0 333 332 366 483 83 3 482 1 1 1 81 1 333 959 281 17 481 0 330 342
 484 81 1 332 879 403 328 0 330 485 481 486 83 3 483 1 1 1 81 1 485 878 403 325
 0 327 487 332 488 83 3 486 1 1 1 81 1 327 957 281 325 485 0 324 330 489 81 1 48
7 877 403 321 0 324 490 485 491 83 3 488 1 1 1 81 1 324 956 281 321 487 0 320 32
7 492 81 1 490 876 403 317 0 320 493 487 494 83 3 491 1 1 1 81 1 320 955 281 317
 490 0 316 324 495 81 1 493 875 403 313 0 316 496 490 497 83 3 494 1 1 1 81 1 31
6 954 281 313 493 0 312 320 498 81 1 496 874 403 308 0 312 499 493 500 83 3 497
 1 1 1 81 1 312 953 281 308 496 0 307 316 501 81 1 499 873 403 305 0 307 502 496
 503 83 3 500 1 1 1 81 1 307 952 281 305 499 0 297 312 504 81 1 502 872 403 309
 0 377 505 499 506 83 3 503 1 1 1 81 1 377 964 281 309 502 0 373 379 507 81 1 50
5 871 403 371 0 373 405 502 508 83 3 506 1 1 1 81 1 373 963 281 371 505 0 367 37
7 509 81 1 405 870 403 374 0 379 383 505 510 83 3 508 1 1 1 83 3 510 1 1 1 82 1
 509 247529636 82 1 507 247791780 81 1 297 951 281 293 404 0 292 307 511 82 1 50
4 248709284 81 1 404 868 403 293 0 297 296 383 512 82 1 511 248447140 81 1 296 8
67 403 15 0 292 0 404 513 83 3 512 1 1 1 83 3 513 1 1 1 82 1 501 248971428 82 1
 498 249233572 82 1 495 249495716 82 1 492 249757860 82 1 489 250020004 82 1 484
 250544292 82 1 480 28377256 82 1 478 26673320 82 1 407 247922852 83 3 406 1 1 1
 79 14 402 SWEntUnchanged82 1 368 247267492 82 1 334 250282148 82 1 298 24857821
2 82 1 284 -281476952 19 16 355 0 1 0 9 5 S0 74 4 CI16 index_map_offset0 0 1 dCC
Z20 14 3 0 0 429 2 433 0 0 0 0 0 0 0 0 0 0 0 0 0 0 0 0 0 80 2 12 514 515 8004 0
 0 0 0 3 5 0 0 0 FFTFFFFFFFFFFF2 3 83 1 13 1e3 79 16 515 SDL/TYSA_DENSITY1 0 
