**ABCDEFGHIJKLMNOPQRSTUVWXYZabcdefghijklmnopqrstuvwxyz**************************
**PARASOLID !"#$%&'()*+,-./:;<=>?@[\]^_`{|}~0123456789**************************
**PART1;
MC=AMD64;
MC_MODEL=Intel64 Family 6 Model 142 Stepping 9, GenuineIntel;
MC_ID=unknown;
OS=Windows_NT;
OS_RELEASE=unknown;
FRU=Parasolid Version 28.0, build 174,  7- 3-2015;
APPL=SOLIDWORKS 2016-2015266;
SITE=;
USER=unknown;
FORMAT=text;
GUISE=transmit;
KEY=1008;
FILE=1008.x_t;
DATE=Sat Oct 06 20:50:50 2018;
**PART2;
SCH=SCH_2800174_28002;
USFLD_SIZE=0;
**PART3;
**END_OF_HEADER*****************************************************************
T51 : TRANSMIT FILE created by modeller version 280017423 SCH_2800174_28002_1300
6200 0 12 30 CCCCCCCCCCCCCDI5 owner1040 0 CCCCCCCCCA13 boundary_mesh1006 0 A16 i
ndex_map_offset0 0 1 dA9 index_map82 0 A17 node_id_index_map82 0 A20 schema_embe
dding_map82 0 A5 child12 0 A14 lowest_node_id0 0 1 dZ1 874 2 3 0 0 0 0 1e3 1e-8
 0 4 0 1 0 1 1 5 6 7 8 9 10 11 0 0 0 0 0 0 0 81 255 2 2 730 12 1 0 0 0 0 13 0 70
 11 CI9 list_type0 0 1 uI10 notransmit0 0 1 lCCCDCCDI12 finger_index0 0 1 dI12 f
inger_block1012 0 CZ3 0 4 T1 0 0 3 20 1 14 14 13 255 5 582 0 1 0 15 0 0 16 0 51
 255 6 567 0 17 18 0 0 -.004 -.01631980515339535 .0473198051466052 -1 0 0 .0015
 0 0 1 30 255 7 581 0 19 20 0 0 +.004 .00983102672969615 -.0068812 -1 0 0 29 255
 8 443 0 21 22 0 0 .00983102672969615 .0440551336484807 19 8 CCCCCCCA5 owner12 0
 Z9 164 0 1 16 0 23 V0 16 255 10 460 0 ?24 0 25 26 0 0 1 18 255 11 159 0 27 0 28
 29 ?1 17 255 27 0 30 31 32 11 33 34 0 35 +18 28 156 0 32 11 36 37 ?1 29 29 161
 0 11 37 38 .004 .00983102672969615 .0440551336484807 29 37 158 0 28 39 29 .004
 .00983102672969615 .0466551336484807 29 38 456 0 40 29 41 0 .00983102672969615
 -.0068812 18 40 416 0 42 43 0 38 ?1 29 41 455 0 43 38 44 0 .04423702672969615 .
0422739336484807 18 43 415 0 45 46 40 41 ?1 29 44 454 0 46 41 47 0 .034406 .0611
551336484807 18 46 414 0 48 49 43 44 ?1 29 47 453 0 49 44 50 0 -.07 .06115513364
84807 18 49 413 0 51 52 46 47 ?1 29 50 452 0 52 47 53 0 -.07 -.012 18 52 412 0 5
4 55 49 50 ?1 29 53 451 0 55 50 56 0 178428700386186e-32 -.012 18 55 411 0 57 58
 52 53 ?1 29 56 450 0 58 53 59 0 .00483102672969615 .0535551336484807 18 58 410
 0 60 61 55 56 ?1 29 59 449 0 61 56 62 0 .00483102672969614 .0561551336484807 18
 61 409 0 63 64 58 59 ?1 29 62 448 0 64 59 65 0 .00983102672969615 .056155133648
4807 18 64 408 0 66 67 61 62 ?1 29 65 447 0 67 62 68 0 .00983102672969615 .05355
51336484807 18 67 407 0 69 70 64 65 ?1 29 68 446 0 70 65 71 0 .00483102672969615
 .0440551336484807 18 70 406 0 72 73 67 68 ?1 29 71 445 0 73 68 22 0 .0048310267
2969614 .0466551336484807 18 73 405 0 74 75 70 71 ?1 29 22 444 0 75 71 8 0 .0098
3102672969615 .0466551336484807 18 75 404 0 76 21 73 22 ?1 17 76 0 77 78 79 75 8
0 81 0 82 +18 21 403 0 83 84 75 8 ?1 17 83 0 85 35 82 21 86 87 0 88 +18 84 120 0
 89 90 21 91 ?1 17 89 0 92 93 94 84 42 19 0 95 -18 90 123 0 96 97 84 98 ?1 29 91
 122 0 84 0 98 .004 .00983102672969615 -.0068812 29 98 125 0 90 91 99 .004 .0442
3702672969615 .0422739336484807 29 99 128 0 97 98 100 .004 .034406 .061155133648
4807 18 97 126 0 101 102 90 99 ?1 29 100 131 0 102 99 103 .004 -.07 .06115513364
84807 18 102 129 0 104 105 97 100 ?1 29 103 134 0 105 100 106 .004 -.07 -.012 18
 105 132 0 107 108 102 103 ?1 29 106 137 0 108 103 109 .004 178428700386186e-32
 -.012 18 108 135 0 110 111 105 106 ?1 29 109 140 0 111 106 112 .004 .0048310267
2969615 .0535551336484807 18 111 138 0 113 114 108 109 ?1 29 112 143 0 114 109 1
15 .004 .00483102672969614 .0561551336484807 18 114 141 0 116 117 111 112 ?1 29
 115 146 0 117 112 118 .004 .00983102672969615 .0561551336484807 18 117 144 0 11
9 120 114 115 ?1 29 118 149 0 120 115 121 .004 .00983102672969615 .0535551336484
807 18 120 147 0 122 123 117 118 ?1 29 121 152 0 123 118 39 .004 .00483102672969
615 .0440551336484807 18 123 150 0 124 36 120 121 ?1 29 39 155 0 36 121 37 .004
 .00483102672969614 .0466551336484807 18 36 153 0 125 28 123 39 ?1 17 125 0 30 3
2 31 36 124 126 0 127 +15 255 30 17 0 31 128 0 17 32 0 30 27 125 28 129 130 0 78
 +17 31 0 30 125 27 123 131 132 0 133 +17 124 0 134 24 127 123 125 126 0 31 -16
 126 108 0 ?125 130 132 135 0 0 1 17 127 0 134 124 74 36 79 25 0 129 -15 134 475
 0 74 136 0 17 74 0 134 127 24 73 72 137 0 79 +17 79 0 77 76 129 73 127 25 0 80
 +16 25 459 0 ?79 10 138 139 0 0 1 17 129 0 77 79 78 36 32 130 0 0 -15 77 473 0
 76 140 0 17 78 0 77 129 76 28 82 138 0 33 -16 130 112 0 ?32 34 126 141 0 0 1 16
 34 116 0 ?27 142 130 143 0 0 1 30 141 113 0 130 135 143 0 +.004 -64747004491883
9e-31 .0466551336484807 0 1 1387778780781446e-30 31 255 135 109 0 126 144 141 0
 -.004 .00483102672969615 .0453551336484807 1 0 0 0 0 -1 .0013 31 143 117 0 34 1
41 145 0 -.004 .00983102672969615 .0453551336484807 1 0 0 0 0 -1 .0013 31 145 44
2 0 146 143 147 0 +0 -.01631980515339535 .0473198051466052 1 0 0 0 0 -1 .0015 16
 146 398 0 ?148 149 0 145 0 0 1 31 147 441 0 149 145 150 0 +0 -.0473198051466061
 .0473198051466046 1 0 0 0 0 -1 .0015 16 149 393 0 ?151 152 146 147 0 0 1 31 150
 440 0 152 147 153 0 +0 -.0473198051466054 .01631980515339385 1 0 0 0 0 -1 .0015
 16 152 388 0 ?154 155 149 150 0 0 1 31 153 439 0 155 150 156 0 +0 -.01631980515
339465 .01631980515339465 1 0 0 0 0 -1 .0015 16 155 383 0 ?157 158 152 153 0 0 1
 31 156 438 0 158 153 159 0 +0 -.062 .0511551336484807 1 0 0 0 0 -1 .0015 16 158
 378 0 ?160 161 155 156 0 0 1 31 159 437 0 161 156 162 0 +0 -.062 .0411551336484
807 1 0 0 0 0 -1 .0015 16 161 373 0 ?163 164 158 159 0 0 1 31 162 436 0 164 159
 165 0 +0 -.062 .008 1 0 0 0 0 -1 .0015 16 164 368 0 ?166 167 161 162 0 0 1 31 1
65 435 0 167 162 168 0 +0 -.062 -.002 1 0 0 0 0 -1 .0015 16 167 363 0 ?169 170 1
64 165 0 0 1 31 168 434 0 170 165 171 0 +0 -.03181980515339465 .0318198051533946
5 1 0 0 0 0 -1 .011 16 170 358 0 ?172 173 167 168 0 0 1 31 171 433 0 173 168 174
 0 -0 0 0 1 0 0 0 0 -1 .012 16 173 353 0 ?175 176 170 171 0 0 1 30 174 432 0 176
 171 177 0 +0 .00983102672969615 -.0068812 0 -.573433333333333 -.819252227474679
 16 176 348 0 ?178 179 173 174 0 0 1 31 177 431 0 179 174 180 0 -0 .034406 .0491
551336484807 1 0 0 0 0 -1 .012 16 179 343 0 ?181 182 176 177 0 0 1 30 180 430 0
 182 177 183 0 +0 -4064411854357745e-33 .0611551336484807 0 -1 -664606814158883e
-31 16 182 337 0 ?184 185 179 180 0 0 1 30 183 429 0 185 180 186 0 +0 -.07 0 0 0
 -1 16 185 332 0 ?187 188 182 183 0 0 1 30 186 428 0 188 183 189 0 +0 1784287003
86186e-32 -.012 0 -1 -148690583655155e-30 16 188 326 0 ?190 191 185 186 0 0 1 31
 189 427 0 191 186 192 0 +0 .034406 .0491551336484807 1 0 0 0 0 -1 .0085 16 191
 321 0 ?193 194 188 189 0 0 1 31 192 426 0 194 189 195 0 +0 0 0 1 0 0 0 0 -1 .00
3 16 194 316 0 ?196 197 191 192 0 0 1 30 195 425 0 197 192 198 0 +0 0 .053555133
6484807 0 -1 0 16 197 311 0 ?199 200 194 195 0 0 1 31 198 424 0 200 195 201 0 -0
 .00483102672969615 .0548551336484807 1 0 0 0 0 -1 .0013 16 200 306 0 ?63 202 19
7 198 0 0 1 30 201 423 0 202 198 203 0 +0 -779309029093077e-31 .0561551336484807
 0 1 1387778780781446e-30 16 202 301 0 ?66 204 200 201 0 0 1 31 203 422 0 204 20
1 205 0 -0 .00983102672969615 .0548551336484807 1 0 0 0 0 -1 .0013 16 204 296 0
 ?69 206 202 203 0 0 1 30 205 421 0 206 203 207 0 +0 0 .0440551336484807 0 -1 0
 16 206 291 0 ?208 137 204 205 0 0 1 31 207 420 0 137 205 209 0 -0 .004831026729
69615 .0453551336484807 1 0 0 0 0 -1 .0013 16 137 286 0 ?74 81 206 207 0 0 1 30
 209 419 0 81 207 210 0 +0 -647470044918839e-31 .0466551336484807 0 1 1387778780
781446e-30 16 81 281 0 ?76 87 137 209 0 0 1 31 210 418 0 87 209 211 0 -0 .009831
02672969615 .0453551336484807 1 0 0 0 0 -1 .0013 16 87 276 0 ?83 212 81 210 0 0
 1 30 211 568 0 213 210 214 0 +.004 .00983102672969615 .0440551336484807 -1 0 0
 16 213 457 0 ?88 138 215 211 0 0 1 30 214 569 0 138 211 139 0 +.004 .0098310267
2969615 .0466551336484807 -1 0 0 16 138 458 0 ?82 25 213 214 0 0 1 30 139 570 0
 25 214 26 0 +.004 .00483102672969614 .0466551336484807 -1 0 0 30 26 571 0 10 13
9 216 0 +.004 .00483102672969615 .0440551336484807 -1 0 0 30 216 572 0 217 26 21
8 0 +.004 .00983102672969615 .0535551336484807 -1 0 0 16 217 461 0 ?219 220 19 2
16 0 0 1 30 218 573 0 220 216 221 0 +.004 .00983102672969615 .0561551336484807 -
1 0 0 16 220 462 0 ?222 223 217 218 0 0 1 30 221 574 0 223 218 224 0 +.004 .0048
3102672969614 .0561551336484807 -1 0 0 16 223 463 0 ?225 215 220 221 0 0 1 30 22
4 575 0 215 221 226 0 +.004 .00483102672969615 .0535551336484807 -1 0 0 16 215 4
64 0 ?227 213 223 224 0 0 1 30 226 576 0 142 224 228 0 +.004 178428700386186e-32
 -.012 -1 0 0 16 142 465 0 ?57 229 34 226 0 0 1 30 228 577 0 229 226 230 0 +.004
 -.07 -.012 -1 0 0 16 229 466 0 ?54 231 142 228 0 0 1 30 230 578 0 231 228 232 0
 +.004 -.07 .0611551336484807 -1 0 0 16 231 467 0 ?233 234 229 230 0 0 1 30 232
 579 0 234 230 20 0 +.004 .034406 .0611551336484807 -1 0 0 16 234 468 0 ?48 235
 231 232 0 0 1 30 20 580 0 235 232 7 0 +.004 .04423702672969615 .042273933648480
7 -1 0 0 16 235 469 0 ?45 19 234 20 0 0 1 17 45 0 236 237 238 43 96 235 0 239 +1
6 19 470 0 ?42 217 235 7 0 0 1 17 42 0 240 239 241 40 89 19 0 94 +15 240 503 0 2
39 242 0 17 239 0 240 96 42 43 178 176 0 181 -17 241 0 240 42 96 84 243 244 0 0
 +17 94 0 92 89 57 40 175 173 0 178 -15 92 505 0 94 245 0 17 57 0 92 94 93 55 11
0 142 0 175 +17 175 0 246 190 178 55 94 173 0 247 +17 178 0 246 175 181 40 239 1
76 0 0 +15 246 271 0 175 248 249 17 181 0 246 178 250 43 237 179 0 0 +17 250 0 2
46 181 51 46 184 182 0 237 -17 237 0 236 101 45 46 181 179 0 0 -15 236 501 0 237
 251 0 17 101 0 236 238 237 97 48 234 0 252 -17 238 0 236 45 101 90 253 254 0 0
 +17 48 0 255 184 252 46 101 234 0 250 +17 252 0 255 48 256 97 257 258 0 253 -15
 255 499 0 184 259 0 17 256 0 255 252 184 102 233 231 0 0 -17 257 0 260 107 253
 102 252 258 0 256 +16 258 66 0 ?257 261 254 262 0 0 1 17 253 0 260 257 243 97 2
38 254 0 0 -15 260 13 0 95 128 263 17 243 0 260 253 95 90 241 244 0 238 -16 254
 62 0 ?238 258 244 264 0 0 1 16 244 58 0 ?241 254 265 266 0 0 1 31 264 63 0 254
 266 262 0 -.004 .034406 .0491551336484807 1 0 0 0 0 -1 .012 30 266 59 0 244 267
 264 0 +.004 .00983102672969615 -.0068812 0 -.573433333333333 -.819252227474679
 30 262 67 0 258 264 268 0 +.004 -4064411854357745e-33 .0611551336484807 0 -1 -6
64606814158883e-31 30 268 72 0 261 262 269 0 +.004 -.07 0 0 0 -1 16 261 71 0 ?10
7 270 258 268 0 0 1 30 269 76 0 270 268 271 0 +.004 178428700386186e-32 -.012 0
 -1 -148690583655155e-30 16 270 75 0 ?272 273 261 269 0 0 1 31 271 81 0 273 269
 274 0 +.004 .034406 .0491551336484807 1 0 0 0 0 -1 .0085 16 273 80 0 ?275 276 2
70 271 0 0 1 31 274 85 0 276 271 277 0 +.004 0 0 1 0 0 0 0 -1 .003 16 276 84 0 ?
278 279 273 274 0 0 1 30 277 89 0 279 274 280 0 +.004 0 .0535551336484807 0 -1 0
 16 279 88 0 ?281 282 276 277 0 0 1 31 280 93 0 282 277 283 0 -.004 .00483102672
969615 .0548551336484807 1 0 0 0 0 -1 .0013 16 282 92 0 ?116 284 279 280 0 0 1 3
0 283 97 0 284 280 285 0 +.004 -779309029093077e-31 .0561551336484807 0 1 138777
8780781446e-30 16 284 96 0 ?119 286 282 283 0 0 1 31 285 101 0 286 283 144 0 -.0
04 .00983102672969615 .0548551336484807 1 0 0 0 0 -1 .0013 16 286 100 0 ?122 132
 284 285 0 0 1 30 144 105 0 132 285 135 0 +.004 0 .0440551336484807 0 -1 0 16 13
2 104 0 ?31 126 286 144 0 0 1 17 122 0 287 281 119 120 288 286 0 289 +15 287 16
 0 281 128 30 17 281 0 287 116 122 111 290 279 0 291 +17 119 0 287 122 116 117 2
92 284 0 293 +17 288 0 294 222 289 117 122 286 0 0 -17 289 0 294 288 69 120 219
 217 0 290 -15 294 479 0 69 295 0 17 69 0 294 289 222 67 296 204 0 219 +17 219 0
 297 199 290 67 289 217 0 298 +17 290 0 297 219 291 120 281 279 0 0 -15 297 485
 0 199 299 0 17 291 0 297 290 199 111 227 215 0 0 -17 199 0 297 291 219 58 298 1
97 0 0 +17 227 0 300 63 113 58 291 215 0 199 +15 300 483 0 63 301 0 17 63 0 300
 302 227 61 60 200 0 225 +17 113 0 300 227 302 111 116 282 0 281 -17 302 0 300 1
13 63 114 225 223 0 292 -17 116 0 287 119 281 114 113 282 0 302 +17 225 0 303 66
 292 61 302 223 0 304 +17 292 0 303 225 293 114 119 284 0 0 -15 303 481 0 66 305
 0 17 293 0 303 292 66 117 222 220 0 288 -17 66 0 303 293 225 64 304 202 0 222 +
17 222 0 294 69 288 64 293 220 0 296 +17 296 0 306 304 298 64 69 204 0 0 -15 306
 274 0 298 248 307 17 304 0 306 60 296 61 66 202 0 0 -17 298 0 306 296 60 67 199
 197 0 0 -17 60 0 306 298 304 58 63 200 0 227 -14 255 248 260 308 ?0 128 309 5 3
10 -0 0 0 128 23 15 307 275 0 311 248 0 17 311 0 307 86 72 21 208 206 0 0 -17 86
 0 307 80 311 75 83 87 0 0 -17 72 0 307 311 80 70 74 137 0 24 -17 208 0 312 133
 88 70 311 206 0 0 +15 312 477 0 208 15 0 17 133 0 312 131 208 123 24 10 0 0 -17
 88 0 312 208 131 21 35 213 0 311 +17 131 0 312 88 133 11 31 132 0 0 -17 35 0 85
 33 83 11 88 213 0 131 -15 85 471 0 83 313 0 17 33 0 85 82 35 28 27 34 0 0 -17 8
2 0 85 83 33 75 78 138 0 86 +14 313 472 314 ?128 17 85 5 315 -0 0 128 17 23 81 1
 314 849 316 313 317 0 308 318 319 14 128 1 318 ?248 313 320 5 321 +0 0 248 313
 23 14 17 540 322 ?313 323 324 5 6 +0 0 313 323 23 51 315 543 0 313 310 325 0 +.
004 .00983102672969615 .0453551336484807 -1 0 0 .0013 0 0 1 13 23 165 0 0 0 0 0
 0 9 15 14 15 478 326 ?136 0 312 5 327 -0 0 136 0 23 81 1 326 852 316 15 328 0 3
22 329 330 14 136 476 329 ?140 15 134 5 331 -0 0 140 15 23 50 255 327 546 0 15 3
31 332 0 +.004 0 .0440551336484807 0 0 -1 -1 0 0 51 331 545 0 136 325 327 0 +.00
4 .00483102672969615 .0453551336484807 -1 0 0 .0013 0 0 1 51 332 547 0 295 327 3
33 0 +.004 .00983102672969615 .0548551336484807 -1 0 0 .0013 0 0 1 14 295 480 33
4 ?335 336 294 5 332 -0 0 335 336 23 50 333 548 0 305 332 337 0 +.004 -779309029
093077e-31 .0561551336484807 0 -1387778780781446e-30 1 0 -1 -1387778780781446e-3
0 14 305 482 338 ?245 301 303 5 333 -0 0 245 301 23 51 337 549 0 301 333 339 0 +
.004 .00483102672969615 .0548551336484807 -1 0 0 .0013 0 0 1 14 301 484 340 ?305
 299 300 5 337 -0 0 305 299 23 50 339 550 0 299 337 341 0 +.004 0 .0535551336484
807 0 0 -1 -1 0 0 14 299 486 342 ?301 140 297 5 339 -0 0 301 140 23 51 341 551 0
 335 339 343 0 -.004 0 0 -1 0 0 .003 0 0 1 14 335 488 344 ?345 295 346 5 341 +0
 0 345 295 23 51 343 552 0 345 341 347 0 -.004 .034406 .0491551336484807 -1 0 0
 .0085 0 0 1 14 345 492 348 ?349 335 350 5 343 +0 0 349 335 23 50 347 553 0 349
 343 351 0 +.004 178428700386186e-32 -.012 0 148690583655155e-30 -1 0 1 14869058
3655155e-30 14 349 496 352 ?353 345 354 5 347 +0 0 353 345 23 50 351 554 0 336 3
47 355 0 +.004 -.07 0 0 1 0 0 0 1 14 336 498 356 ?295 259 357 5 351 -0 0 295 259
 23 50 355 555 0 259 351 358 0 +.004 -4064411854357745e-33 .0611551336484807 0 6
64606814158883e-31 -1 0 1 664606814158883e-31 14 259 500 359 ?336 251 255 5 355
 -0 0 336 251 23 51 358 556 0 251 355 360 0 +.004 .034406 .0491551336484807 -1 0
 0 .012 0 0 1 14 251 502 361 ?259 242 236 5 358 +0 0 259 242 23 50 360 557 0 242
 358 362 0 +.004 .00983102672969615 -.0068812 0 .819252227474679 -.5734333333333
33 0 .573433333333333 .819252227474679 14 242 504 363 ?251 245 240 5 360 +0 0 25
1 245 23 51 362 558 0 245 360 364 0 +.004 0 0 -1 0 0 .012 0 0 1 14 245 506 365 ?
242 305 92 5 362 +0 0 242 305 23 51 364 559 0 353 362 366 0 -.004 -.031819805153
39465 .03181980515339465 -1 0 0 .011 0 0 1 14 353 508 367 ?368 349 369 5 364 +0
 0 368 349 23 51 366 560 0 368 364 370 0 -.004 -.062 -.002 -1 0 0 .0015 0 0 1 14
 368 512 371 ?372 353 373 5 366 +0 0 372 353 23 51 370 561 0 372 366 374 0 -.004
 -.062 .008 -1 0 0 .0015 0 0 1 14 372 516 375 ?376 368 377 5 370 +0 0 376 368 23
 51 374 562 0 376 370 378 0 -.004 -.062 .0411551336484807 -1 0 0 .0015 0 0 1 14
 376 520 379 ?380 372 381 5 374 +0 0 380 372 23 51 378 563 0 380 374 382 0 -.004
 -.062 .0511551336484807 -1 0 0 .0015 0 0 1 14 380 524 383 ?384 376 385 5 378 +0
 0 384 376 23 51 382 564 0 384 378 386 0 -.004 -.01631980515339465 .016319805153
39465 -1 0 0 .0015 0 0 1 14 384 528 387 ?388 380 389 5 382 +0 0 388 380 23 51 38
6 565 0 388 382 18 0 -.004 -.0473198051466054 .01631980515339385 -1 0 0 .0015 0
 0 1 14 388 532 390 ?323 384 391 5 386 +0 0 323 384 23 51 18 566 0 323 386 6 0 -
.004 -.0473198051466061 .0473198051466046 -1 0 0 .0015 0 0 1 14 323 536 392 ?17
 388 393 5 18 +0 0 17 388 23 81 1 392 873 316 323 394 0 390 395 396 15 393 535 0
 397 323 398 17 397 0 393 397 397 0 399 400 0 0 +15 398 537 0 401 323 0 17 401 0
 398 401 401 0 151 149 0 0 -17 151 0 402 151 151 0 401 149 0 0 +15 402 263 0 151
 248 403 15 403 264 0 154 248 404 17 154 0 403 154 154 0 405 152 0 0 +15 404 265
 0 157 248 406 17 157 0 404 157 157 0 407 155 0 0 +15 406 266 0 160 248 408 17 1
60 0 406 160 160 0 409 158 0 0 +15 408 267 0 163 248 410 17 163 0 408 163 163 0
 411 161 0 0 +15 410 268 0 166 248 412 17 166 0 410 166 166 0 413 164 0 0 +15 41
2 269 0 169 248 414 17 169 0 412 169 169 0 415 167 0 0 +15 414 270 0 172 248 246
 17 172 0 414 172 172 0 416 170 0 0 +17 416 0 417 416 416 0 172 170 0 0 -15 417
 509 0 416 353 0 17 415 0 418 415 415 0 169 167 0 0 -15 418 513 0 415 368 0 17 4
13 0 419 413 413 0 166 164 0 0 -15 419 517 0 413 372 0 17 411 0 420 411 411 0 16
3 161 0 0 -15 420 521 0 411 376 0 17 409 0 421 409 409 0 160 158 0 0 -15 421 525
 0 409 380 0 17 407 0 422 407 407 0 157 155 0 0 -15 422 529 0 407 384 0 17 405 0
 423 405 405 0 154 152 0 0 -15 423 533 0 405 388 0 17 399 0 424 399 399 0 397 40
0 0 0 -16 400 22 0 ?397 425 212 426 0 0 1 16 425 26 0 ?427 428 400 429 0 0 1 16
 212 18 0 ?430 400 87 431 0 0 1 31 426 23 0 400 431 429 0 +.004 -.04731980514660
61 .0473198051466046 1 0 0 0 0 -1 .0015 31 431 19 0 212 0 426 0 +.004 -.01631980
515339535 .0473198051466052 1 0 0 0 0 -1 .0015 31 429 27 0 425 426 432 0 +.004 -
.0473198051466054 .01631980515339385 1 0 0 0 0 -1 .0015 31 432 31 0 428 429 433
 0 +.004 -.01631980515339465 .01631980515339465 1 0 0 0 0 -1 .0015 16 428 30 0 ?
434 435 425 432 0 0 1 31 433 35 0 435 432 436 0 +.004 -.062 .0511551336484807 1
 0 0 0 0 -1 .0015 16 435 34 0 ?437 438 428 433 0 0 1 31 436 39 0 438 433 439 0 +
.004 -.062 .0411551336484807 1 0 0 0 0 -1 .0015 16 438 38 0 ?440 441 435 436 0 0
 1 31 439 43 0 441 436 442 0 +.004 -.062 .008 1 0 0 0 0 -1 .0015 16 441 42 0 ?44
3 444 438 439 0 0 1 31 442 47 0 444 439 445 0 +.004 -.062 -.002 1 0 0 0 0 -1 .00
15 16 444 46 0 ?446 447 441 442 0 0 1 31 445 51 0 447 442 267 0 +.004 -.03181980
515339465 .03181980515339465 1 0 0 0 0 -1 .011 16 447 50 0 ?448 265 444 445 0 0
 1 31 267 55 0 265 445 266 0 -.004 0 0 1 0 0 0 0 -1 .012 16 265 54 0 ?93 244 447
 267 0 0 1 17 93 0 92 57 89 108 95 265 0 449 +17 95 0 260 243 449 84 93 265 0 24
1 -17 449 0 260 95 107 108 272 270 0 0 -17 107 0 260 449 257 105 104 261 0 450 +
17 272 0 354 54 110 105 449 270 0 0 +15 354 495 0 247 349 0 17 54 0 354 247 272
 52 450 229 0 187 +17 110 0 354 272 247 108 57 142 0 93 -17 247 0 354 110 54 55
 190 188 0 0 -17 190 0 246 51 175 52 247 188 0 0 +17 51 0 246 250 190 49 187 185
 0 233 -17 187 0 357 450 233 52 51 185 0 190 +17 233 0 357 187 104 49 256 231 0
 184 +15 357 497 0 187 336 0 17 104 0 357 233 450 102 107 261 0 257 -17 184 0 25
5 256 48 49 250 182 0 0 +17 450 0 357 104 187 105 54 229 0 272 -17 448 0 369 448
 448 0 451 447 0 0 +15 369 507 0 448 353 417 17 451 0 452 451 451 0 448 447 0 0
 -15 452 12 0 451 128 260 17 446 0 373 446 446 0 453 444 0 0 +15 373 511 0 446 3
68 418 17 453 0 454 453 453 0 446 444 0 0 -15 454 11 0 453 128 452 17 443 0 377
 443 443 0 455 441 0 0 +15 377 515 0 443 372 419 17 455 0 456 455 455 0 443 441
 0 0 -15 456 10 0 455 128 454 17 440 0 381 440 440 0 457 438 0 0 +15 381 519 0 4
40 376 420 17 457 0 458 457 457 0 440 438 0 0 -15 458 9 0 457 128 456 17 437 0 3
85 437 437 0 459 435 0 0 +15 385 523 0 437 380 421 17 459 0 460 459 459 0 437 43
5 0 0 -15 460 8 0 459 128 458 17 434 0 389 434 434 0 461 428 0 0 +15 389 527 0 4
34 384 422 17 461 0 462 461 461 0 434 428 0 0 -15 462 7 0 461 128 460 17 430 0 3
24 430 430 0 463 212 0 0 +15 324 539 0 430 17 464 17 463 0 320 463 463 0 430 212
 0 0 -15 320 4 0 463 128 424 15 424 5 0 399 128 465 15 465 6 0 466 128 462 17 46
6 0 465 466 466 0 427 425 0 0 -17 427 0 391 427 427 0 466 425 0 0 +15 391 531 0
 427 388 423 15 464 541 0 467 17 0 17 467 0 464 467 467 0 148 146 0 0 -17 148 0
 309 148 148 0 467 146 0 0 +15 309 262 0 148 248 402 80 255 1 316 468 469 9000 1
 1 1 1 1 1 1 1 0 FFFFTFTFFFFFFF1 81 1 394 785 470 323 0 392 471 472 473 81 1 390
 872 316 388 471 0 387 392 474 81 1 395 874 316 140 475 0 392 0 476 82 255 1 396
 2124939428 14 140 474 395 ?299 136 77 5 325 -0 0 299 136 23 81 1 475 765 470 14
0 0 395 477 478 479 82 1 476 2119565476 80 1 470 0 480 8001 0 0 0 0 3 5 0 0 0 FF
FFTFTFFFFFFF2 81 1 477 764 470 136 0 329 328 475 481 81 1 478 766 470 299 0 342
 475 482 483 83 255 3 479 1 1 1 81 1 342 857 316 299 478 0 340 344 484 81 1 482
 767 470 301 0 340 478 485 486 83 3 483 1 1 1 81 1 340 856 316 301 482 0 338 342
 487 81 1 485 768 470 305 0 338 482 488 489 83 3 486 1 1 1 81 1 338 855 316 305
 485 0 334 340 490 81 1 488 769 470 245 0 365 485 491 492 83 3 489 1 1 1 81 1 36
5 865 316 245 488 0 363 367 493 81 1 491 770 470 242 0 363 488 494 495 83 3 492
 1 1 1 81 1 363 864 316 242 491 0 361 365 496 81 1 494 771 470 251 0 361 491 497
 498 83 3 495 1 1 1 81 1 361 863 316 251 494 0 359 363 499 81 1 497 772 470 259
 0 359 494 500 501 83 3 498 1 1 1 81 1 359 862 316 259 497 0 356 361 502 81 1 50
0 773 470 336 0 356 497 503 504 83 3 501 1 1 1 81 1 356 861 316 336 500 0 352 35
9 505 81 1 503 774 470 295 0 334 500 506 507 83 3 504 1 1 1 81 1 334 854 316 295
 503 0 329 338 508 81 1 506 775 470 335 0 344 503 509 510 83 3 507 1 1 1 81 1 34
4 858 316 335 506 0 342 348 511 81 1 509 776 470 345 0 348 506 512 513 83 3 510
 1 1 1 81 1 348 859 316 345 509 0 344 352 514 81 1 512 777 470 349 0 352 509 515
 516 83 3 513 1 1 1 81 1 352 860 316 349 512 0 348 356 517 81 1 515 778 470 353
 0 367 512 518 519 83 3 516 1 1 1 81 1 367 866 316 353 515 0 365 371 520 81 1 51
8 779 470 368 0 371 515 521 522 83 3 519 1 1 1 81 1 371 867 316 368 518 0 367 37
5 523 81 1 521 780 470 372 0 375 518 524 525 83 3 522 1 1 1 81 1 375 868 316 372
 521 0 371 379 526 81 1 524 781 470 376 0 379 521 527 528 83 3 525 1 1 1 81 1 37
9 869 316 376 524 0 375 383 529 81 1 527 782 470 380 0 383 524 530 531 83 3 528
 1 1 1 81 1 383 870 316 380 527 0 379 387 532 81 1 530 783 470 384 0 387 527 471
 533 83 3 531 1 1 1 81 1 387 871 316 384 530 0 383 390 534 81 1 471 784 470 388
 0 390 530 394 535 83 3 533 1 1 1 83 3 535 1 1 1 82 1 534 2124415140 82 1 532 21
24152996 82 1 529 2123890852 82 1 526 2123628708 82 1 523 2123366564 82 1 520 21
23104420 82 1 517 2121924772 82 1 514 2121662628 82 1 511 2121400484 81 1 329 85
3 316 136 477 0 326 334 536 82 1 508 2120351908 82 1 536 2119827620 82 1 505 212
2055844 82 1 502 2122383524 82 1 499 2122645668 82 1 496 2122842276 82 1 493 212
2973348 82 1 490 2120614052 82 1 487 2120876196 82 1 484 2121138340 81 1 328 763
 470 15 0 326 0 477 537 83 3 481 1 1 1 83 3 537 1 1 1 79 255 15 480 SDL/TYSA_COL
OUR50 325 544 0 140 315 331 0 +.004 -647470044918839e-31 .0466551336484807 0 -13
87778780781446e-30 1 0 -1 -1387778780781446e-30 82 1 474 2124677284 81 1 472 786
 470 17 0 322 394 317 538 83 3 473 1 1 1 81 1 322 851 316 17 472 0 318 326 539 8
1 1 317 787 470 313 0 314 472 540 541 83 3 538 1 1 1 81 1 540 788 470 128 0 318
 317 542 543 83 3 541 1 1 1 81 1 318 850 316 128 540 0 314 322 544 81 1 542 789
 470 248 0 308 540 0 545 83 3 543 1 1 1 81 1 308 848 316 248 542 0 0 314 546 83
 3 545 1 1 1 82 1 546 2112815268 82 1 544 2080702628 82 1 539 2125201572 79 14 4
69 SWEntUnchanged15 350 491 0 275 345 547 17 275 0 350 275 275 0 548 273 0 0 +15
 547 493 0 549 345 0 17 549 0 547 549 549 0 193 191 0 0 -17 193 0 249 193 193 0
 549 191 0 0 +15 249 272 0 193 248 550 15 550 273 0 196 248 306 17 196 0 550 196
 196 0 551 194 0 0 +17 551 0 552 551 551 0 196 194 0 0 -15 552 489 0 551 335 0 1
7 548 0 263 548 548 0 275 273 0 0 -15 263 14 0 548 128 553 15 553 15 0 554 128 2
87 17 554 0 553 554 554 0 278 276 0 0 -17 278 0 346 278 278 0 554 276 0 0 +15 34
6 487 0 278 335 552 82 1 330 2120089764 50 310 417 0 248 321 315 0 +0 0 0 1 0 0
 0 0 -1 50 321 2 0 128 0 310 0 +.004 0 0 1 0 0 0 0 -1 82 1 319 2119303332 17 24
 0 134 74 124 70 133 10 0 208 +17 80 0 307 72 86 73 76 81 0 0 -17 96 0 240 241 2
39 90 45 235 0 243 -19 16 583 0 1 0 9 5 S0 74 4 CI16 index_map_offset0 0 1 dCCZ2
0 14 3 0 0 395 2 542 0 0 0 0 0 0 0 0 0 0 0 0 0 0 0 0 0 80 2 12 555 556 8004 0 0
 0 0 3 5 0 0 0 FFTFFFFFFFFFFF2 3 83 1 13 1e3 79 16 556 SDL/TYSA_DENSITY1 0 
