**ABCDEFGHIJKLMNOPQRSTUVWXYZabcdefghijklmnopqrstuvwxyz**************************
**PARASOLID !"#$%&'()*+,-./:;<=>?@[\]^_`{|}~0123456789**************************
**PART1;
MC=AMD64;
MC_MODEL=Intel64 Family 6 Model 142 Stepping 9, GenuineIntel;
MC_ID=unknown;
OS=Windows_NT;
OS_RELEASE=unknown;
FRU=Parasolid Version 28.0, build 174,  7- 3-2015;
APPL=SOLIDWORKS 2016-2015266;
SITE=;
USER=unknown;
FORMAT=text;
GUISE=transmit;
KEY=1009;
FILE=1009.x_t;
DATE=Sat Oct 06 20:51:02 2018;
**PART2;
SCH=SCH_2800174_28002;
USFLD_SIZE=0;
**PART3;
**END_OF_HEADER*****************************************************************
T51 : TRANSMIT FILE created by modeller version 280017423 SCH_2800174_28002_1300
6200 0 12 30 CCCCCCCCCCCCCDI5 owner1040 0 CCCCCCCCCA13 boundary_mesh1006 0 A16 i
ndex_map_offset0 0 1 dA9 index_map82 0 A17 node_id_index_map82 0 A20 schema_embe
dding_map82 0 A5 child12 0 A14 lowest_node_id0 0 1 dZ1 963 2 3 0 0 0 0 1e3 1e-8
 0 4 0 1 0 1 1 5 6 7 8 9 10 11 0 0 0 0 0 0 0 81 255 2 2 836 12 1 0 0 0 0 13 0 70
 11 CI9 list_type0 0 1 uI10 notransmit0 0 1 lCCCDCCDI12 finger_index0 0 1 dI12 f
inger_block1012 0 CZ3 0 4 T1 0 0 3 20 1 14 14 13 255 5 194 0 1 0 15 0 0 16 0 50
 255 6 183 0 17 18 0 0 +.01 .03658 .0275 0 -1 0 0 0 -1 30 255 7 192 0 10 19 0 0
 +.01 .03658 .0475 -1 0 0 29 255 8 140 0 20 21 0 0 .03658 -.06113 19 8 CCCCCCCA5
 owner12 0 Z9 58 0 1 16 0 22 V0 16 255 10 156 0 ?23 0 24 7 0 0 1 18 255 11 55 0
 25 0 26 27 ?1 17 255 25 0 28 29 30 11 31 32 0 33 +18 26 52 0 30 11 34 35 ?1 29
 27 57 0 11 35 36 .01 .03658 -.06113 29 35 54 0 26 37 27 .01 -.03658 -.06113 29
 36 147 0 38 27 39 0 .03658 .0475 18 38 128 0 40 41 0 36 ?1 29 39 146 0 41 36 42
 0 -.03658 .0475 18 41 127 0 43 44 38 39 ?1 29 42 145 0 44 39 45 0 -.03658 .0325
 18 44 126 0 46 47 41 42 ?1 29 45 144 0 47 42 48 0 -.07358 .0325 18 47 125 0 49
 50 44 45 ?1 29 48 143 0 50 45 51 0 -.07358 -.04613 18 50 124 0 52 53 47 48 ?1 2
9 51 142 0 53 48 21 0 -.03658 -.04613 18 53 123 0 54 55 50 51 ?1 29 21 141 0 55
 51 8 0 -.03658 -.06113 18 55 122 0 56 20 53 21 ?1 17 56 0 57 58 59 55 60 61 0 6
2 +18 20 121 0 63 64 55 8 ?1 17 63 0 65 66 67 20 40 68 0 69 -18 64 34 0 29 70 20
 71 ?1 17 29 0 28 72 25 64 73 74 0 75 +18 70 37 0 72 76 64 77 ?1 29 71 36 0 64 0
 77 .01 .03658 .0475 29 77 39 0 70 71 78 .01 -.03658 .0475 29 78 42 0 76 77 79 .
01 -.03658 .0325 18 76 40 0 80 81 70 78 ?1 29 79 45 0 81 78 82 .01 -.07358 .0325
 18 81 43 0 83 84 76 79 ?1 29 82 48 0 84 79 37 .01 -.07358 -.04613 18 84 46 0 85
 34 81 82 ?1 29 37 51 0 34 82 35 .01 -.03658 -.04613 18 34 49 0 86 26 84 37 ?1 1
7 86 0 28 30 85 34 87 88 0 89 +15 255 28 3 0 29 15 90 17 30 0 28 25 86 26 91 92
 0 58 +17 85 0 28 86 83 84 93 94 0 95 +17 87 0 96 97 89 84 86 88 0 0 -16 88 22 0
 ?86 92 94 98 0 0 1 17 89 0 96 87 54 34 59 99 0 91 -15 96 162 0 54 100 0 17 54 0
 96 89 97 53 101 102 0 59 +17 59 0 57 56 91 53 89 99 0 60 +16 99 151 0 ?59 103 1
04 105 0 0 1 17 91 0 57 59 58 34 30 92 0 0 -15 57 160 0 56 106 0 17 58 0 57 91 5
6 26 62 104 0 31 -16 92 25 0 ?30 32 88 107 0 0 1 16 32 28 0 ?25 108 92 109 0 0 1
 30 107 26 0 92 98 109 0 +.01 -.03658 -.04613 0 0 -1 30 98 23 0 88 110 107 0 +.0
1 -.07358 -.04613 0 1 1875376730785735e-31 30 109 29 0 32 107 111 0 +.01 -.03658
 -.06113 0 1 0 30 111 138 0 68 109 112 0 +0 .03658 .0275 0 0 1 16 68 113 0 ?40 1
13 114 111 0 0 1 30 112 137 0 113 111 115 0 +0 .03658 .0475 0 -1 -94845460687633
e-30 16 113 109 0 ?43 116 68 112 0 0 1 30 115 136 0 116 112 117 0 +0 -.03658 .04
75 0 0 -1 16 116 105 0 ?46 118 113 115 0 0 1 30 117 135 0 118 115 119 0 +0 -.036
58 .0325 0 -1 -1875376730785735e-31 16 118 101 0 ?49 120 116 117 0 0 1 30 119 13
4 0 120 117 121 0 +0 -.07358 .0325 0 0 -1 16 120 97 0 ?52 102 118 119 0 0 1 30 1
21 133 0 102 119 122 0 +0 -.07358 -.04613 0 1 1875376730785735e-31 16 102 93 0 ?
54 61 120 121 0 0 1 30 122 132 0 61 121 123 0 +0 -.03658 -.04613 0 0 -1 16 61 89
 0 ?56 124 102 122 0 0 1 30 123 131 0 124 122 125 0 +0 -.03658 -.06113 0 1 0 16
 124 85 0 ?69 74 61 123 0 0 1 30 125 185 0 108 123 126 0 +.01 .03658 -.06113 -1
 0 0 16 108 149 0 ?127 104 32 125 0 0 1 30 126 186 0 104 125 105 0 +.01 -.03658
 -.06113 -1 0 0 16 104 150 0 ?62 99 108 126 0 0 1 30 105 187 0 99 126 128 0 +.01
 -.03658 -.04613 -1 0 0 30 128 188 0 103 105 129 0 +.01 -.07358 -.04613 -1 0 0 1
6 103 152 0 ?97 130 99 128 0 0 1 30 129 189 0 130 128 131 0 +.01 -.07358 .0325 -
1 0 0 16 130 153 0 ?132 133 103 129 0 0 1 30 131 190 0 133 129 19 0 +.01 -.03658
 .0325 -1 0 0 16 133 154 0 ?134 24 130 131 0 0 1 30 19 191 0 24 131 7 0 +.01 -.0
3658 .0475 -1 0 0 16 24 155 0 ?135 10 133 19 0 0 1 17 135 0 136 46 137 41 138 24
 0 139 +15 136 168 0 46 140 0 17 46 0 136 141 135 44 139 116 0 134 +17 137 0 136
 135 141 70 80 142 0 0 -17 138 0 143 144 43 70 135 24 0 137 -17 139 0 65 67 145
 41 46 116 0 0 -15 65 84 0 63 146 147 17 67 0 65 63 139 38 43 113 0 0 -17 145 0
 65 139 148 44 49 118 0 0 -17 148 0 65 145 101 47 52 120 0 0 -17 49 0 149 150 13
4 47 145 118 0 132 +15 149 166 0 49 151 0 17 150 0 149 152 49 81 132 130 0 93 -1
7 134 0 149 49 152 44 141 133 0 145 +17 132 0 153 52 93 47 150 130 0 148 +15 153
 164 0 52 154 0 17 52 0 153 95 132 50 148 120 0 97 +17 93 0 153 132 95 81 85 94
 0 0 -17 95 0 153 93 52 84 97 103 0 87 -16 94 19 0 ?85 88 155 110 0 0 1 16 155 1
6 0 ?83 94 142 156 0 0 1 30 110 20 0 94 156 98 0 +.01 -.07358 .0325 0 0 -1 30 15
6 17 0 155 157 110 0 +.01 -.03658 .0325 0 -1 -1875376730785735e-31 30 157 14 0 1
42 158 156 0 +.01 -.03658 .0475 0 0 -1 16 142 13 0 ?80 155 159 157 0 0 1 30 158
 11 0 159 160 157 0 +.01 .03658 .0475 0 -1 -94845460687633e-30 16 159 10 0 ?72 1
42 74 158 0 0 1 30 160 5 0 74 161 158 0 +.01 .03658 -.06113 0 -15658115545317e-2
9 1 16 74 4 0 ?29 159 124 160 0 0 1 31 255 161 257 0 162 163 160 0 +0 .02658 .03
75 1 0 0 0 0 -1 .0015 16 162 235 0 ?164 114 165 161 0 0 1 31 163 258 0 114 166 1
61 0 +.01 .02658 .0375 1 0 0 0 0 -1 .0015 16 114 238 0 ?167 68 162 163 0 0 1 31
 166 295 0 168 169 163 0 +0 .01658 .0175 1 0 0 0 0 -1 .0015 16 168 273 0 ?170 16
5 171 166 0 0 1 31 169 296 0 165 172 166 0 +.01 .01658 .0175 1 0 0 0 0 -1 .0015
 16 165 276 0 ?173 162 168 169 0 0 1 31 172 333 0 174 175 169 0 +0 .01658 -.0311
3 1 0 0 0 0 -1 .0015 16 174 311 0 ?176 171 177 172 0 0 1 31 175 334 0 171 178 17
2 0 +.01 .01658 -.03113 1 0 0 0 0 -1 .0015 16 171 314 0 ?179 168 174 175 0 0 1 3
1 178 371 0 180 181 175 0 +0 .02658 -.05113 1 0 0 0 0 -1 .0015 16 180 349 0 ?182
 177 183 178 0 0 1 31 181 372 0 177 184 178 0 +.01 .02658 -.05113 1 0 0 0 0 -1 .
0015 16 177 352 0 ?185 174 180 181 0 0 1 31 184 409 0 186 187 181 0 +0 -.02658 .
03749999999999945 1 0 0 0 0 -1 .0015 16 186 387 0 ?188 183 189 184 0 0 1 31 187
 410 0 183 190 184 0 +.01 -.02658 .03749999999999945 1 0 0 0 0 -1 .0015 16 183 3
90 0 ?191 180 186 187 0 0 1 31 190 447 0 192 193 187 0 +0 -.01658 .0174999999999
9965 1 0 0 0 0 -1 .0015 16 192 425 0 ?194 189 195 190 0 0 1 31 193 448 0 189 196
 190 0 +.01 -.01658 .01749999999999965 1 0 0 0 0 -1 .0015 16 189 428 0 ?197 186
 192 193 0 0 1 31 196 485 0 198 199 193 0 +0 -.01658 -.03113000000000035 1 0 0 0
 0 -1 .0015 16 198 463 0 ?200 195 201 196 0 0 1 31 199 486 0 195 202 196 0 +.01
 -.01658 -.03113000000000035 1 0 0 0 0 -1 .0015 16 195 466 0 ?203 192 198 199 0
 0 1 31 202 523 0 204 205 199 0 +0 -.02658 -.0511300000000006 1 0 0 0 0 -1 .0015
 16 204 501 0 ?206 201 207 202 0 0 1 31 205 524 0 201 208 202 0 +.01 -.02658 -.0
511300000000006 1 0 0 0 0 -1 .0015 16 201 504 0 ?209 198 204 205 0 0 1 31 208 56
1 0 210 211 205 0 +0 -.0295 .008685 1 0 0 0 0 -1 .0015 16 210 539 0 ?212 207 213
 208 0 0 1 31 211 562 0 207 214 208 0 +.01 -.0295 .008685 1 0 0 0 0 -1 .0015 16
 207 542 0 ?215 204 210 211 0 0 1 31 214 599 0 216 217 211 0 +0 -.0295 -.022315
 1 0 0 0 0 -1 .0015 16 216 577 0 ?218 213 219 214 0 0 1 31 217 600 0 213 220 214
 0 +.01 -.0295 -.022315 1 0 0 0 0 -1 .0015 16 213 580 0 ?221 210 216 217 0 0 1 3
1 220 637 0 222 223 217 0 +0 -.0605 .008685 1 0 0 0 0 -1 .0015 16 222 615 0 ?224
 219 225 220 0 0 1 31 223 638 0 219 226 220 0 +.01 -.0605 .008685 1 0 0 0 0 -1 .
0015 16 219 618 0 ?227 216 222 223 0 0 1 31 226 675 0 228 229 223 0 +0 -.0605 -.
022315 1 0 0 0 0 -1 .0015 16 228 653 0 ?230 225 231 226 0 0 1 31 229 676 0 225 2
32 226 0 +.01 -.0605 -.022315 1 0 0 0 0 -1 .0015 16 225 656 0 ?233 222 228 229 0
 0 1 31 232 713 0 234 235 229 0 +0 143323231953323e-32 -.00681500000000017 1 0 0
 0 0 -1 .0085 16 234 691 0 ?236 231 237 232 0 0 1 31 235 714 0 231 238 232 0 +.0
1 143323231953323e-32 -.00681500000000017 1 0 0 0 0 -1 .0085 16 231 694 0 ?239 2
28 234 235 0 0 1 31 238 751 0 240 241 235 0 +0 -.045 -.006815 1 0 0 0 0 -1 .011
 16 240 729 0 ?242 237 0 238 0 0 1 31 241 752 0 237 0 238 0 +.01 -.045 -.006815
 1 0 0 0 0 -1 .011 16 237 732 0 ?243 234 240 241 0 0 1 17 243 0 244 243 243 0 24
5 237 0 0 +15 244 738 0 243 246 247 17 245 0 248 245 245 0 243 237 0 0 -15 248 7
23 0 245 15 0 14 255 15 726 249 ?146 0 250 5 251 +0 0 146 0 22 81 1 249 940 252
 15 253 0 0 254 255 14 146 720 254 ?17 15 65 5 256 -0 0 17 15 22 15 250 685 0 25
7 15 258 50 251 2 0 15 259 256 0 +.01 0 0 1 0 0 0 0 -1 13 22 59 0 0 0 0 0 0 9 15
 51 255 259 254 0 260 261 251 0 -.01 .02658 .0375 -1 0 0 .0015 0 0 1 50 256 130
 0 146 251 262 0 +0 0 0 1 0 0 0 0 -1 50 262 176 0 263 256 264 0 +.01 -.03658 -.0
6113 0 0 1 1 0 0 14 263 159 265 ?260 106 266 5 262 -0 0 260 106 22 50 264 177 0
 106 262 267 0 +.01 -.03658 -.04613 0 1 0 0 0 1 14 106 161 268 ?263 100 57 5 264
 -0 0 263 100 22 50 267 178 0 100 264 269 0 +.01 -.07358 -.04613 0 -187537673078
5735e-31 1 0 -1 -1875376730785735e-31 14 100 163 270 ?106 154 96 5 267 -0 0 106
 154 22 50 269 179 0 154 267 271 0 +.01 -.07358 .0325 0 1 0 0 0 1 14 154 165 272
 ?100 151 153 5 269 -0 0 100 151 22 50 271 180 0 151 269 273 0 +.01 -.03658 .032
5 0 1875376730785735e-31 -1 0 1 1875376730785735e-31 14 151 167 274 ?154 140 149
 5 271 -0 0 154 140 22 50 273 181 0 140 271 18 0 +.01 -.03658 .0475 0 1 0 0 0 1
 14 140 169 275 ?151 276 136 5 273 -0 0 151 276 22 50 18 182 0 276 273 6 0 +.01
 .03658 .0475 0 94845460687633e-30 -1 0 1 94845460687633e-30 14 276 171 277 ?140
 17 143 5 18 -0 0 140 17 22 81 1 277 948 252 276 278 0 275 279 280 14 17 173 279
 ?276 146 281 5 6 -0 0 276 146 22 15 143 170 0 43 276 0 17 43 0 143 138 23 41 67
 113 0 135 +17 23 0 143 43 144 38 75 10 0 67 +17 144 0 143 23 138 64 72 159 0 0
 -17 75 0 281 73 40 64 23 10 0 144 -15 281 172 0 40 17 0 17 73 0 281 127 75 11 2
9 74 0 0 -17 40 0 281 75 127 38 63 68 0 23 +17 127 0 281 40 73 20 33 108 0 0 +17
 33 0 266 31 69 11 127 108 0 73 -15 266 158 0 69 263 0 17 31 0 266 62 33 26 25 3
2 0 0 -17 69 0 266 33 62 20 66 124 0 127 +17 62 0 266 69 31 55 58 104 0 66 +17 6
6 0 65 60 63 55 69 124 0 0 -17 60 0 65 101 66 53 56 61 0 0 -17 101 0 65 148 60 5
0 54 102 0 0 -17 72 0 28 80 29 70 144 159 0 138 +17 80 0 28 83 72 76 137 142 0 1
41 +17 83 0 28 85 80 81 152 155 0 150 +17 141 0 136 137 46 76 134 133 0 152 -17
 152 0 149 134 150 76 83 155 0 0 -81 1 279 949 252 17 282 0 277 283 284 80 255 1
 252 285 286 9000 1 1 1 1 1 1 1 1 0 FFFFTFTFFFFFFF1 81 1 282 867 287 17 0 279 28
8 278 289 81 1 283 950 252 260 290 0 279 291 292 82 255 1 284 1029963967 14 260
 241 283 ?293 263 294 5 259 +0 0 293 263 22 81 1 290 875 287 260 0 283 295 296 2
97 81 1 291 951 252 293 296 0 283 298 299 82 1 292 1036386495 14 293 279 291 ?30
0 260 301 5 261 +0 0 300 260 22 81 1 296 876 287 293 0 291 290 302 303 81 1 298
 952 252 300 302 0 291 304 305 82 1 299 1040449727 14 300 317 298 ?306 293 307 5
 308 +0 0 306 293 22 81 1 302 877 287 300 0 298 296 309 310 81 1 304 953 252 306
 309 0 298 311 312 82 1 305 1044512959 14 306 355 304 ?313 300 314 5 315 +0 0 31
3 300 22 81 1 309 878 287 306 0 304 302 316 317 81 1 311 954 252 313 316 0 304 3
18 319 82 1 312 1048576191 14 313 393 311 ?320 306 321 5 322 +0 0 320 306 22 81
 1 316 879 287 313 0 311 309 323 324 81 1 318 955 252 320 323 0 311 325 326 82 1
 319 1052639423 14 320 431 318 ?327 313 328 5 329 +0 0 327 313 22 81 1 323 880 2
87 320 0 318 316 330 331 81 1 325 956 252 327 330 0 318 332 333 82 1 326 1056702
655 14 327 469 325 ?334 320 335 5 336 +0 0 334 320 22 81 1 330 881 287 327 0 325
 323 337 338 81 1 332 957 252 334 337 0 325 339 340 82 1 333 1060765887 14 334 5
07 332 ?341 327 342 5 343 +0 0 341 327 22 81 1 337 882 287 334 0 332 330 344 345
 81 1 339 958 252 341 344 0 332 346 347 82 1 340 1064829119 14 341 545 339 ?348
 334 349 5 350 +0 0 348 334 22 81 1 344 883 287 341 0 339 337 351 352 81 1 346 9
59 252 348 351 0 339 353 354 82 1 347 1068892351 14 348 583 346 ?355 341 356 5 3
57 +0 0 355 341 22 81 1 351 884 287 348 0 346 344 358 359 81 1 353 960 252 355 3
58 0 346 360 361 82 1 354 1072955583 14 355 621 353 ?362 348 363 5 364 +0 0 362
 348 22 81 1 358 885 287 355 0 353 351 365 366 81 1 360 961 252 362 365 0 353 36
7 368 82 1 361 1077018815 14 362 659 360 ?369 355 370 5 371 +0 0 369 355 22 81 1
 365 886 287 362 0 360 358 372 373 81 1 367 962 252 369 372 0 360 374 375 82 1 3
68 1081082047 14 369 697 367 ?246 362 376 5 377 +0 0 246 362 22 81 1 372 887 287
 369 0 367 365 378 379 81 1 374 963 252 246 378 0 367 0 380 82 1 375 1085145279
 14 246 735 374 ?0 369 244 5 381 +0 0 0 369 22 81 1 378 888 287 246 0 374 372 0
 382 82 1 380 1089208511 80 1 287 0 383 8001 0 0 0 0 3 5 0 0 0 FFFFTFTFFFFFFF2 8
3 255 3 382 1 1 1 79 255 15 383 SDL/TYSA_COLOUR51 381 748 0 246 0 377 0 -.01 -.0
45 -.006815 -1 0 0 .011 0 0 1 51 377 710 0 369 381 371 0 -.01 143323231953323e-3
2 -.00681500000000017 -1 0 0 .0085 0 0 1 51 371 672 0 362 377 364 0 -.01 -.0605
 -.022315 -1 0 0 .0015 0 0 1 51 364 634 0 355 371 357 0 -.01 -.0605 .008685 -1 0
 0 .0015 0 0 1 51 357 596 0 348 364 350 0 -.01 -.0295 -.022315 -1 0 0 .0015 0 0
 1 51 350 558 0 341 357 343 0 -.01 -.0295 .008685 -1 0 0 .0015 0 0 1 51 343 520
 0 334 350 336 0 -.01 -.02658 -.0511300000000006 -1 0 0 .0015 0 0 1 51 336 482 0
 327 343 329 0 -.01 -.01658 -.03113000000000035 -1 0 0 .0015 0 0 1 51 329 444 0
 320 336 322 0 -.01 -.01658 .01749999999999965 -1 0 0 .0015 0 0 1 51 322 406 0 3
13 329 315 0 -.01 -.02658 .03749999999999945 -1 0 0 .0015 0 0 1 51 315 368 0 306
 322 308 0 -.01 .02658 -.05113 -1 0 0 .0015 0 0 1 51 308 330 0 300 315 261 0 -.0
1 .01658 -.03113 -1 0 0 .0015 0 0 1 51 261 292 0 293 308 259 0 -.01 .01658 .0175
 -1 0 0 .0015 0 0 1 83 3 379 1 1 1 15 376 700 0 239 369 384 17 239 0 376 239 239
 0 257 231 0 0 +15 384 701 0 385 369 0 17 385 0 384 385 385 0 236 234 0 0 -17 23
6 0 386 236 236 0 385 234 0 0 +15 386 680 0 236 146 387 15 387 718 0 242 146 0 1
7 242 0 387 242 242 0 388 240 0 0 +17 388 0 247 388 388 0 242 240 0 0 -15 247 73
9 0 388 246 0 17 257 0 250 257 257 0 239 231 0 0 -83 3 373 1 1 1 15 370 662 0 23
3 362 389 17 233 0 370 233 233 0 390 225 0 0 +15 389 663 0 391 362 0 17 391 0 38
9 391 391 0 230 228 0 0 -17 230 0 392 230 230 0 391 228 0 0 +15 392 642 0 230 14
6 386 17 390 0 393 390 390 0 233 225 0 0 -15 393 647 0 390 15 248 83 3 366 1 1 1
 15 363 624 0 227 355 394 17 227 0 363 227 227 0 395 219 0 0 +15 394 625 0 396 3
55 0 17 396 0 394 396 396 0 224 222 0 0 -17 224 0 397 224 224 0 396 222 0 0 +15
 397 604 0 224 146 392 17 395 0 258 395 395 0 227 219 0 0 -15 258 609 0 395 15 3
98 15 398 533 0 399 15 400 17 399 0 398 399 399 0 215 207 0 0 -15 400 457 0 401
 15 402 17 401 0 400 401 401 0 203 195 0 0 -15 402 381 0 403 15 404 17 403 0 402
 403 403 0 191 183 0 0 -15 404 305 0 405 15 406 17 405 0 404 405 405 0 179 171 0
 0 -15 406 229 0 407 15 28 17 407 0 406 407 407 0 167 114 0 0 -17 167 0 294 167
 167 0 407 114 0 0 +15 294 244 0 167 260 408 15 408 245 0 409 260 0 17 409 0 408
 409 409 0 164 162 0 0 -17 164 0 147 164 164 0 409 162 0 0 +15 147 224 0 164 146
 410 15 410 262 0 170 146 411 17 170 0 410 170 170 0 412 168 0 0 +15 411 300 0 1
76 146 413 17 176 0 411 176 176 0 414 174 0 0 +15 413 338 0 182 146 415 17 182 0
 413 182 182 0 416 180 0 0 +15 415 376 0 188 146 417 17 188 0 415 188 188 0 418
 186 0 0 +15 417 414 0 194 146 419 17 194 0 417 194 194 0 420 192 0 0 +15 419 45
2 0 200 146 421 17 200 0 419 200 200 0 422 198 0 0 +15 421 490 0 206 146 423 17
 206 0 421 206 206 0 424 204 0 0 +15 423 528 0 212 146 425 17 212 0 423 212 212
 0 426 210 0 0 +15 425 566 0 218 146 397 17 218 0 425 218 218 0 427 216 0 0 +17
 427 0 428 427 427 0 218 216 0 0 -15 428 587 0 427 348 0 17 426 0 429 426 426 0
 212 210 0 0 -15 429 549 0 426 341 0 17 424 0 430 424 424 0 206 204 0 0 -15 430
 511 0 424 334 0 17 422 0 431 422 422 0 200 198 0 0 -15 431 473 0 422 327 0 17 4
20 0 432 420 420 0 194 192 0 0 -15 432 435 0 420 320 0 17 418 0 433 418 418 0 18
8 186 0 0 -15 433 397 0 418 313 0 17 416 0 434 416 416 0 182 180 0 0 -15 434 359
 0 416 306 0 17 414 0 435 414 414 0 176 174 0 0 -15 435 321 0 414 300 0 17 412 0
 436 412 412 0 170 168 0 0 -15 436 283 0 412 293 0 17 179 0 307 179 179 0 405 17
1 0 0 +15 307 320 0 179 300 435 17 191 0 321 191 191 0 403 183 0 0 +15 321 396 0
 191 313 433 17 203 0 335 203 203 0 401 195 0 0 +15 335 472 0 203 327 431 17 215
 0 349 215 215 0 399 207 0 0 +15 349 548 0 215 341 429 83 3 359 1 1 1 15 356 586
 0 221 348 428 17 221 0 356 221 221 0 437 213 0 0 +17 437 0 438 437 437 0 221 21
3 0 0 -15 438 571 0 437 15 393 83 3 352 1 1 1 83 3 345 1 1 1 15 342 510 0 209 33
4 430 17 209 0 342 209 209 0 439 201 0 0 +17 439 0 440 439 439 0 209 201 0 0 -15
 440 495 0 439 15 438 83 3 338 1 1 1 83 3 331 1 1 1 15 328 434 0 197 320 432 17
 197 0 328 197 197 0 441 189 0 0 +17 441 0 442 441 441 0 197 189 0 0 -15 442 419
 0 441 15 440 83 3 324 1 1 1 83 3 317 1 1 1 15 314 358 0 185 306 434 17 185 0 31
4 185 185 0 443 177 0 0 +17 443 0 444 443 443 0 185 177 0 0 -15 444 343 0 443 15
 442 83 3 310 1 1 1 83 3 303 1 1 1 15 301 282 0 173 293 436 17 173 0 301 173 173
 0 445 165 0 0 +17 445 0 90 445 445 0 173 165 0 0 -15 90 267 0 445 15 444 81 1 2
95 874 287 263 0 265 446 290 447 83 3 297 1 1 1 81 1 265 942 252 263 295 0 254 2
68 448 81 1 446 873 287 106 0 268 449 295 450 83 3 447 1 1 1 81 1 268 943 252 10
6 446 0 265 270 451 81 1 449 872 287 100 0 270 452 446 453 83 3 450 1 1 1 81 1 2
70 944 252 100 449 0 268 272 454 81 1 452 871 287 154 0 272 455 449 456 83 3 453
 1 1 1 81 1 272 945 252 154 452 0 270 274 457 81 1 455 870 287 151 0 274 458 452
 459 83 3 456 1 1 1 81 1 274 946 252 151 455 0 272 275 460 81 1 458 869 287 140
 0 275 278 455 461 83 3 459 1 1 1 81 1 275 947 252 140 458 0 274 277 462 81 1 27
8 868 287 276 0 277 282 458 463 83 3 461 1 1 1 83 3 463 1 1 1 82 1 462 102943967
9 82 1 460 1029177535 82 1 457 1028915391 82 1 454 1028653247 82 1 451 102839110
3 81 1 254 941 252 146 288 0 249 265 464 82 1 448 1028128959 81 1 288 866 287 14
6 0 254 253 282 465 82 1 464 1107951807 81 1 253 865 287 15 0 249 0 288 466 83 3
 465 1 1 1 83 3 466 1 1 1 83 3 289 1 1 1 79 14 286 SWEntUnchanged82 1 280 102970
1823 82 1 255 1108476095 17 97 0 96 54 87 50 95 103 0 101 +19 16 195 0 1 0 9 5 S
0 74 4 CI16 index_map_offset0 0 1 dCCZ20 14 3 0 0 374 2 378 0 0 0 0 0 0 0 0 0 0
 0 0 0 0 0 0 0 80 2 12 467 468 8004 0 0 0 0 3 5 0 0 0 FFTFFFFFFFFFFF2 3 83 1 13
 1e3 79 16 468 SDL/TYSA_DENSITY1 0 
