**ABCDEFGHIJKLMNOPQRSTUVWXYZabcdefghijklmnopqrstuvwxyz**************************
**PARASOLID !"#$%&'()*+,-./:;<=>?@[\]^_`{|}~0123456789**************************
**PART1;
MC=AMD64;
MC_MODEL=Intel64 Family 6 Model 142 Stepping 9, GenuineIntel;
MC_ID=unknown;
OS=Windows_NT;
OS_RELEASE=unknown;
FRU=Parasolid Version 28.0, build 174,  7- 3-2015;
APPL=SOLIDWORKS 2016-2015266;
SITE=;
USER=unknown;
FORMAT=text;
GUISE=transmit;
KEY=1010;
FILE=1010.x_t;
DATE=Sat Oct 06 20:51:15 2018;
**PART2;
SCH=SCH_2800174_28002;
USFLD_SIZE=0;
**PART3;
**END_OF_HEADER*****************************************************************
T51 : TRANSMIT FILE created by modeller version 280017423 SCH_2800174_28002_1300
6200 0 12 30 CCCCCCCCCCCCCDI5 owner1040 0 CCCCCCCCCA13 boundary_mesh1006 0 A16 i
ndex_map_offset0 0 1 dA9 index_map82 0 A17 node_id_index_map82 0 A20 schema_embe
dding_map82 0 A5 child12 0 A14 lowest_node_id0 0 1 dZ1 518 2 3 0 0 0 0 1e3 1e-8
 0 4 0 1 0 1 1 5 6 7 8 9 10 11 0 0 0 0 0 0 0 81 255 2 2 437 12 1 0 0 0 0 13 0 70
 11 CI9 list_type0 0 1 uI10 notransmit0 0 1 lCCCDCCDI12 finger_index0 0 1 dI12 f
inger_block1012 0 CZ3 0 4 T1 0 0 3 20 1 14 14 13 255 5 174 0 1 0 15 0 0 16 0 51
 255 6 165 0 17 18 0 0 -.002 0 0 -1 0 0 .0105 0 0 1 30 255 7 173 0 10 19 0 0 +.0
02 0 -.0105 -1 0 0 29 255 8 126 0 20 21 0 0 0 .0105 19 8 CCCCCCCA5 owner12 0 Z9
 52 0 1 16 0 22 V0 16 255 10 141 0 ?23 0 24 7 0 0 1 18 255 11 49 0 25 0 26 27 ?1
 17 255 25 0 28 29 30 11 31 32 0 33 +18 26 46 0 30 11 34 35 ?1 29 27 51 0 11 35
 36 .002 0 .0105 29 35 48 0 26 37 27 .002 .015 .0105 29 36 133 0 38 27 39 0 0 -.
0105 18 38 116 0 40 41 0 36 ?1 29 39 132 0 41 36 42 0 .015 -.0105 18 41 115 0 43
 44 38 39 ?1 29 42 131 0 44 39 45 0 .015 -.0205 18 44 114 0 46 47 41 42 ?1 29 45
 130 0 47 42 48 0 .047 -.0205 18 47 113 0 49 50 44 45 ?1 29 48 129 0 50 45 51 0
 .047 .0205 18 50 112 0 52 53 47 48 ?1 29 51 128 0 53 48 21 0 .015 .0205 18 53 1
11 0 54 55 50 51 ?1 29 21 127 0 55 51 8 0 .015 .0105 18 55 110 0 56 20 53 21 ?1
 17 56 0 57 58 59 55 60 61 0 62 +18 20 109 0 63 64 55 8 ?1 17 63 0 65 33 62 20 6
6 67 0 68 +18 64 28 0 69 70 20 71 ?1 17 69 0 72 23 73 64 74 75 0 29 -18 70 31 0
 74 76 64 77 ?1 29 71 30 0 64 0 77 .002 0 -.0105 29 77 33 0 70 71 78 .002 .015 -
.0105 29 78 36 0 76 77 79 .002 .015 -.0205 18 76 34 0 80 81 70 78 ?1 29 79 39 0
 81 78 82 .002 .047 -.0205 18 81 37 0 83 84 76 79 ?1 29 82 42 0 84 79 37 .002 .0
47 .0205 18 84 40 0 85 34 81 82 ?1 29 37 45 0 34 82 35 .002 .015 .0205 18 34 43
 0 86 26 84 37 ?1 17 86 0 28 30 85 34 87 88 0 89 +15 255 28 3 0 29 15 90 17 30 0
 28 25 86 26 91 92 0 58 +17 85 0 28 86 83 84 93 94 0 95 +17 87 0 96 97 89 84 86
 88 0 0 -16 88 19 0 ?86 92 94 98 0 0 1 17 89 0 96 87 54 34 59 99 0 91 -15 96 146
 0 54 100 0 17 54 0 96 89 97 53 101 102 0 59 +17 59 0 57 56 91 53 89 99 0 60 +16
 99 136 0 ?59 103 104 105 0 0 1 17 91 0 57 59 58 34 30 92 0 0 -15 57 144 0 56 10
6 0 17 58 0 57 91 56 26 62 104 0 31 -16 92 22 0 ?30 32 88 107 0 0 1 16 32 25 0 ?
25 108 92 109 0 0 1 30 107 23 0 92 98 109 0 +.002 .015 .0105 0 3469446951953615e
-31 -1 30 98 20 0 88 110 107 0 +.002 .047 .0205 0 -1 0 30 109 26 0 32 107 111 0
 +.002 0 .0105 0 -1 0 31 255 111 125 0 112 109 113 0 +0 0 0 1 0 0 0 0 1 .0105 16
 112 105 0 ?114 115 116 111 0 0 1 30 113 124 0 115 111 117 0 +0 .015 -.0105 0 1
 1156482317317872e-31 16 115 101 0 ?43 118 112 113 0 0 1 30 117 123 0 118 113 11
9 0 +0 .015 -.0205 0 3469446951953615e-31 -1 16 118 97 0 ?46 120 115 117 0 0 1 3
0 119 122 0 120 117 121 0 +0 .047 -.0205 0 1 1084202172485504e-31 16 120 93 0 ?4
9 122 118 119 0 0 1 30 121 121 0 122 119 123 0 +0 .047 .0205 0 0 1 16 122 89 0 ?
52 102 120 121 0 0 1 30 123 120 0 102 121 124 0 +0 .047 .0205 0 -1 0 16 102 85 0
 ?54 61 122 123 0 0 1 30 124 119 0 61 123 125 0 +0 .015 .0105 0 3469446951953615
e-31 -1 16 61 81 0 ?56 67 102 124 0 0 1 30 125 118 0 67 124 126 0 +0 0 .0105 0 -
1 0 16 67 77 0 ?63 127 61 125 0 0 1 30 126 166 0 108 125 128 0 +.002 0 .0105 -1
 0 0 16 108 134 0 ?68 104 32 126 0 0 1 30 128 167 0 104 126 105 0 +.002 .015 .01
05 -1 0 0 16 104 135 0 ?62 99 108 128 0 0 1 30 105 168 0 99 128 129 0 +.002 .015
 .0205 -1 0 0 30 129 169 0 103 105 130 0 +.002 .047 .0205 -1 0 0 16 103 137 0 ?9
7 131 99 129 0 0 1 30 130 170 0 131 129 132 0 +.002 .047 -.0205 -1 0 0 16 131 13
8 0 ?133 134 103 130 0 0 1 30 132 171 0 134 130 19 0 +.002 .015 -.0205 -1 0 0 16
 134 139 0 ?135 24 131 132 0 0 1 30 19 172 0 24 132 7 0 +.002 .015 -.0105 -1 0 0
 16 24 140 0 ?136 10 134 19 0 0 1 17 136 0 137 46 138 41 73 24 0 139 +15 137 152
 0 46 140 0 17 46 0 137 141 136 44 139 118 0 135 +17 138 0 137 136 141 70 80 142
 0 0 -17 73 0 72 69 43 70 136 24 0 138 -17 139 0 143 40 144 41 46 118 0 0 -15 14
3 76 0 145 146 147 17 40 0 143 145 139 38 43 115 0 23 -17 144 0 143 139 148 44 4
9 120 0 0 -17 148 0 143 144 101 47 52 122 0 0 -17 49 0 149 150 135 47 144 120 0
 133 +15 149 150 0 49 151 0 17 150 0 149 152 49 81 133 131 0 93 -17 135 0 149 49
 152 44 141 134 0 144 +17 133 0 153 52 93 47 150 131 0 148 +15 153 148 0 52 154
 0 17 52 0 153 95 133 50 148 122 0 97 +17 93 0 153 133 95 81 85 94 0 0 -17 95 0
 153 93 52 84 97 103 0 87 -16 94 16 0 ?85 88 155 110 0 0 1 16 155 13 0 ?83 94 14
2 156 0 0 1 30 110 17 0 94 156 98 0 +.002 .047 .0205 0 0 1 30 156 14 0 155 157 1
10 0 +.002 .047 -.0205 0 1 1084202172485504e-31 30 157 11 0 142 158 156 0 +.002
 .015 -.0205 0 3469446951953615e-31 -1 16 142 10 0 ?80 155 75 157 0 0 1 30 158 8
 0 75 159 157 0 +.002 .015 -.0105 0 1 1156482317317872e-31 16 75 7 0 ?74 142 127
 158 0 0 1 31 159 5 0 127 160 158 0 +.002 0 0 1 0 0 0 0 1 .0105 16 127 4 0 ?29 7
5 67 159 0 0 1 31 160 230 0 161 162 159 0 +0 0 0 1 0 0 0 0 -1 .0085 16 161 208 0
 ?163 116 164 160 0 0 1 31 162 231 0 116 165 160 0 +.002 0 0 1 0 0 0 0 -1 .0085
 16 116 211 0 ?166 112 161 162 0 0 1 31 165 268 0 167 168 162 0 +0 .0435 .017 1
 0 0 0 0 -1 .0015 16 167 246 0 ?169 164 170 165 0 0 1 31 168 269 0 164 171 165 0
 +.002 .0435 .017 1 0 0 0 0 -1 .0015 16 164 249 0 ?172 161 167 168 0 0 1 31 171
 306 0 173 174 168 0 +0 .0435 -.017 1 0 0 0 0 -1 .0015 16 173 284 0 ?175 170 176
 171 0 0 1 31 174 307 0 170 177 171 0 +.002 .0435 -.017 1 0 0 0 0 -1 .0015 16 17
0 287 0 ?178 167 173 174 0 0 1 31 177 344 0 179 180 174 0 +0 .0185 .016999999999
99975 1 0 0 0 0 -1 .0015 16 179 322 0 ?181 176 182 177 0 0 1 31 180 345 0 176 18
3 177 0 +.002 .0185 .01699999999999975 1 0 0 0 0 -1 .0015 16 176 325 0 ?184 173
 179 180 0 0 1 31 183 382 0 185 186 180 0 +0 .0185 -.01700000000000025 1 0 0 0 0
 -1 .0015 16 185 360 0 ?187 182 0 183 0 0 1 31 186 383 0 182 0 183 0 +.002 .0185
 -.01700000000000025 1 0 0 0 0 -1 .0015 16 182 363 0 ?188 179 185 186 0 0 1 17 1
88 0 189 188 188 0 190 182 0 0 +15 189 369 0 188 191 192 17 190 0 193 190 190 0
 188 182 0 0 -15 193 355 0 190 15 0 14 255 15 357 194 ?146 0 28 5 195 -0 0 146 0
 22 81 1 194 504 196 15 197 0 0 198 199 14 146 351 198 ?17 15 200 5 201 +0 0 17
 15 22 50 255 195 2 0 15 202 201 0 +.002 0 0 -1 0 0 0 0 1 13 22 53 0 0 0 0 0 0 9
 15 51 202 227 0 203 204 195 0 -.002 0 0 -1 0 0 .0085 0 0 1 50 201 117 0 146 195
 205 0 +0 0 0 -1 0 0 0 0 1 50 205 158 0 206 201 207 0 +.002 0 .0105 0 0 -1 -1 0
 0 14 206 143 208 ?203 106 65 5 205 -0 0 203 106 22 50 207 159 0 106 205 209 0 +
.002 .015 .0105 0 1 3469446951953615e-31 0 -3469446951953615e-31 1 14 106 145 21
0 ?206 100 57 5 207 -0 0 206 100 22 50 209 160 0 100 207 211 0 +.002 .047 .0205
 0 0 -1 -1 0 0 14 100 147 212 ?106 154 96 5 209 -0 0 106 154 22 50 211 161 0 154
 209 213 0 +.002 .047 .0205 0 -1 0 0 0 -1 14 154 149 214 ?100 151 153 5 211 -0 0
 100 151 22 50 213 162 0 151 211 215 0 +.002 .047 -.0205 0 -1084202172485504e-31
 1 0 -1 -1084202172485504e-31 14 151 151 216 ?154 140 149 5 213 -0 0 154 140 22
 50 215 163 0 140 213 18 0 +.002 .015 -.0205 0 1 3469446951953615e-31 0 -3469446
951953615e-31 1 14 140 153 217 ?151 218 137 5 215 -0 0 151 218 22 50 18 164 0 21
8 215 6 0 +.002 .015 -.0105 0 -1156482317317872e-31 1 0 -1 -1156482317317872e-31
 14 218 155 219 ?140 17 72 5 18 -0 0 140 17 22 81 1 219 512 196 218 220 0 217 22
1 222 14 17 157 221 ?218 146 223 5 6 -0 0 218 146 22 15 72 154 0 43 218 0 17 43
 0 72 73 23 41 40 115 0 136 +17 23 0 72 43 69 38 224 10 0 114 +17 224 0 223 225
 114 64 23 10 0 0 -17 114 0 223 224 68 38 145 112 0 0 +15 223 156 0 114 17 0 17
 68 0 223 114 225 20 33 108 0 145 +17 145 0 143 66 40 20 114 112 0 0 -17 66 0 14
3 60 145 55 63 67 0 0 -17 60 0 143 101 66 53 56 61 0 0 -17 101 0 143 148 60 50 5
4 102 0 0 -17 225 0 223 68 224 11 29 127 0 0 -17 33 0 65 31 63 11 68 108 0 225 -
15 65 142 0 63 206 0 17 31 0 65 62 33 26 25 32 0 0 -17 62 0 65 63 31 55 58 104 0
 66 +17 29 0 28 74 25 64 225 127 0 224 +17 74 0 28 80 29 70 69 75 0 73 +17 80 0
 28 83 74 76 138 142 0 141 +17 83 0 28 85 80 81 152 155 0 150 +17 141 0 137 138
 46 76 135 134 0 152 -17 152 0 149 135 150 76 83 155 0 0 -81 1 221 513 196 17 22
6 0 219 227 228 80 255 1 196 229 230 9000 1 1 1 1 1 1 1 1 0 FFFFTFTFFFFFFF1 81 1
 226 459 231 17 0 221 232 220 233 81 1 227 514 196 203 234 0 221 235 236 82 255
 1 228 934543510 14 203 214 227 ?237 206 238 5 202 +0 0 237 206 22 81 1 234 467
 231 203 0 227 239 240 241 81 1 235 515 196 237 240 0 227 242 243 82 1 236 94044
1750 14 237 252 235 ?244 203 245 5 204 +0 0 244 203 22 81 1 240 468 231 237 0 23
5 234 246 247 81 1 242 516 196 244 246 0 235 248 249 82 1 243 944504982 14 244 2
90 242 ?250 237 251 5 252 +0 0 250 237 22 81 1 246 469 231 244 0 242 240 253 254
 81 1 248 517 196 250 253 0 242 255 256 82 1 249 948568214 14 250 328 248 ?191 2
44 257 5 258 +0 0 191 244 22 81 1 253 470 231 250 0 248 246 259 260 81 1 255 518
 196 191 259 0 248 0 261 82 1 256 952631446 14 191 366 255 ?0 250 189 5 262 +0 0
 0 250 22 81 1 259 471 231 191 0 255 253 0 263 82 1 261 956694678 80 1 231 0 264
 8001 0 0 0 0 3 5 0 0 0 FFFFTFTFFFFFFF2 83 255 3 263 1 1 1 79 255 15 264 SDL/TYS
A_COLOUR51 262 379 0 191 0 258 0 -.002 .0185 -.01700000000000025 -1 0 0 .0015 0
 0 1 51 258 341 0 250 262 252 0 -.002 .0185 .01699999999999975 -1 0 0 .0015 0 0
 1 51 252 303 0 244 258 204 0 -.002 .0435 -.017 -1 0 0 .0015 0 0 1 51 204 265 0
 237 252 202 0 -.002 .0435 .017 -1 0 0 .0015 0 0 1 83 3 260 1 1 1 15 257 331 0 1
84 250 265 17 184 0 257 184 184 0 266 176 0 0 +15 265 332 0 267 250 0 17 267 0 2
65 267 267 0 181 179 0 0 -17 181 0 200 181 181 0 267 179 0 0 +15 200 310 0 181 1
46 268 15 268 234 0 169 146 143 17 169 0 268 169 169 0 269 167 0 0 +17 269 0 270
 269 269 0 169 167 0 0 -15 270 256 0 269 237 0 17 266 0 271 266 266 0 184 176 0
 0 -15 271 317 0 266 15 193 83 3 254 1 1 1 15 251 293 0 178 244 272 17 178 0 251
 178 178 0 273 170 0 0 +15 272 294 0 274 244 0 17 274 0 272 274 274 0 175 173 0
 0 -17 175 0 275 175 175 0 274 173 0 0 +15 275 272 0 175 146 276 15 276 348 0 18
7 146 0 17 187 0 276 187 187 0 277 185 0 0 +17 277 0 192 277 277 0 187 185 0 0 -
15 192 370 0 277 191 0 17 273 0 278 273 273 0 178 170 0 0 -15 278 279 0 273 15 2
71 83 3 247 1 1 1 15 245 255 0 172 237 270 17 172 0 245 172 172 0 279 164 0 0 +1
7 279 0 280 279 279 0 172 164 0 0 -15 280 241 0 279 15 278 81 1 239 466 231 206
 0 208 281 234 282 83 3 241 1 1 1 81 1 208 506 196 206 239 0 198 210 283 81 1 28
1 465 231 106 0 210 284 239 285 83 3 282 1 1 1 81 1 210 507 196 106 281 0 208 21
2 286 81 1 284 464 231 100 0 212 287 281 288 83 3 285 1 1 1 81 1 212 508 196 100
 284 0 210 214 289 81 1 287 463 231 154 0 214 290 284 291 83 3 288 1 1 1 81 1 21
4 509 196 154 287 0 212 216 292 81 1 290 462 231 151 0 216 293 287 294 83 3 291
 1 1 1 81 1 216 510 196 151 290 0 214 217 295 81 1 293 461 231 140 0 217 220 290
 296 83 3 294 1 1 1 81 1 217 511 196 140 293 0 216 219 297 81 1 220 460 231 218
 0 219 226 293 298 83 3 296 1 1 1 83 3 298 1 1 1 82 1 297 934019222 82 1 295 933
757078 82 1 292 933494934 82 1 289 933232790 82 1 286 932970646 81 1 198 505 196
 146 232 0 194 208 299 82 1 283 932708502 81 1 232 458 231 146 0 198 197 226 300
 82 1 299 963641494 81 1 197 457 231 15 0 194 0 232 301 83 3 300 1 1 1 83 3 301
 1 1 1 15 238 217 0 166 203 302 17 166 0 238 166 166 0 303 116 0 0 +15 302 218 0
 304 203 0 17 304 0 302 304 304 0 163 161 0 0 -17 163 0 147 163 163 0 304 161 0
 0 +15 147 196 0 163 146 275 17 303 0 90 303 303 0 166 116 0 0 -15 90 203 0 303
 15 280 83 3 233 1 1 1 79 14 230 SWEntUnchanged82 1 222 934281366 82 1 199 96416
5782 17 97 0 96 54 87 50 95 103 0 101 +19 16 175 0 1 0 9 5 S0 74 4 CI16 index_ma
p_offset0 0 1 dCCZ20 14 3 0 0 255 2 259 0 0 0 0 0 0 0 0 0 0 0 0 0 0 0 0 0 80 2 1
2 305 306 8004 0 0 0 0 3 5 0 0 0 FFTFFFFFFFFFFF2 3 83 1 13 1e3 79 16 306 SDL/TYS
A_DENSITY1 0 
