**ABCDEFGHIJKLMNOPQRSTUVWXYZabcdefghijklmnopqrstuvwxyz**************************
**PARASOLID !"#$%&'()*+,-./:;<=>?@[\]^_`{|}~0123456789**************************
**PART1;
MC=AMD64;
MC_MODEL=Intel64 Family 6 Model 142 Stepping 9, GenuineIntel;
MC_ID=unknown;
OS=Windows_NT;
OS_RELEASE=unknown;
FRU=Parasolid Version 28.0, build 174,  7- 3-2015;
APPL=SOLIDWORKS 2016-2015266;
SITE=;
USER=unknown;
FORMAT=text;
GUISE=transmit;
KEY=1011;
FILE=1011.x_t;
DATE=Sat Oct 06 20:51:32 2018;
**PART2;
SCH=SCH_2800174_28002;
USFLD_SIZE=0;
**PART3;
**END_OF_HEADER*****************************************************************
T51 : TRANSMIT FILE created by modeller version 280017423 SCH_2800174_28002_1300
6200 0 12 30 CCCCCCCCCCCCCDI5 owner1040 0 CCCCCCCCCA13 boundary_mesh1006 0 A16 i
ndex_map_offset0 0 1 dA9 index_map82 0 A17 node_id_index_map82 0 A20 schema_embe
dding_map82 0 A5 child12 0 A14 lowest_node_id0 0 1 dZ1 436 2 3 0 0 0 0 1e3 1e-8
 0 4 0 1 0 1 1 5 6 7 0 8 9 0 0 0 0 0 0 0 0 81 255 2 2 369 10 1 0 0 0 0 11 0 70 1
1 CI9 list_type0 0 1 uI10 notransmit0 0 1 lCCCDCCDI12 finger_index0 0 1 dI12 fin
ger_block1012 0 CZ3 0 4 T1 0 0 3 20 1 12 12 13 255 5 29 0 1 0 13 0 0 14 0 51 255
 6 28 0 15 16 0 0 -.01 0 0 -1 0 0 .075 0 0 1 31 255 7 311 0 17 18 0 0 -.003 0 -.
02 -1 0 0 0 0 1 .0015 19 8 CCCCCCCA5 owner12 0 Z8 7 0 1 14 0 19 V0 16 255 9 4 0
 ?20 0 21 22 0 0 1 17 255 20 0 23 20 20 0 24 9 0 0 +16 21 18 0 ?25 9 26 27 0 0 1
 31 22 5 0 9 28 27 0 +.01 0 0 1 0 0 0 0 -1 .075 31 28 87 0 26 29 22 0 +.01 0 0 1
 0 0 0 0 -1 .003 31 27 23 0 21 22 30 0 +0 0 0 1 0 0 0 0 -1 .075 31 30 188 0 31 2
7 18 0 -.003 0 0 -1 0 0 0 0 1 .003 16 31 205 0 ?32 33 34 30 0 0 1 31 18 250 0 35
 30 7 0 -.003 -2449293598294705e-33 .02 -1 0 0 0 0 1 .0015 16 35 267 0 ?36 37 38
 18 0 0 1 17 36 0 39 36 36 0 40 35 0 0 +16 37 198 0 ?41 34 35 42 0 0 1 16 38 264
 0 ?43 35 44 45 0 0 1 17 43 0 46 43 43 0 47 38 0 0 +16 44 260 0 ?48 38 17 49 0 0
 1 31 45 294 0 38 50 49 0 +.003 -2449293598294705e-33 .02 -1 0 0 0 0 1 .003 31 5
0 354 0 51 52 45 0 +0 0 -.02 -1 0 0 0 0 1 .003 31 49 293 0 44 45 53 0 +0 -244929
3598294705e-33 .02 -1 0 0 0 0 1 .003 31 53 232 0 34 49 42 0 +.003 0 0 -1 0 0 0 0
 1 .006 16 34 202 0 ?54 31 37 53 0 0 1 31 42 231 0 37 53 55 0 +0 0 0 -1 0 0 0 0
 1 .006 31 55 162 0 56 42 29 0 +.01 -2449293598294705e-33 .02 1 0 0 0 0 -1 .0015
 16 56 118 0 ?57 26 33 55 0 0 1 31 29 160 0 33 55 28 0 +.01 0 -.02 1 0 0 0 0 -1
 .0015 16 33 136 0 ?58 56 31 29 0 0 1 17 58 0 59 58 58 0 60 33 0 0 +15 255 59 14
3 0 58 13 61 17 60 0 62 60 60 0 58 33 0 0 -15 62 104 0 60 63 64 14 255 63 1 65 ?
66 15 67 5 68 +0 0 66 15 19 15 64 60 0 69 63 23 17 69 0 64 69 69 0 70 26 0 0 -15
 23 3 0 20 63 0 17 70 0 71 70 70 0 69 26 0 0 +16 26 68 0 ?70 21 56 28 0 0 1 15 7
1 75 0 70 72 73 14 72 189 74 ?15 75 71 5 76 -0 0 15 75 19 15 73 187 0 77 72 0 17
 77 0 73 77 77 0 32 31 0 0 -17 32 0 78 32 32 0 77 31 0 0 +15 78 209 0 32 79 0 14
 79 206 80 ?81 66 82 5 83 +0 0 81 66 19 81 1 80 427 84 79 85 0 74 86 87 14 81 21
4 86 ?88 79 89 5 90 -0 0 88 79 19 14 66 16 91 ?79 63 92 5 16 -0 0 79 63 19 15 82
 208 0 54 79 78 50 255 83 229 0 79 93 90 0 +.003 0 0 -1 0 0 0 0 1 13 19 8 0 0 0
 0 0 0 8 13 14 13 312 94 ?75 0 59 5 95 -0 0 75 0 19 81 1 94 430 84 13 96 0 91 97
 98 14 75 251 97 ?72 13 99 5 100 -0 0 72 13 19 51 95 154 0 13 100 76 0 +0 0 -.02
 1 0 0 .0015 0 0 -1 51 100 157 0 75 90 95 0 +0 -2449293598294705e-33 .02 1 0 0 .
0015 0 0 -1 51 76 84 0 72 95 68 0 +0 0 0 1 0 0 .003 0 0 -1 50 68 2 0 63 76 16 0
 +.01 0 0 1 0 0 0 0 -1 50 16 22 0 66 68 6 0 +0 0 0 1 0 0 0 0 -1 51 90 227 0 81 8
3 100 0 +.003 0 0 -1 0 0 .006 0 0 1 81 1 97 431 84 75 101 0 94 102 103 15 99 125
 0 57 75 104 17 57 0 99 57 57 0 105 56 0 0 +15 104 249 0 40 75 0 17 40 0 104 40
 40 0 36 35 0 0 -17 105 0 67 105 105 0 57 56 0 0 -15 67 110 0 105 63 62 80 255 1
 84 106 107 9000 1 1 1 1 1 1 1 1 0 FFFFTFTFFFFFFF1 81 1 101 388 108 75 0 97 96 1
09 110 81 1 102 432 84 15 111 0 97 112 113 82 255 1 103 -1198391126 14 15 25 102
 ?63 72 114 5 6 -0 0 63 72 19 81 1 111 390 108 15 0 102 109 115 116 81 1 112 433
 84 117 118 0 102 119 120 82 1 113 1480655010 14 117 329 112 ?121 122 123 5 124
 +0 0 121 122 19 81 1 118 397 108 117 0 112 125 126 127 81 1 119 434 84 121 126
 0 112 128 129 82 1 120 -96206674 14 121 337 119 ?0 117 130 5 131 -0 0 0 117 19
 81 1 126 398 108 121 0 119 118 0 132 81 1 128 435 84 88 133 0 119 134 135 82 1
 129 -99221330 14 88 268 128 ?122 81 46 5 136 +0 0 122 81 19 81 1 133 395 108 88
 0 128 137 125 138 81 1 134 436 84 122 125 0 128 0 139 82 1 135 -1197408086 14 1
22 276 134 ?117 88 140 5 93 -0 0 117 88 19 81 1 125 396 108 122 0 134 133 118 14
1 82 1 139 -1200422742 80 1 108 0 142 8001 0 0 0 0 3 5 0 0 0 FFFFTFTFFFFFFF2 83
 255 3 141 1 1 1 79 255 15 142 SDL/TYSA_COLOUR15 140 279 0 47 122 143 51 93 289
 0 122 136 83 0 +.003 -2449293598294705e-33 .02 -1 0 0 .003 0 0 1 50 136 291 0 8
8 131 93 0 +.003 -2449293598294705e-33 .02 -1 0 0 0 0 1 51 131 350 0 121 124 136
 0 +.003 0 -.02 -1 0 0 .003 0 0 1 50 124 352 0 117 0 131 0 +.003 0 -.02 -1 0 0 0
 0 1 17 47 0 140 47 47 0 43 38 0 0 -15 143 280 0 48 122 0 17 48 0 143 48 48 0 14
4 44 0 0 +17 144 0 145 144 144 0 48 44 0 0 -15 145 254 0 144 66 146 15 146 192 0
 147 66 148 17 147 0 146 147 147 0 41 37 0 0 -15 148 17 0 149 66 0 17 149 0 148
 149 149 0 25 21 0 0 -17 25 0 150 25 25 0 149 21 0 0 +15 150 26 0 25 15 0 17 41
 0 151 41 41 0 147 37 0 0 +15 151 218 0 41 81 0 81 1 137 394 108 81 0 86 85 133
 152 83 3 138 1 1 1 81 1 86 428 84 81 137 0 80 91 153 81 1 85 393 108 79 0 80 15
4 137 155 83 3 152 1 1 1 81 1 154 392 108 66 0 91 115 85 156 83 3 155 1 1 1 81 1
 91 429 84 66 154 0 86 94 157 81 1 115 391 108 63 0 65 111 154 158 83 3 156 1 1
 1 81 1 65 425 84 63 115 0 0 74 159 83 3 158 1 1 1 81 1 74 426 84 72 109 0 65 80
 160 82 1 159 1478688932 81 1 109 389 108 72 0 74 101 111 161 82 1 160 152154947
8 83 3 161 1 1 1 82 1 157 1480392878 82 1 153 1519583398 15 46 270 0 43 88 39 15
 39 271 0 36 88 0 83 3 132 1 1 1 15 130 340 0 162 121 163 17 162 0 130 162 162 0
 164 165 0 0 -15 163 341 0 166 121 0 17 166 0 163 166 166 0 167 51 0 0 +17 167 0
 92 167 167 0 166 51 0 0 -16 51 321 0 ?166 165 0 50 0 0 1 16 165 325 0 ?164 17 5
1 52 0 0 1 17 164 0 123 164 164 0 162 165 0 0 +16 17 328 0 ?168 44 165 7 0 0 1 3
1 52 355 0 165 0 50 0 +.003 0 -.02 -1 0 0 0 0 1 .003 17 168 0 169 168 168 0 170
 17 0 0 +15 169 332 0 168 117 0 17 170 0 61 170 170 0 168 17 0 0 -15 61 310 0 17
0 13 0 15 123 331 0 164 117 169 15 92 315 0 167 66 145 83 3 127 1 1 1 83 3 116 1
 1 1 15 114 24 0 24 15 150 17 24 0 114 24 24 0 20 9 0 0 -81 1 96 387 108 13 0 94
 0 101 171 83 3 110 1 1 1 83 3 171 1 1 1 79 14 107 SWEntUnchanged82 1 98 -971897
14 17 54 0 82 54 54 0 172 34 0 0 +17 172 0 89 172 172 0 54 34 0 0 -15 89 217 0 1
72 81 151 82 1 87 1522532518 19 14 30 0 1 0 8 5 S0 74 4 CI16 index_map_offset0 0
 1 dCCZ20 12 3 0 0 134 2 126 0 0 0 0 0 0 0 0 0 0 0 0 0 0 0 0 0 80 2 10 173 174 8
004 0 0 0 0 3 5 0 0 0 FFTFFFFFFFFFFF2 3 83 1 11 1e3 79 16 174 SDL/TYSA_DENSITY1
 0 
