**ABCDEFGHIJKLMNOPQRSTUVWXYZabcdefghijklmnopqrstuvwxyz**************************
**PARASOLID !"#$%&'()*+,-./:;<=>?@[\]^_`{|}~0123456789**************************
**PART1;
MC=AMD64;
MC_MODEL=Intel64 Family 6 Model 142 Stepping 9, GenuineIntel;
MC_ID=unknown;
OS=Windows_NT;
OS_RELEASE=unknown;
FRU=Parasolid Version 28.0, build 174,  7- 3-2015;
APPL=SOLIDWORKS 2016-2015266;
SITE=;
USER=unknown;
FORMAT=text;
GUISE=transmit;
KEY=1012;
FILE=1012.x_t;
DATE=Sat Oct 06 20:51:47 2018;
**PART2;
SCH=SCH_2800174_28002;
USFLD_SIZE=0;
**PART3;
**END_OF_HEADER*****************************************************************
T51 : TRANSMIT FILE created by modeller version 280017423 SCH_2800174_28002_1300
6200 0 12 30 CCCCCCCCCCCCCDI5 owner1040 0 CCCCCCCCCA13 boundary_mesh1006 0 A16 i
ndex_map_offset0 0 1 dA9 index_map82 0 A17 node_id_index_map82 0 A20 schema_embe
dding_map82 0 A5 child12 0 A14 lowest_node_id0 0 1 dZ1 2076 2 3 0 0 0 0 1e3 1e-8
 0 4 0 1 0 1 1 5 6 7 8 9 10 11 0 0 0 0 0 0 0 81 255 2 2 1963 12 1 0 0 0 0 13 0 7
0 11 CI9 list_type0 0 1 uI10 notransmit0 0 1 lCCCDCCDI12 finger_index0 0 1 dI12
 finger_block1012 0 CZ3 0 4 T1 0 0 3 20 1 14 14 13 255 5 94 0 1 0 15 0 0 16 0 50
 255 6 89 0 15 17 0 0 +.01 -.01 .01 0 0 -1 -1 0 0 30 255 7 260 0 10 18 0 0 +0 .0
1 .015 1 0 0 29 255 8 279 0 11 19 0 .0100001 .01 .015 19 8 CCCCCCCA5 owner12 0 Z
9 28 0 1 16 0 20 V0 16 255 10 199 0 ?21 0 22 7 0 0 1 18 255 11 223 0 21 0 23 8 ?
1 17 255 21 0 24 25 26 11 27 10 0 28 +18 23 336 0 29 11 30 19 ?1 17 29 0 31 32 3
3 23 34 35 0 36 +18 30 450 0 37 23 38 39 ?1 29 19 393 0 23 39 8 .0100001 .01 -.0
15 29 39 508 0 30 40 19 .0100001 -.01 .015 29 40 624 0 38 41 39 .0100001 -.01 -.
015 18 38 567 0 32 30 42 40 ?1 29 41 625 0 42 43 40 .0100001 -.01 -.01 18 42 562
 0 44 38 45 41 ?1 29 43 1043 0 45 46 41 .0100001 .01 .01 18 45 951 0 47 42 48 43
 ?1 29 46 1044 0 48 49 43 .0100001 -.01 .01 18 48 960 0 50 45 51 46 ?1 29 49 105
0 0 51 52 46 .0100001 .01 -.01 18 51 964 0 53 48 54 49 ?1 29 52 1057 0 54 55 49
 .031 .01 .01 18 54 969 0 56 51 57 52 ?1 29 55 1058 0 57 58 52 .031 .01 -.01 18
 57 968 0 59 54 60 55 ?1 29 58 1059 0 60 61 55 .031 -.01 -.01 18 60 967 0 62 57
 63 58 ?1 29 61 1060 0 63 64 58 .031 -.01 .01 18 63 961 0 65 60 66 61 ?1 29 64 1
779 0 66 67 61 -.01 .01 -.015 18 66 1727 0 34 63 68 64 ?1 29 67 1780 0 68 69 64
 -.01 .01 .015 18 68 1726 0 27 66 70 67 ?1 29 69 1781 0 70 71 67 -.01 -.01 .015
 18 70 1725 0 72 68 73 69 ?1 29 71 1782 0 73 0 69 -.01 -.01 -.015 18 73 1722 0 7
4 70 0 71 ?1 17 74 0 31 33 32 73 75 76 0 77 -15 255 31 355 0 29 78 0 17 33 0 31
 29 74 66 79 80 0 0 -17 32 0 31 74 29 38 36 81 0 75 -17 75 0 82 83 77 38 74 76 0
 84 +16 76 543 0 ?75 85 86 87 0 0 1 17 77 0 82 75 72 73 88 89 0 79 -15 82 1077 0
 90 91 92 17 72 0 82 77 93 70 94 95 0 88 -17 88 0 96 97 79 70 77 89 0 98 +16 89
 1710 0 ?88 99 80 100 0 0 1 17 79 0 96 88 101 73 33 80 0 0 +15 96 1750 0 79 102
 0 17 101 0 96 79 97 66 26 103 0 33 +16 80 1707 0 ?79 89 104 105 0 0 1 16 104 18
31 0 ?106 80 107 108 0 0 1 30 105 1774 0 80 108 100 0 +-.01 -.01 -.015 0 -1 0 31
 255 108 1850 0 104 109 105 0 +-.01 0 0 -1 0 0 0 0 1 .0075 30 100 1773 0 89 105
 110 0 +-.01 -.01 -.015 0 0 1 30 110 1772 0 99 100 111 0 +-.01 -.01 .015 0 1 0 1
6 99 1713 0 ?97 103 89 110 0 0 1 30 111 1771 0 103 110 112 0 +-.01 .01 -.015 0 0
 -1 16 103 1716 0 ?101 113 99 111 0 0 1 31 112 1160 0 114 111 115 0 +.02050005 -
.01 3382710778154775e-32 0 1 867361737988404e-31 0 -867361737988404e-31 1 .0085
 16 114 1137 0 ?116 117 113 112 0 0 1 31 115 1159 0 113 112 118 0 +.02050005 .01
 3556183125752455e-32 0 1 867361737988404e-31 0 -867361737988404e-31 1 .0085 16
 113 1140 0 ?119 114 103 115 0 0 1 30 118 1040 0 117 115 120 0 +.031 .01 .01 0 -
1 0 16 117 938 0 ?121 122 114 118 0 0 1 30 120 1039 0 122 118 123 0 +.031 -.01 .
01 0 0 -1 16 122 941 0 ?62 124 117 120 0 0 1 30 123 1038 0 124 120 125 0 +.031 .
01 -.01 0 1 0 16 124 944 0 ?59 126 122 123 0 0 1 30 125 1037 0 126 123 127 0 +.0
31 .01 .01 0 0 1 16 126 947 0 ?56 128 124 125 0 0 1 30 127 1032 0 128 125 129 0
 +.031 .01 .01 -1 0 0 16 128 921 0 ?47 130 126 127 0 0 1 30 129 1031 0 130 127 1
31 0 +.031 .01 -.01 -1 0 0 16 130 936 0 ?132 133 128 129 0 0 1 30 131 1030 0 133
 129 134 0 +.031 -.01 -.01 -1 0 0 16 133 928 0 ?135 136 130 131 0 0 1 30 134 102
9 0 136 131 137 0 +.031 -.01 .01 -1 0 0 16 136 926 0 ?90 138 133 134 0 0 1 31 13
7 1024 0 138 134 139 0 +.01 1734723475976805e-33 520417042793042e-32 1 0 0 0 0 -
1 .0075 16 138 907 0 ?140 141 136 137 0 0 1 31 139 869 0 142 137 143 0 +.0050000
5 .01 .0125 0 -1 -260208521396521e-30 0 260208521396521e-30 -1 .0015 16 142 835
 0 ?144 145 141 139 0 0 1 31 143 868 0 141 139 146 0 +.00500005 -.01 .0125 0 -1
 -260208521396521e-30 0 260208521396521e-30 -1 .0015 16 141 838 0 ?147 142 138 1
43 0 0 1 31 146 780 0 148 143 149 0 +.00500005 .01 -.0125 0 -1 -260208521396521e
-30 0 260208521396521e-30 -1 .001500000000000055 16 148 746 0 ?150 86 145 146 0
 0 1 31 149 779 0 145 146 151 0 +.00500005 -.01 -.0125 0 -1 -260208521396521e-30
 0 260208521396521e-30 -1 .001500000000000055 16 145 749 0 ?152 148 142 149 0 0
 1 30 151 614 0 86 149 87 0 +.0100001 -.01 -.01 0 -693889390390723e-29 -1 16 86
 550 0 ?84 76 148 151 0 0 1 30 87 605 0 76 151 153 0 +0 -.01 -.015 1 0 0 30 153
 497 0 85 87 154 0 +.0100001 -.01 .01 0 0 -1 16 85 441 0 ?155 95 76 153 0 0 1 30
 154 491 0 95 153 156 0 +0 -.01 .015 1 0 0 16 95 424 0 ?94 157 85 154 0 0 1 30 1
56 385 0 157 154 158 0 +.0100001 .01 -.01 0 -1 0 16 157 318 0 ?44 81 95 156 0 0
 1 30 158 383 0 81 156 159 0 +.0100001 .01 -.015 0 1 0 16 81 324 0 ?36 160 157 1
58 0 0 1 30 159 382 0 160 158 161 0 +.0100001 .01 -.01 0 0 1 16 160 327 0 ?162 3
5 81 159 0 0 1 30 161 376 0 35 159 163 0 +0 .01 -.015 1 0 0 16 35 310 0 ?29 164
 160 161 0 0 1 30 163 270 0 164 161 165 0 +.0100001 .01 .01 0 1 0 16 164 203 0 ?
166 167 35 163 0 0 1 30 165 269 0 167 163 18 0 +.0100001 .01 .01 0 0 1 16 167 20
6 0 ?28 22 164 165 0 0 1 30 18 268 0 22 165 7 0 +.0100001 .01 .015 0 -1 0 16 22
 209 0 ?37 10 167 18 0 0 1 17 37 0 168 155 28 30 169 22 0 94 +15 168 250 0 166 1
70 0 17 155 0 168 166 37 48 93 85 0 0 +17 28 0 168 37 166 11 25 167 0 169 +17 16
9 0 171 27 94 11 37 22 0 0 -17 94 0 171 169 98 30 72 95 0 93 +15 171 240 0 27 17
2 0 17 98 0 171 94 27 70 97 99 0 0 -17 93 0 82 72 90 30 155 85 0 0 -17 90 0 82 9
3 65 48 173 136 0 155 +17 65 0 82 90 174 63 62 122 0 121 -17 173 0 175 176 50 63
 90 136 0 0 -15 175 1388 0 50 15 0 17 176 0 175 47 173 54 121 117 0 0 -17 50 0 1
75 173 47 48 166 164 0 90 -17 47 0 175 50 176 45 177 128 0 25 +17 166 0 168 28 1
55 45 50 164 0 0 +17 177 0 24 178 25 54 47 128 0 176 -17 25 0 24 177 21 45 28 16
7 0 166 -15 24 1079 0 25 179 180 14 255 179 79 181 ?172 91 182 5 183 -0 0 172 91
 20 15 180 815 0 144 179 184 17 144 0 180 144 144 0 185 142 0 0 +15 184 726 0 15
0 179 0 17 150 0 184 150 150 0 186 148 0 0 +17 186 0 187 186 186 0 150 148 0 0 -
15 187 761 0 186 188 189 14 188 757 190 ?191 192 187 5 193 -0 0 191 192 20 15 18
9 766 0 152 188 0 17 152 0 189 152 152 0 194 145 0 0 +17 194 0 195 194 194 0 152
 145 0 0 -15 195 735 0 194 91 0 14 91 83 196 ?179 197 198 5 17 -0 0 179 197 20 8
1 1 196 2062 199 91 200 0 190 201 202 14 197 1184 201 ?91 15 203 5 204 -0 0 91 1
5 20 15 198 1918 0 205 91 206 50 17 88 0 91 204 6 0 +.01 -.01 -.01 0 1 260208521
396521e-30 0 -260208521396521e-30 1 13 20 29 0 0 0 0 0 0 9 15 14 15 1390 207 ?19
7 0 175 5 6 -0 0 197 0 20 81 1 207 2064 199 15 208 0 201 209 210 80 255 1 199 21
1 212 9000 1 1 1 1 1 1 1 1 0 FFFFTFTFFFFFFF1 81 1 208 1982 213 15 0 207 0 214 21
5 81 1 201 2063 199 197 214 0 196 207 216 81 1 209 2065 199 192 217 0 207 218 21
9 82 255 1 210 -1081016135 14 192 363 209 ?188 78 220 5 221 +0 0 188 78 20 81 1
 217 1989 213 192 0 209 222 223 224 81 1 218 2066 199 191 225 0 209 226 227 82 1
 219 57606325 14 191 846 218 ?228 188 229 5 230 -0 0 228 188 20 81 1 225 1991 21
3 191 0 218 223 231 232 81 1 226 2067 199 228 231 0 218 233 234 82 1 227 5904812
5 14 228 1006 226 ?235 191 236 5 237 +0 0 235 191 20 81 1 231 1992 213 228 0 226
 225 238 239 81 1 233 2068 199 235 238 0 226 240 241 82 1 234 -959840082 14 235
 1143 233 ?102 228 242 5 243 -0 0 102 228 20 81 1 238 1993 213 235 0 233 231 244
 245 81 1 240 2069 199 102 244 0 233 246 247 82 1 241 -925695823 14 102 1748 240
 ?248 235 249 5 250 -0 0 248 235 20 81 1 244 1994 213 102 0 240 238 251 252 81 1
 246 2070 199 248 251 0 240 253 254 82 1 247 -1242431289 14 248 1009 246 ?255 10
2 256 5 257 -0 0 255 102 20 81 1 251 1995 213 248 0 246 244 258 259 81 1 253 207
1 199 255 258 0 246 260 261 82 1 254 -954203986 14 255 126 253 ?262 248 263 5 26
4 +0 0 262 248 20 81 1 258 1996 213 255 0 253 251 265 266 81 1 260 2072 199 262
 265 0 253 267 268 82 1 261 56164551 14 262 1888 260 ?269 255 270 5 271 -0 0 269
 255 20 81 1 265 1997 213 262 0 260 258 272 273 81 1 267 2073 199 269 272 0 260
 274 275 82 1 268 -363593522 14 269 1934 267 ?0 262 276 5 277 -0 0 0 262 20 81 1
 272 1998 213 269 0 267 265 0 278 81 1 274 2074 199 78 222 0 267 279 280 82 1 27
5 -359595826 14 78 352 274 ?192 170 31 5 281 +0 0 192 170 20 81 1 222 1988 213 7
8 0 274 282 217 283 81 1 279 2075 199 172 284 0 274 285 286 82 1 280 57475267 14
 172 237 279 ?170 179 171 5 287 +0 0 170 179 20 81 1 284 1986 213 172 0 279 288
 282 289 81 1 285 2076 199 170 282 0 279 0 290 82 1 286 56950979 14 170 248 285
 ?78 172 168 5 291 -0 0 78 172 20 81 1 282 1987 213 170 0 285 284 222 292 82 1 2
90 57213113 80 1 213 0 293 8001 0 0 0 0 3 5 0 0 0 FFFFTFTFFFFFFF2 83 255 3 292 1
 1 1 79 255 15 293 SDL/TYSA_COLOUR50 291 258 0 170 281 287 0 +.0100001 0 0 -1 0
 0 0 0 1 50 281 370 0 78 221 291 0 +0 .01 -.015 0 0 -1 -1 0 0 50 287 255 0 172 2
91 264 0 +0 .01 .015 0 0 1 1 0 0 51 255 264 139 0 255 287 183 0 -.01 17347234759
76805e-33 520417042793042e-32 -1 0 0 .0075 0 0 1 50 183 86 0 179 264 204 0 +.01
 .01 -.01 0 -1 -867361737988404e-31 0 867361737988404e-31 -1 50 204 87 0 197 183
 17 0 +.01 -.01 -.01 0 0 1 1 0 0 50 221 373 0 192 193 281 0 +.0100001 0 0 1 0 0
 0 0 -1 51 193 775 0 188 230 221 0 +.00500005 .01 -.0125 0 -1 -260208521396521e-
30 .001500000000000055 0 260208521396521e-30 -1 51 230 864 0 191 257 193 0 +.005
00005 .01 .0125 0 -1 -260208521396521e-30 .0015 0 260208521396521e-30 -1 50 257
 1018 0 248 237 230 0 +.01 0 0 1 0 0 0 0 -1 50 237 1019 0 228 243 257 0 +.031 0
 0 1 0 0 0 0 -1 51 243 1156 0 235 250 237 0 +.02050005 -.01 3382710778154775e-32
 0 1 867361737988404e-31 .0085 0 -867361737988404e-31 1 50 250 1761 0 102 271 24
3 0 +-.01 0 0 1 0 0 0 0 -1 51 271 1901 0 262 277 250 0 +-.00499995 .01 -.0125 0
 -1 -260208521396521e-30 .0015 0 260208521396521e-30 -1 51 277 1947 0 269 0 271
 0 +-.00499995 .01 .0125 0 -1 -260208521396521e-30 .0015 0 260208521396521e-30 -
1 81 1 288 1985 213 179 0 181 200 284 294 83 3 289 1 1 1 81 1 181 2060 199 179 2
88 0 0 190 295 81 1 200 1984 213 91 0 196 214 288 296 83 3 294 1 1 1 81 1 214 19
83 213 197 0 201 208 200 297 83 3 296 1 1 1 83 3 297 1 1 1 81 1 190 2061 199 188
 223 0 181 196 298 82 1 295 56033486 81 1 223 1990 213 188 0 190 217 225 299 82
 1 298 59834557 83 3 299 1 1 1 83 3 283 1 1 1 83 3 278 1 1 1 15 276 1937 0 300 2
69 301 17 300 0 276 300 300 0 302 303 0 0 -15 301 1938 0 304 269 0 17 304 0 301
 304 304 0 205 305 0 0 +17 205 0 198 205 205 0 304 305 0 0 -16 305 1931 0 ?304 3
03 0 306 0 0 1 16 303 1928 0 ?302 307 305 308 0 0 1 31 306 1950 0 305 308 309 0
 +-.00499995 -.01 .0125 0 -1 -260208521396521e-30 0 260208521396521e-30 -1 .0015
 31 308 1951 0 303 0 306 0 +-.00499995 .01 .0125 0 -1 -260208521396521e-30 0 260
208521396521e-30 -1 .0015 31 309 1905 0 107 306 109 0 +-.00499995 .01 -.0125 0 -
1 -260208521396521e-30 0 260208521396521e-30 -1 .0015 16 107 1882 0 ?310 104 307
 309 0 0 1 31 109 1904 0 307 309 108 0 +-.00499995 -.01 -.0125 0 -1 -26020852139
6521e-30 0 260208521396521e-30 -1 .0015 16 307 1885 0 ?311 107 303 109 0 0 1 17
 311 0 312 311 311 0 313 307 0 0 +15 312 1892 0 311 262 0 17 313 0 206 313 313 0
 311 307 0 0 -15 206 1872 0 313 91 314 15 314 1128 0 116 91 82 17 116 0 314 116
 116 0 315 114 0 0 +17 315 0 242 315 315 0 116 114 0 0 -15 242 1146 0 315 235 31
6 15 316 1147 0 119 235 0 17 119 0 316 119 119 0 317 113 0 0 +17 317 0 318 317 3
17 0 119 113 0 0 -15 318 1119 0 317 179 24 17 310 0 319 310 310 0 320 107 0 0 +1
5 319 1862 0 310 179 318 17 320 0 270 320 320 0 310 107 0 0 -15 270 1891 0 320 2
62 312 17 302 0 182 302 302 0 300 303 0 0 +15 182 1908 0 302 179 319 83 3 273 1
 1 1 83 3 266 1 1 1 15 263 129 0 140 255 321 17 140 0 263 140 140 0 322 138 0 0
 +15 321 1838 0 106 255 0 17 106 0 321 106 106 0 323 104 0 0 +17 323 0 249 323 3
23 0 106 104 0 0 -15 249 1822 0 323 102 96 17 322 0 256 322 322 0 140 138 0 0 -1
5 256 1011 0 322 248 0 83 3 259 1 1 1 83 3 252 1 1 1 83 3 245 1 1 1 83 3 239 1 1
 1 15 236 1008 0 121 228 0 17 121 0 236 62 56 63 176 117 0 173 +17 62 0 236 59 1
21 60 65 122 0 174 +17 56 0 236 121 59 54 178 126 0 177 +17 59 0 236 56 62 57 32
4 124 0 325 +17 178 0 24 132 177 57 56 126 0 0 -17 132 0 24 326 178 51 325 130 0
 162 +17 326 0 24 34 132 23 162 160 0 0 -17 325 0 203 324 53 57 132 130 0 178 -1
7 162 0 220 44 36 51 326 160 0 0 +15 220 365 0 44 192 0 17 44 0 220 84 162 42 53
 157 0 135 +17 36 0 220 162 84 23 32 81 0 326 +17 84 0 220 36 44 38 83 86 0 0 +1
7 83 0 82 174 75 42 84 86 0 0 -17 174 0 82 65 83 60 135 133 0 324 -17 135 0 203
 53 324 42 174 133 0 83 +17 324 0 203 135 325 60 59 124 0 0 -15 203 1182 0 135 1
97 0 17 53 0 203 325 135 51 44 157 0 132 -17 34 0 24 26 326 66 29 35 0 101 -17 2
6 0 24 21 34 68 101 103 0 0 -83 3 232 1 1 1 15 229 850 0 185 191 327 17 185 0 22
9 185 185 0 144 142 0 0 -15 327 855 0 147 191 0 17 147 0 327 147 147 0 328 141 0
 0 +17 328 0 92 328 328 0 147 141 0 0 -15 92 824 0 328 91 195 83 3 224 1 1 1 82
 1 216 1623654581 83 3 215 1 1 1 79 14 212 SWEntUnchanged82 1 202 56688846 17 27
 0 171 98 169 68 21 10 0 97 -17 97 0 96 101 88 68 98 99 0 26 +19 16 95 0 1 0 9 5
 S0 74 4 CI16 index_map_offset0 0 1 dCCZ20 14 3 0 0 285 2 272 0 0 0 0 0 0 0 0 0
 0 0 0 0 0 0 0 0 80 2 12 329 330 8004 0 0 0 0 3 5 0 0 0 FFTFFFFFFFFFFF2 3 83 1 1
3 1e3 79 16 330 SDL/TYSA_DENSITY1 0 
