**ABCDEFGHIJKLMNOPQRSTUVWXYZabcdefghijklmnopqrstuvwxyz**************************
**PARASOLID !"#$%&'()*+,-./:;<=>?@[\]^_`{|}~0123456789**************************
**PART1;
MC=AMD64;
MC_MODEL=Intel64 Family 6 Model 142 Stepping 9, GenuineIntel;
MC_ID=unknown;
OS=Windows_NT;
OS_RELEASE=unknown;
FRU=Parasolid Version 28.0, build 174,  7- 3-2015;
APPL=SOLIDWORKS 2016-2015266;
SITE=;
USER=unknown;
FORMAT=text;
GUISE=transmit;
KEY=1013;
FILE=1013.x_t;
DATE=Sat Oct 06 20:52:00 2018;
**PART2;
SCH=SCH_2800174_28002;
USFLD_SIZE=0;
**PART3;
**END_OF_HEADER*****************************************************************
T51 : TRANSMIT FILE created by modeller version 280017423 SCH_2800174_28002_1300
6200 0 12 30 CCCCCCCCCCCCCDI5 owner1040 0 CCCCCCCCCA13 boundary_mesh1006 0 A16 i
ndex_map_offset0 0 1 dA9 index_map82 0 A17 node_id_index_map82 0 A20 schema_embe
dding_map82 0 A5 child12 0 A14 lowest_node_id0 0 1 dZ1 2138 2 3 0 0 0 0 1e3 1e-8
 0 4 0 1 0 1 1 5 6 7 8 9 10 11 0 0 0 0 0 0 0 81 255 2 2 1533 12 1 0 0 0 0 13 0 7
0 11 CI9 list_type0 0 1 uI10 notransmit0 0 1 lCCCDCCDI12 finger_index0 0 1 dI12
 finger_block1012 0 CZ3 0 4 T1 0 0 3 20 1 14 14 13 255 5 94 0 1 0 15 0 0 16 0 50
 255 6 89 0 17 18 0 0 +.01 -.01 -.01 0 0 1 1 0 0 30 255 7 1398 0 10 19 0 0 -.027
 .01 .0055 0 0 -1 29 255 8 1075 0 11 20 0 .012 .01 .0045 19 8 CCCCCCCA5 owner12
 0 Z9 28 0 1 16 0 21 V0 16 255 10 1396 0 ?22 0 23 7 0 0 1 18 255 11 1073 0 24 0
 25 8 ?1 17 255 24 0 26 27 28 11 29 30 0 31 +18 25 1067 0 32 11 33 20 ?1 17 32 0
 34 35 36 25 37 38 0 39 +18 33 1064 0 40 25 41 42 ?1 29 20 1069 0 25 42 8 .012 -
.01 -.0045 29 42 1066 0 33 43 20 .012 -.01 .0045 29 43 1011 0 41 44 42 .012 .01
 .01 18 41 923 0 45 33 46 43 ?1 29 44 1012 0 46 47 43 .012 .01 -.01 18 46 922 0
 48 41 49 44 ?1 29 47 1013 0 49 50 44 .012 -.01 -.01 18 49 921 0 51 46 52 47 ?1
 29 50 1014 0 52 53 47 .012 -.01 .01 18 52 915 0 54 49 55 50 ?1 29 53 1164 0 55
 56 50 .012 .01 -.0045 18 55 1115 0 57 52 58 53 ?1 29 56 1381 0 58 59 53 .027 -.
01 .0045 18 58 1321 0 60 55 61 56 ?1 29 59 1384 0 61 62 56 .027 -.01 -.0045 18 6
1 1322 0 63 58 64 59 ?1 29 62 1508 0 64 65 59 .027 .01 .0045 18 64 1446 0 28 61
 66 62 ?1 29 65 1515 0 66 67 62 .027 .01 -.0045 18 66 1454 0 68 64 69 65 ?1 29 6
7 1780 0 70 71 65 0 -.01 -.01 18 70 1672 0 72 69 73 67 ?1 29 71 1784 0 69 74 67
 0 .01 -.01 18 69 1675 0 75 66 70 71 ?1 29 74 2026 0 76 77 71 0 -.01 .01 18 76 1
918 0 78 73 0 74 ?1 29 77 2030 0 73 0 74 0 .01 .01 18 73 1916 0 79 70 76 77 ?1 1
7 79 0 80 81 82 73 78 83 0 84 -15 255 80 1835 0 79 85 86 17 81 0 80 87 79 69 88
 89 0 0 -17 82 0 80 79 87 76 72 23 0 0 -17 78 0 90 91 84 76 79 83 0 92 +16 83 17
4 0 ?78 23 89 93 0 0 1 17 84 0 90 78 94 73 95 96 0 88 +15 90 180 0 84 97 0 17 94
 0 90 84 91 41 98 99 0 0 -17 95 0 100 101 88 41 84 96 0 94 -16 96 876 0 ?84 102
 103 104 0 0 1 17 88 0 100 95 105 73 81 89 0 0 +15 100 1397 0 88 106 0 17 105 0
 100 88 107 69 108 102 0 81 +16 89 1579 0 ?88 83 109 110 0 0 1 16 109 404 0 ?75
 89 111 112 0 0 1 30 110 68 0 89 112 93 0 +0 .01 .01 0 0 1 30 112 69 0 109 113 1
10 0 +0 -.01 -.01 0 1 0 30 93 67 0 83 110 114 0 +0 -.01 .01 0 -1 0 30 114 66 0 2
3 93 19 0 +0 -.01 .01 0 0 -1 16 23 1809 0 ?72 10 83 114 0 0 1 31 255 19 1198 0 1
15 114 7 0 +.027 0 .0045 0 0 1 1 0 0 .003 16 115 1211 0 ?116 117 118 19 0 0 1 17
 116 0 119 116 116 0 120 115 0 0 +16 117 1110 0 ?31 121 115 122 0 0 1 16 118 121
2 0 ?123 115 124 125 0 0 1 17 123 0 126 123 123 0 127 118 0 0 +16 124 1299 0 ?60
 118 128 129 0 0 1 31 125 1238 0 118 129 122 0 +.027 0 -.0045 0 0 -1 -1 0 0 .003
 31 129 1369 0 124 130 125 0 -.027 0 .0045 0 0 1 1 0 0 .01 30 122 1157 0 117 125
 131 0 +.012 -.01 .0045 0 1 0 30 131 1155 0 121 122 132 0 +.012 -.01 -.0045 0 1
 0 16 121 1089 0 ?35 133 117 131 0 0 1 30 132 1154 0 38 131 134 0 +.037 -.01 -.0
045 -1 0 0 16 38 1269 0 ?32 99 135 132 0 0 1 30 134 1153 0 135 132 136 0 +.037 .
01 -.0045 -1 0 0 16 135 1394 0 ?57 38 30 134 0 0 1 30 136 1152 0 30 134 137 0 +.
037 .01 .0045 -1 0 0 16 30 1391 0 ?24 135 133 136 0 0 1 30 137 1151 0 133 136 13
8 0 +.037 -.01 .0045 -1 0 0 16 133 1262 0 ?40 30 121 137 0 0 1 30 138 994 0 99 1
37 139 0 +.012 .01 .01 0 -1 0 16 99 892 0 ?98 140 38 138 0 0 1 30 139 993 0 141
 138 142 0 +.012 -.01 .01 0 0 -1 16 141 895 0 ?143 144 140 139 140 140 1 30 142
 992 0 144 139 145 0 +.012 .01 -.01 0 1 0 16 144 898 0 ?48 146 141 142 0 0 1 30
 145 991 0 103 142 104 0 +.012 .01 .01 0 0 1 16 103 901 0 ?147 96 146 145 146 14
6 1 30 104 986 0 96 145 148 0 +.012 .01 .01 -1 0 0 30 148 985 0 102 104 149 0 +.
012 .01 -.01 -1 0 0 16 102 890 0 ?105 150 96 148 0 0 1 30 149 984 0 150 148 151
 0 +.012 -.01 -.01 -1 0 0 16 150 886 0 ?152 153 102 149 0 0 1 30 151 983 0 153 1
49 154 0 +.012 -.01 .01 -1 0 0 16 153 880 0 ?92 155 150 151 0 0 1 31 154 978 0 1
55 151 113 0 +.01 0 0 1 0 0 0 0 -1 .0075 16 155 861 0 ?156 111 153 154 0 0 1 31
 113 142 0 111 154 112 0 +0 0 0 1 0 0 0 0 -1 .0075 16 111 120 0 ?157 109 155 113
 0 0 1 17 157 0 86 157 157 0 158 111 0 0 +15 86 108 0 157 85 0 17 158 0 159 158
 158 0 157 111 0 0 -15 159 130 0 158 160 0 14 255 160 126 161 ?162 163 164 5 165
 +0 0 162 163 21 81 1 161 2126 166 160 167 0 0 168 169 14 162 960 168 ?170 160 1
71 5 172 +173 173 170 160 21 14 163 79 174 ?160 85 175 5 176 -0 0 160 85 21 15 1
64 129 0 156 160 159 51 255 165 139 0 160 177 178 0 -.01 0 0 -1 0 0 .0075 0 0 1
 13 21 29 0 0 0 0 0 0 9 15 14 15 1412 179 ?180 0 181 5 182 -0 0 180 0 21 81 1 17
9 2129 166 15 183 0 174 184 185 14 180 1407 184 ?106 15 186 5 187 +0 0 106 15 21
 15 181 1202 0 127 15 34 50 182 1148 0 15 188 187 0 +.037 -.01 -.0045 0 0 1 1 0
 0 51 188 1235 0 189 190 182 0 +.027 0 .0055 0 0 -1 .003 -1 0 0 50 187 1146 0 18
0 182 172 0 +.037 -.01 .0045 0 0 1 1 0 0 50 172 973 0 162 187 177 0 +.012 0 0 1
 0 0 0 0 -1 50 177 972 0 170 172 165 0 +.01 0 0 1 0 0 0 0 -1 14 170 963 191 ?189
 162 192 5 177 -0 0 189 162 21 81 1 191 2131 166 170 193 0 184 194 195 14 189 12
20 194 ?196 170 119 5 188 -0 0 196 170 21 15 192 965 0 197 170 0 17 197 0 192 19
7 197 0 156 155 0 0 -17 156 0 164 156 156 0 197 155 0 0 +81 1 194 2132 166 189 1
98 0 191 199 200 14 196 1350 199 ?0 189 201 5 190 -0 0 0 189 21 15 119 1223 0 11
6 189 126 15 126 1224 0 123 189 0 81 1 199 2133 166 196 202 0 194 203 204 15 201
 1353 0 60 196 0 51 190 1363 0 196 0 188 0 -.027 0 .0055 0 0 -1 .01 -1 0 0 17 60
 0 201 63 22 58 28 124 0 205 +17 63 0 201 68 60 61 205 128 0 36 +17 22 0 201 60
 68 64 206 10 0 29 +17 28 0 26 24 207 64 60 124 0 22 -17 205 0 175 40 37 58 63 1
28 0 207 -15 175 1032 0 92 163 0 17 40 0 175 54 205 33 207 133 0 143 +17 37 0 17
5 205 208 61 32 38 0 0 -16 128 1303 0 ?63 124 209 130 0 0 1 17 207 0 26 28 27 58
 40 133 0 0 -15 26 1406 0 28 180 0 17 27 0 26 207 24 33 31 117 0 0 -17 31 0 210
 45 143 11 27 117 0 101 +15 210 962 0 143 173 0 17 45 0 210 98 31 41 101 146 0 9
5 +17 143 0 210 31 98 33 54 141 0 27 +17 101 0 100 29 95 11 45 146 0 0 -17 29 0
 100 206 101 64 24 30 0 0 -16 146 1074 0 ?45 103 144 145 103 103 1 17 206 0 100
 57 29 66 22 10 0 211 -17 57 0 100 107 206 55 211 135 0 147 +17 211 0 34 36 35 6
6 57 135 0 0 -15 34 1128 0 211 15 0 17 36 0 34 32 211 61 68 209 0 37 -17 35 0 34
 211 32 55 39 121 0 0 +17 39 0 171 51 147 25 35 121 0 208 -15 171 1077 0 39 162
 0 17 51 0 171 48 39 49 208 140 0 212 +17 147 0 171 39 48 55 107 103 0 35 +17 20
8 0 175 37 212 25 51 140 0 0 -17 212 0 175 208 72 49 152 150 0 213 -16 140 1068
 0 ?51 141 99 139 141 141 1 17 72 0 175 212 92 70 82 23 0 87 +17 152 0 214 75 21
3 70 212 150 0 0 +17 213 0 214 152 108 49 48 144 0 0 -15 214 410 0 152 17 0 17 1
08 0 214 213 75 46 105 102 0 107 -17 48 0 171 147 51 46 213 144 0 108 +17 75 0 2
14 108 152 69 87 109 0 105 +17 107 0 100 105 57 46 147 103 0 0 -17 87 0 80 82 81
 70 75 109 0 152 -14 17 411 203 ?97 173 214 5 6 -0 0 97 173 21 81 1 203 2134 166
 17 215 0 199 216 217 14 97 181 216 ?85 17 90 5 218 -0 0 85 17 21 14 173 1082 21
9 ?17 106 210 5 172 +162 162 17 106 21 81 1 219 2136 166 173 220 0 216 221 222 1
4 106 1399 221 ?173 180 100 5 18 -0 0 173 180 21 81 1 221 2137 166 106 223 0 219
 224 225 50 18 88 0 106 218 6 0 +.01 .01 .01 0 -1 0 0 0 -1 50 218 87 0 97 176 18
 0 +.01 -.01 .01 0 0 -1 -1 0 0 50 176 86 0 163 178 218 0 +.01 -.01 .01 0 1 0 0 0
 1 50 178 65 0 85 165 176 0 +0 0 0 -1 0 0 0 0 1 14 85 111 224 ?163 97 80 5 178 +
0 0 163 97 21 81 1 224 2138 166 85 226 0 221 0 227 80 255 1 166 228 229 9000 1 1
 1 1 1 1 1 1 0 FFFFTFTFFFFFFF1 81 1 226 2074 230 85 0 224 231 232 233 82 255 1 2
27 571474158 80 1 230 0 234 8001 0 0 0 0 3 5 0 0 0 FFFFTFTFFFFFFF2 81 1 231 2073
 230 97 0 216 215 226 235 81 1 232 2075 230 163 0 174 226 167 236 83 255 3 233 1
 1 1 81 1 174 2128 166 163 232 0 168 179 237 81 1 167 2076 230 160 0 161 232 238
 239 83 3 236 1 1 1 81 1 238 2077 230 162 0 168 167 193 240 83 3 239 1 1 1 81 1
 168 2127 166 162 238 0 161 174 241 81 1 193 2078 230 170 0 191 238 198 242 83 3
 240 1 1 1 81 1 198 2079 230 189 0 194 193 202 243 83 3 242 1 1 1 81 1 202 2080
 230 196 0 199 198 0 244 83 3 243 1 1 1 83 3 244 1 1 1 82 1 241 2057306339 82 1
 237 569966830 81 1 216 2135 166 97 231 0 203 219 245 81 1 215 2072 230 17 0 203
 220 231 246 83 3 235 1 1 1 81 1 220 2071 230 173 0 219 223 215 247 83 3 246 1 1
 1 81 1 223 2070 230 106 0 221 248 220 249 83 3 247 1 1 1 81 1 248 2069 230 180
 0 184 183 223 250 83 3 249 1 1 1 81 1 184 2130 166 180 248 0 179 191 251 81 1 1
83 2068 230 15 0 179 0 248 252 83 3 250 1 1 1 83 3 252 1 1 1 82 1 251 -980156182
 82 1 245 571277550 79 255 15 234 SDL/TYSA_COLOUR79 14 229 SWEntUnchanged82 1 22
5 570228974 82 1 222 1394213091 82 1 217 571080942 17 92 0 175 72 54 76 91 153 0
 82 +17 54 0 175 92 40 52 143 141 0 98 -17 91 0 90 94 78 52 92 153 0 0 -17 98 0
 210 143 45 52 94 99 0 91 +17 68 0 201 22 63 66 36 209 0 206 +16 209 1310 0 ?68
 128 0 253 0 0 1 31 253 1374 0 209 0 130 0 -.027 0 -.0045 0 0 -1 -1 0 0 .01 30 1
30 1370 0 128 253 129 0 +.027 -.01 .0055 0 0 -1 82 1 204 -1006239510 82 1 200 14
73183974 82 1 195 2062942421 17 127 0 181 127 127 0 123 118 0 0 -15 186 1197 0 1
20 180 26 17 120 0 186 120 120 0 116 115 0 0 -82 1 185 -979697430 82 1 169 63897
6142 19 16 95 0 1 0 9 5 S0 74 4 CI16 index_map_offset0 0 1 dCCZ20 14 3 0 0 224 2
 202 0 0 0 0 0 0 0 0 0 0 0 0 0 0 0 0 0 80 2 12 254 255 8004 0 0 0 0 3 5 0 0 0 FF
TFFFFFFFFFFF2 3 83 1 13 1e3 79 16 255 SDL/TYSA_DENSITY1 0 
