**ABCDEFGHIJKLMNOPQRSTUVWXYZabcdefghijklmnopqrstuvwxyz**************************
**PARASOLID !"#$%&'()*+,-./:;<=>?@[\]^_`{|}~0123456789**************************
**PART1;
MC=AMD64;
MC_MODEL=Intel64 Family 6 Model 142 Stepping 9, GenuineIntel;
MC_ID=unknown;
OS=Windows_NT;
OS_RELEASE=unknown;
FRU=Parasolid Version 28.0, build 174,  7- 3-2015;
APPL=SOLIDWORKS 2016-2015266;
SITE=;
USER=unknown;
FORMAT=text;
GUISE=transmit;
KEY=1014;
FILE=1014.x_t;
DATE=Sat Oct 06 20:52:14 2018;
**PART2;
SCH=SCH_2800174_28002;
USFLD_SIZE=0;
**PART3;
**END_OF_HEADER*****************************************************************
T51 : TRANSMIT FILE created by modeller version 280017423 SCH_2800174_28002_1300
6200 0 12 30 CCCCCCCCCCCCCDI5 owner1040 0 CCCCCCCCCA13 boundary_mesh1006 0 A16 i
ndex_map_offset0 0 1 dA9 index_map82 0 A17 node_id_index_map82 0 A20 schema_embe
dding_map82 0 A5 child12 0 A14 lowest_node_id0 0 1 dZ1 307 2 3 0 0 0 0 1e3 1e-8
 0 4 0 1 0 1 1 5 6 7 8 9 10 11 0 0 0 0 0 0 0 81 255 2 2 253 12 1 0 0 0 0 13 0 70
 11 CI9 list_type0 0 1 uI10 notransmit0 0 1 lCCCDCCDI12 finger_index0 0 1 dI12 f
inger_block1012 0 CZ3 0 4 T1 0 0 3 20 1 14 14 13 255 5 114 0 1 0 15 0 0 16 0 50
 255 6 107 0 17 18 0 0 +.01 -.0095 -.02 0 1 867361737988404e-31 0 -8673617379884
04e-31 1 30 255 7 113 0 10 19 0 0 +.01 -.0095 0 -1 0 0 29 255 8 85 0 20 21 0 0 .
0095 581707229594993e-33 19 8 CCCCCCCA5 owner12 0 Z9 34 0 1 16 0 22 V0 16 255 10
 93 0 ?23 0 24 7 0 0 1 18 255 11 28 0 25 0 26 27 ?1 17 255 25 0 28 29 30 11 31 3
2 0 33 -18 26 25 0 34 11 35 36 ?1 29 27 30 0 11 36 37 .01 .0095 581707229594993e
-33 29 36 27 0 26 38 27 .01 .0095 -.02 29 37 88 0 39 27 40 0 -.0095 0 18 39 77 0
 41 42 0 37 ?1 29 40 87 0 42 37 21 0 -.0095 -.02 18 42 76 0 43 44 39 40 ?1 29 21
 86 0 44 40 8 0 .0095 -.02 18 44 75 0 45 20 42 21 ?1 17 45 0 46 47 48 44 49 50 0
 51 +18 20 74 0 52 53 44 8 ?1 17 52 0 54 55 51 20 56 57 0 29 +18 53 19 0 58 35 2
0 59 ?1 17 58 0 60 23 61 53 62 63 0 31 -18 35 22 0 62 26 53 38 ?1 29 59 21 0 53
 0 38 .01 -.0095 0 29 38 24 0 35 59 36 .01 -.0095 -.02 17 62 0 64 34 31 35 58 63
 0 61 +15 255 64 3 0 31 15 65 17 34 0 64 33 62 26 66 67 0 47 +17 31 0 64 62 33 5
3 25 32 0 30 +16 63 7 0 ?62 67 32 68 0 0 1 17 61 0 60 58 43 35 48 24 0 66 -15 60
 100 0 43 17 0 17 43 0 60 61 23 42 69 70 0 48 +17 48 0 46 45 66 42 61 24 0 49 +1
6 24 92 0 ?48 10 71 19 0 0 1 17 66 0 46 48 47 35 34 67 0 0 -15 46 98 0 45 72 0 1
7 47 0 46 66 45 26 51 71 0 73 -16 67 10 0 ?34 74 63 75 0 0 1 16 74 13 0 ?33 76 6
7 77 0 0 1 30 75 11 0 67 68 77 0 +.01 .0095 -.02 0 1 1826024711554535e-31 30 68
 8 0 63 78 75 0 +.01 -.0095 -.02 0 867361737988404e-31 -1 30 77 14 0 74 75 79 0
 +.01 .0095 0 0 0 1 30 79 82 0 70 77 80 0 +0 -.0095 -.02 0 867361737988404e-31 -
1 16 70 65 0 ?43 50 81 79 0 0 1 30 80 81 0 50 79 82 0 +0 .0095 -.02 0 1 18260247
11554535e-31 16 50 61 0 ?45 57 70 80 0 0 1 30 82 80 0 57 80 83 0 +0 .0095 0 0 0
 1 16 57 57 0 ?52 84 50 82 0 0 1 31 255 83 79 0 84 82 85 0 +0 0 0 1 0 0 0 0 1 .0
095 16 84 53 0 ?41 32 57 83 0 0 1 30 85 110 0 76 83 86 0 +.01 .0095 581707229594
993e-33 -1 0 0 16 76 90 0 ?29 71 74 85 0 0 1 30 86 111 0 71 85 19 0 +.01 .0095 -
.02 -1 0 0 16 71 91 0 ?51 24 76 86 0 0 1 30 19 112 0 24 86 7 0 +.01 -.0095 -.02
 -1 0 0 17 51 0 54 52 73 44 47 71 0 56 +15 54 96 0 52 87 0 17 73 0 54 51 55 26 3
3 74 0 0 -17 56 0 88 49 89 44 52 57 0 0 -15 88 52 0 69 90 91 17 49 0 88 69 56 42
 45 50 0 0 -17 89 0 88 56 69 20 41 84 0 0 -17 69 0 88 89 49 39 43 70 0 23 -17 41
 0 28 30 29 39 89 84 0 69 +15 28 94 0 41 92 0 17 30 0 28 25 41 53 23 10 0 0 -17
 29 0 28 41 25 20 55 76 0 89 +17 55 0 54 73 52 11 29 76 0 0 -17 23 0 60 43 58 39
 30 10 0 0 +14 255 92 95 93 ?94 87 28 5 95 -0 0 94 87 22 81 1 93 300 96 92 97 0
 0 98 99 14 94 153 98 ?100 92 101 5 102 +0 0 100 92 22 14 87 97 103 ?92 72 104 5
 105 -0 0 92 72 22 51 255 95 104 0 92 106 105 0 -.01 0 0 -1 0 0 .0095 0 0 1 13 2
2 35 0 0 0 0 0 0 9 15 14 15 144 107 ?90 0 64 5 108 +0 0 90 0 22 81 1 107 303 96
 15 109 0 103 110 111 14 90 138 110 ?17 15 88 5 106 -0 0 17 15 22 50 108 2 0 15
 102 106 0 +.01 0 0 1 0 0 0 0 -1 51 102 166 0 94 112 108 0 -.01 0 0 -1 0 0 .0054
6283639494344 0 0 1 50 106 78 0 90 108 95 0 +0 0 0 1 0 0 0 0 -1 51 112 237 0 100
 0 102 0 +.005 -.0095 -.015 0 1 0 .0015 0 0 1 14 100 224 113 ?0 94 114 5 112 -0
 0 0 94 22 81 1 113 305 96 100 115 0 110 116 117 15 114 227 0 118 100 119 17 118
 0 114 118 118 0 120 121 0 0 -15 119 228 0 122 100 0 17 122 0 119 122 122 0 123
 124 0 0 +17 123 0 104 123 123 0 122 124 0 0 -16 124 221 0 ?122 121 0 125 0 0 1
 16 121 218 0 ?120 126 124 127 0 0 1 31 125 240 0 124 127 128 0 +.005 .0095 -.01
5 0 1 0 0 0 1 .0015 31 127 241 0 121 0 125 0 +.005 -.0095 -.015 0 1 0 0 0 1 .001
5 31 128 170 0 81 125 129 0 +.01 0 0 1 0 0 0 0 -1 .00546283639494344 16 81 150 0
 ?130 70 126 128 0 0 1 31 129 169 0 126 128 78 0 +0 0 0 1 0 0 0 0 -1 .0054628363
9494344 16 126 147 0 ?131 81 121 129 0 0 1 31 78 5 0 32 129 68 0 +.01 0 0 1 0 0
 0 0 -1 .0095 16 32 4 0 ?31 63 84 78 0 0 1 17 131 0 91 131 131 0 132 126 0 0 +15
 91 136 0 131 90 0 17 132 0 133 132 132 0 131 126 0 0 -15 133 157 0 132 94 0 17
 130 0 101 130 130 0 134 81 0 0 +15 101 156 0 130 94 133 17 134 0 65 134 134 0 1
30 81 0 0 -15 65 141 0 134 15 0 17 120 0 135 120 120 0 118 121 0 0 +15 135 212 0
 120 17 60 14 17 101 116 ?72 90 135 5 6 -0 0 72 90 22 81 1 116 306 96 17 136 0 1
13 137 138 14 72 99 137 ?87 17 46 5 18 -0 0 87 17 22 81 1 137 307 96 72 139 0 11
6 0 140 50 18 106 0 72 105 6 0 +.01 .0095 -.02 0 -1826024711554535e-31 1 0 -1 -1
826024711554535e-31 50 105 105 0 87 95 18 0 +.01 .0095 0 0 -1 0 0 0 -1 80 255 1
 96 141 142 9000 1 1 1 1 1 1 1 1 0 FFFFTFTFFFFFFF1 81 1 139 276 143 72 0 137 136
 144 145 82 255 1 140 -1836711786 80 1 143 0 146 8001 0 0 0 0 3 5 0 0 0 FFFFTFTF
FFFFFF2 81 1 136 275 143 17 0 116 147 139 148 81 1 144 277 143 87 0 103 139 97 1
49 83 255 3 145 1 1 1 81 1 103 302 96 87 144 0 98 107 150 81 1 97 278 143 92 0 9
3 144 151 152 83 3 149 1 1 1 81 1 151 279 143 94 0 98 97 115 153 83 3 152 1 1 1
 81 1 98 301 96 94 151 0 93 103 154 81 1 115 280 143 100 0 113 151 0 155 83 3 15
3 1 1 1 83 3 155 1 1 1 82 1 154 -1849294698 82 1 150 -1836973927 81 1 147 274 14
3 90 0 110 109 136 156 83 3 148 1 1 1 81 1 110 304 96 90 147 0 107 113 157 81 1
 109 273 143 15 0 107 0 147 158 83 3 156 1 1 1 83 3 158 1 1 1 82 1 157 -18335005
22 79 255 15 146 SDL/TYSA_COLOUR79 14 142 SWEntUnchanged82 1 138 -1836449639 15
 104 206 0 123 87 54 82 1 117 -1820589927 82 1 111 -1832976234 82 1 99 -18372360
74 17 33 0 64 31 34 11 73 74 0 55 +19 16 115 0 1 0 9 5 S0 74 4 CI16 index_map_of
fset0 0 1 dCCZ20 14 3 0 0 137 2 115 0 0 0 0 0 0 0 0 0 0 0 0 0 0 0 0 0 80 2 12 15
9 160 8004 0 0 0 0 3 5 0 0 0 FFTFFFFFFFFFFF2 3 83 1 13 1e3 79 16 160 SDL/TYSA_DE
NSITY1 0 
